<?xml version="1.0" encoding="UTF-8"?>
<svg xmlns="http://www.w3.org/2000/svg" xmlns:xlink="http://www.w3.org/1999/xlink" version="1.2" >
<font id="iCiel Graphik Regular Italic">
<font-face  font-family="iCiel Graphik" units-per-em="1000" ascent="818" descent="-182" font-style="normal" font-weight="400" font-stretch="normal" slope="-8.05" cap-height="715" x-height="523" underline-position="-75" underline-thickness="50" />
<missing-glyph  horiz-adv-x="500" d="" />
<glyph glyph-name="null" d="" />
<glyph glyph-name="nonmarkingreturn" unicode="&#xd;" horiz-adv-x="265" d="" />
<glyph glyph-name="space" unicode="&#x20;" horiz-adv-x="265" d="" />
<glyph glyph-name="exclam" unicode="&#x21;" horiz-adv-x="286" d="M261 715 L165 202 L101 202 L169 715 L261 715 Z M113 -5 Q87 -5 68 13.5 Q49 32 49 59 Q49 86 67.5 104.5 Q86 123 112 123 Q138 123 157.5 104.5 Q177 86 177 59 Q177 32 158 13.5 Q139 -5 113 -5 Z " />
<glyph glyph-name="quotedbl" unicode="&#x22;" horiz-adv-x="375" d="M221 715 L169 470 L109 470 L131 715 L221 715 Z M384 715 L332 470 L272 470 L294 715 L384 715 Z " />
<glyph glyph-name="numbersign" unicode="&#x23;" horiz-adv-x="503" d="M192 282 L149 99 L81 99 L124 282 L37 282 L48 352 L140 352 L171 484 L83 484 L94 554 L188 554 L226 715 L294 715 L256 554 L353 554 L391 715 L459 715 L421 554 L509 554 L498 484 L404 484 L373 352 L463 352 L452 282 L357 282 L314 99 L246 99 L289 282 L192 282 Z M305 352 L336 484 L239 484 L208 352 L305 352 Z " />
<glyph glyph-name="dollar" unicode="&#x24;" horiz-adv-x="617" d="M275 -135 L216 -135 L236 -4 Q184 4 146 25 Q108 46 82.5 76 Q57 106 44.5 142.5 Q32 179 32 218 L116 218 Q117 193 124.5 168.5 Q132 144 148 123.5 Q164 103 188.5 87.5 Q213 72 247 65 L291 339 Q246 353 212.5 369.5 Q179 386 156 408 Q133 430 121.5 458.5 Q110 487 110 526 Q110 566 127.5 602 Q145 638 177 665 Q209 692 253.5 708 Q298 724 352 724 L366 813 L425 813 L410 719 Q489 706 537 657 Q585 608 587 527 L509 527 Q504 583 474 611.5 Q444 640 399 650 L359 399 Q409 384 445.5 366.5 Q482 349 506 327 Q530 305 541.5 276 Q553 247 553 209 Q553 162 535.5 122 Q518 82 485.5 53 Q453 24 406 7.5 Q359 -9 300 -9 L295 -9 L275 -135 Z M192 529 Q192 510 197 495 Q202 480 214.5 466.5 Q227 453 248.5 441 Q270 429 303 417 L341 655 Q265 654 228.5 617.5 Q192 581 192 529 Z M469 201 Q469 223 463.5 240.5 Q458 258 444 272 Q430 286 406.5 298 Q383 310 347 322 L306 60 Q385 61 427 99 Q469 137 469 201 Z " />
<glyph glyph-name="percent" unicode="&#x25;" horiz-adv-x="784" d="M227 383 Q193 383 164.5 395 Q136 407 115.5 428 Q95 449 84 477.5 Q73 506 73 539 Q73 575 86.5 608 Q100 641 123.5 666 Q147 691 179 706 Q211 721 248 721 Q283 721 311.5 708.5 Q340 696 359.5 674.5 Q379 653 389.5 624 Q400 595 400 562 Q400 526 386.5 493.5 Q373 461 350 436.5 Q327 412 295 397.5 Q263 383 227 383 Z M722 715 L175 0 L96 0 L643 715 L722 715 Z M149 535 Q149 519 153 503 Q157 487 166 474.5 Q175 462 190.5 454.5 Q206 447 229 447 Q274 447 299 480.5 Q324 514 324 565 Q324 582 320 598 Q316 614 307 627.5 Q298 641 283 649 Q268 657 245 657 Q196 657 172.5 621 Q149 585 149 535 Z M571 -8 Q537 -8 508.5 4 Q480 16 459.5 37 Q439 58 428 86.5 Q417 115 417 148 Q417 184 430.5 217 Q444 250 467.5 275 Q491 300 523 315 Q555 330 592 330 Q627 330 655.5 317.5 Q684 305 703.5 283.5 Q723 262 733.5 233 Q744 204 744 171 Q744 135 730.5 102.5 Q717 70 694 45.5 Q671 21 639 6.5 Q607 -8 571 -8 Z M493 144 Q493 128 497 112 Q501 96 510 83.5 Q519 71 534.5 63.5 Q550 56 573 56 Q618 56 643 89.5 Q668 123 668 174 Q668 191 664 207 Q660 223 651 236.5 Q642 250 627 258 Q612 266 589 266 Q540 266 516.5 230 Q493 194 493 144 Z " />
<glyph glyph-name="ampersand" unicode="&#x26;" horiz-adv-x="680" d="M449 85 Q414 49 362.5 22 Q311 -5 250 -6 Q212 -6 174 3.5 Q136 13 106 35 Q76 57 57 92.5 Q38 128 38 180 Q38 225 53 260 Q68 295 95 322.5 Q122 350 158 371 Q194 392 236 408 Q216 443 205 476 Q194 509 194 540 Q194 581 208 614.5 Q222 648 246 671 Q270 694 302.5 706.5 Q335 719 372 719 Q404 719 432.5 709.5 Q461 700 482 681.5 Q503 663 515 636.5 Q527 610 527 577 Q527 538 512 508 Q497 478 472 455.5 Q447 433 415 416 Q383 399 348 385 L467 204 L575 369 L655 369 L507 145 L603 0 L506 0 L449 85 Z M370 655 Q328 655 301.5 627 Q275 599 275 548 Q275 523 286 496 Q297 469 317 436 Q341 445 364.5 456.5 Q388 468 406.5 484 Q425 500 436.5 522 Q448 544 448 575 Q448 606 429.5 630.5 Q411 655 370 655 Z M124 182 Q124 124 159 92.5 Q194 61 253 61 Q295 61 337 81 Q379 101 414 139 L268 358 Q240 347 214 332.5 Q188 318 168 297.5 Q148 277 136 249 Q124 221 124 182 Z " />
<glyph glyph-name="quotesingle" unicode="&#x27;" horiz-adv-x="212" d="M221 715 L169 470 L109 470 L131 715 L221 715 Z " />
<glyph glyph-name="parenleft" unicode="&#x28;" horiz-adv-x="322" d="M155 -148 Q107 -78 78.5 9 Q50 96 50 202 Q50 290 68 369.5 Q86 449 118 520 Q150 591 195.5 654.5 Q241 718 296 773 L387 773 Q330 715 284 651.5 Q238 588 205 517.5 Q172 447 154 368.5 Q136 290 136 202 Q136 103 161.5 16.5 Q187 -70 235 -148 L155 -148 Z " />
<glyph glyph-name="parenright" unicode="&#x29;" horiz-adv-x="322" d="M181 776 Q229 706 257.5 619 Q286 532 286 426 Q286 338 268 258.5 Q250 179 218 108 Q186 37 140.5 -26.5 Q95 -90 40 -145 L-51 -145 Q6 -87 52 -23.5 Q98 40 131 110.5 Q164 181 182 259.5 Q200 338 200 426 Q200 525 174.5 611.5 Q149 698 101 776 L181 776 Z " />
<glyph glyph-name="asterisk" unicode="&#x2a;" horiz-adv-x="422" d="M211 565 L93 601 L126 666 L236 612 L250 743 L323 743 L295 609 L420 649 L431 582 L302 560 L369 445 L306 408 L250 531 L162 416 L112 460 L211 565 Z " />
<glyph glyph-name="plus" unicode="&#x2b;" horiz-adv-x="519" d="M42 307 L53 377 L240 377 L272 579 L345 579 L313 377 L500 377 L489 307 L302 307 L270 105 L197 105 L229 307 L42 307 Z " />
<glyph glyph-name="comma" unicode="&#x2c;" horiz-adv-x="282" d="M109 124 L184 86 L41 -123 L-9 -95 L109 124 Z " />
<glyph glyph-name="hyphen" unicode="&#x2d;" horiz-adv-x="335" d="M281 314 L269 236 L55 236 L67 314 L281 314 Z " />
<glyph glyph-name="period" unicode="&#x2e;" horiz-adv-x="282" d="M108 -5 Q82 -5 63 13.5 Q44 32 44 59 Q44 86 62.5 104.5 Q81 123 107 123 Q133 123 152.5 104.5 Q172 86 172 59 Q172 32 153 13.5 Q134 -5 108 -5 Z " />
<glyph glyph-name="slash" unicode="&#x2f;" horiz-adv-x="403" d="M453 776 L18 -148 L-59 -148 L375 776 L453 776 Z " />
<glyph glyph-name="zero" unicode="0" horiz-adv-x="681" d="M318 -9 Q253 -9 206 12.5 Q159 34 128 71.5 Q97 109 82 159 Q67 209 67 266 Q67 289 68.5 311.5 Q70 334 74 355 L80 392 Q92 468 120 529 Q148 590 189 633.5 Q230 677 283 700.5 Q336 724 398 724 Q463 724 509 702 Q555 680 584.5 642 Q614 604 628 553.5 Q642 503 642 446 Q642 425 640.5 402.5 Q639 380 635 358 L629 321 Q617 247 590.5 186 Q564 125 524 81.5 Q484 38 432 14.5 Q380 -9 318 -9 Z M323 63 Q411 63 466.5 131.5 Q522 200 543 331 L549 368 Q552 386 553.5 406 Q555 426 555 446 Q555 485 547.5 522 Q540 559 521.5 588.5 Q503 618 472 636 Q441 654 393 654 Q306 654 247 584 Q188 514 167 386 L161 349 Q158 330 156 308.5 Q154 287 154 265 Q154 228 161.5 191.5 Q169 155 188 126.5 Q207 98 239.5 80.5 Q272 63 323 63 Z " />
<glyph glyph-name="one" unicode="1" horiz-adv-x="399" d="M72 512 L85 595 L270 715 L351 715 L238 0 L151 0 L250 627 L72 512 Z " />
<glyph glyph-name="two" unicode="2" horiz-adv-x="554" d="M311 316 Q336 338 359.5 362 Q383 386 401.5 413.5 Q420 441 431 472 Q442 503 442 537 Q442 560 435 581.5 Q428 603 413.5 619 Q399 635 378 644.5 Q357 654 328 654 Q269 655 224.5 620.5 Q180 586 158 495 L76 495 Q85 554 108 597 Q131 640 165 668.5 Q199 697 241.5 710.5 Q284 724 333 724 Q374 724 410 711.5 Q446 699 472.5 675.5 Q499 652 514.5 617.5 Q530 583 530 539 Q530 496 516 458 Q502 420 477.5 386 Q453 352 420.5 320.5 Q388 289 351 258 L130 71 L467 71 L456 0 L-33 0 L-30 20 L311 316 Z " />
<glyph glyph-name="three" unicode="3" horiz-adv-x="604" d="M271 -9 Q216 -9 171.5 6.5 Q127 22 95.5 50.5 Q64 79 47 120 Q30 161 30 211 L112 211 Q113 180 122 153 Q131 126 150.5 105.5 Q170 85 201 73 Q232 61 275 61 Q355 61 399.5 99.5 Q444 138 444 219 Q444 272 411.5 305 Q379 338 307 338 L261 338 L273 411 L335 411 Q364 411 389 418 Q414 425 433 441 Q452 457 463 481.5 Q474 506 474 541 Q474 595 442 624 Q410 653 353 653 Q288 653 244 619 Q200 585 184 518 L107 518 Q114 564 135.5 602 Q157 640 190 667 Q223 694 266 709 Q309 724 358 724 Q396 724 432 713.5 Q468 703 496.5 681 Q525 659 542.5 625 Q560 591 560 544 Q560 482 524 436 Q488 390 424 372 Q476 355 504.5 316 Q533 277 533 219 Q533 166 513.5 124 Q494 82 459.5 52.5 Q425 23 377 7 Q329 -9 271 -9 Z " />
<glyph glyph-name="four" unicode="4" horiz-adv-x="617" d="M22 150 L27 178 L437 715 L553 715 L475 221 L574 221 L562 150 L463 150 L440 0 L355 0 L378 150 L22 150 Z M456 641 L143 221 L390 221 L456 641 Z " />
<glyph glyph-name="five" unicode="5" horiz-adv-x="587" d="M258 -9 Q210 -9 170 4 Q130 17 100 42.5 Q70 68 52 105.5 Q34 143 32 193 L116 193 Q120 133 153.5 97 Q187 61 259 61 Q341 61 388.5 114.5 Q436 168 436 260 Q436 322 401.5 361.5 Q367 401 294 401 Q237 401 198 381 Q159 361 128 332 L96 332 L157 715 L559 715 L547 640 L217 640 L183 426 Q207 445 242 458 Q277 471 323 471 Q368 471 405.5 456 Q443 441 470 414 Q497 387 511.5 349 Q526 311 526 264 Q526 206 506.5 156 Q487 106 451.5 69.5 Q416 33 367 12 Q318 -9 258 -9 Z " />
<glyph glyph-name="six" unicode="6" horiz-adv-x="619" d="M299 -9 Q182 -9 121.5 54.5 Q61 118 61 238 Q61 261 63.5 285 Q66 309 70 335 L75 366 Q86 431 108 495 Q130 559 168 610 Q206 661 261.5 692.5 Q317 724 393 724 Q487 724 537.5 678 Q588 632 592 551 L510 551 Q505 597 478.5 625 Q452 653 388 653 Q337 653 299 629.5 Q261 606 234 567.5 Q207 529 190 479 Q173 429 163 376 Q196 419 242.5 441.5 Q289 464 347 464 Q392 464 431 449 Q470 434 498.5 407 Q527 380 543 341.5 Q559 303 559 256 Q559 201 540 152.5 Q521 104 487 68 Q453 32 405 11.5 Q357 -9 299 -9 Z M146 211 Q146 180 155 152.5 Q164 125 183 104 Q202 83 231 71 Q260 59 300 59 Q339 59 370 74 Q401 89 423.5 115 Q446 141 458 176 Q470 211 470 252 Q470 281 461.5 307 Q453 333 435 353 Q417 373 389 384.5 Q361 396 322 396 Q284 396 252 381.5 Q220 367 196.5 342.5 Q173 318 159.5 284 Q146 250 146 211 Z " />
<glyph glyph-name="seven" unicode="7" horiz-adv-x="525" d="M88 645 L99 715 L570 715 L568 703 L179 0 L88 0 L445 645 L88 645 Z " />
<glyph glyph-name="eight" unicode="8" horiz-adv-x="607" d="M287 -9 Q243 -9 200.5 3.5 Q158 16 124.5 40.5 Q91 65 70.5 101.5 Q50 138 50 186 Q50 265 95.5 318 Q141 371 215 393 Q173 412 150 448 Q127 484 127 527 Q127 571 145.5 607 Q164 643 195.5 669 Q227 695 269 709.5 Q311 724 359 724 Q398 724 435 712 Q472 700 501 677 Q530 654 547.5 621 Q565 588 565 546 Q565 479 528.5 441.5 Q492 404 432 384 Q484 363 514.5 319 Q545 275 545 219 Q545 164 524.5 121.5 Q504 79 468.5 50 Q433 21 386.5 6 Q340 -9 287 -9 Z M214 530 Q214 483 249.5 451 Q285 419 344 419 Q370 419 394 426 Q418 433 437 447.5 Q456 462 467 485.5 Q478 509 478 542 Q478 590 443.5 623 Q409 656 352 656 Q325 656 300 648.5 Q275 641 256 625 Q237 609 225.5 585.5 Q214 562 214 530 Z M139 197 Q139 166 150.5 141 Q162 116 182.5 98.5 Q203 81 231 71.5 Q259 62 292 62 Q365 62 410.5 102.5 Q456 143 456 218 Q456 248 445 272.5 Q434 297 414.5 314.5 Q395 332 368.5 341 Q342 350 311 350 Q274 350 242.5 340 Q211 330 188 311 Q165 292 152 263.5 Q139 235 139 197 Z " />
<glyph glyph-name="nine" unicode="9" horiz-adv-x="620" d="M260 -8 Q217 -8 178.5 2.5 Q140 13 111 35.5 Q82 58 64 93 Q46 128 42 176 L127 176 Q136 112 171 87.5 Q206 63 267 63 Q348 63 403.5 130 Q459 197 482 336 Q452 296 403.5 274 Q355 252 298 252 Q255 252 217 266 Q179 280 150 306 Q121 332 104 371 Q87 410 87 459 Q87 516 107 564.5 Q127 613 162.5 649 Q198 685 247 705 Q296 725 355 725 Q467 725 524 661 Q581 597 582 482 Q582 459 580.5 434 Q579 409 574 382 L567 338 Q538 161 460.5 76.5 Q383 -8 260 -8 Z M176 463 Q176 400 210 360 Q244 320 310 320 Q349 320 383.5 331.5 Q418 343 443.5 366 Q469 389 484 423.5 Q499 458 499 504 Q499 534 491 561.5 Q483 589 465.5 610 Q448 631 420 644 Q392 657 352 657 Q313 657 280.5 642.5 Q248 628 225 602.5 Q202 577 189 541 Q176 505 176 463 Z " />
<glyph glyph-name="colon" unicode="&#x3a;" horiz-adv-x="292" d="M160 292 Q134 292 115 310.5 Q96 329 96 356 Q96 383 114.5 401.5 Q133 420 159 420 Q185 420 204.5 401.5 Q224 383 224 356 Q224 329 205 310.5 Q186 292 160 292 Z M112 -5 Q86 -5 67 13.5 Q48 32 48 59 Q48 86 66.5 104.5 Q85 123 111 123 Q137 123 156.5 104.5 Q176 86 176 59 Q176 32 157 13.5 Q138 -5 112 -5 Z " />
<glyph glyph-name="semicolon" unicode="&#x3b;" horiz-adv-x="292" d="M168 292 Q142 292 123 310.5 Q104 329 104 356 Q104 383 122.5 401.5 Q141 420 167 420 Q193 420 212.5 401.5 Q232 383 232 356 Q232 329 213 310.5 Q194 292 168 292 Z M94 124 L169 86 L26 -123 L-24 -95 L94 124 Z " />
<glyph glyph-name="less" unicode="&#x3c;" horiz-adv-x="504" d="M63 336 L481 549 L469 467 L181 324 L422 173 L410 95 L60 316 L63 336 Z " />
<glyph glyph-name="equal" unicode="&#x3d;" horiz-adv-x="484" d="M472 448 L461 376 L57 376 L68 448 L472 448 Z M444 268 L433 196 L29 196 L40 268 L444 268 Z " />
<glyph glyph-name="greater" unicode="&#x3e;" horiz-adv-x="504" d="M458 308 L40 95 L52 179 L340 322 L99 473 L111 549 L461 328 L458 308 Z " />
<glyph glyph-name="question" unicode="&#x3f;" horiz-adv-x="489" d="M176 253 Q182 289 196 316 Q210 343 229.5 364 Q249 385 271.5 402 Q294 419 315 435 Q352 463 375.5 491 Q399 519 399 565 Q399 607 372 631 Q345 655 294 655 Q241 655 203 622 Q165 589 154 525 L75 525 Q81 573 101.5 610 Q122 647 152 672.5 Q182 698 221 711 Q260 724 303 724 Q350 724 384.5 711 Q419 698 441 676 Q463 654 473.5 625.5 Q484 597 484 566 Q484 530 473.5 503 Q463 476 445 455 Q427 434 404 416.5 Q381 399 356 381 Q319 354 288 323.5 Q257 293 249 246 L242 202 L168 202 L176 253 Z M188 -5 Q162 -5 143 13.5 Q124 32 124 59 Q124 86 142.5 104.5 Q161 123 187 123 Q213 123 232.5 104.5 Q252 86 252 59 Q252 32 233 13.5 Q214 -5 188 -5 Z " />
<glyph glyph-name="at" unicode="&#x40;" horiz-adv-x="915" d="M635 206 Q625 127 683 127 Q704 127 725.5 138 Q747 149 764.5 172.5 Q782 196 792.5 232.5 Q803 269 803 320 Q803 387 781 442.5 Q759 498 717 538 Q675 578 614.5 600 Q554 622 477 622 Q401 622 337 595.5 Q273 569 226.5 521.5 Q180 474 153.5 408 Q127 342 127 262 Q127 194 148.5 132 Q170 70 212 22.5 Q254 -25 317 -53 Q380 -81 464 -81 Q546 -81 600 -60.5 Q654 -40 700 0 L777 0 Q758 -33 727 -60 Q696 -87 655.5 -106.5 Q615 -126 566.5 -136.5 Q518 -147 464 -147 Q364 -147 286.5 -113.5 Q209 -80 156.5 -23.5 Q104 33 77 106.5 Q50 180 50 260 Q50 352 84 430.5 Q118 509 176.5 566 Q235 623 312.5 655.5 Q390 688 477 688 Q567 688 640 660 Q713 632 765.5 582.5 Q818 533 846.5 466 Q875 399 875 322 Q875 252 856 203 Q837 154 808.5 124 Q780 94 746 80.5 Q712 67 682 67 Q623 67 597 91.5 Q571 116 565 153 Q544 113 508 86.5 Q472 60 418 60 Q346 60 302 105 Q258 150 258 231 Q258 282 273.5 325 Q289 368 316.5 399.5 Q344 431 381.5 448.5 Q419 466 462 466 Q516 466 544 445 Q572 424 581 398 L591 458 L674 458 L635 206 Z M434 124 Q459 124 482.5 136 Q506 148 524.5 170 Q543 192 554.5 224 Q566 256 566 295 Q566 348 539.5 374 Q513 400 470 400 Q416 400 379.5 355 Q343 310 343 229 Q343 177 369 150.5 Q395 124 434 124 Z " />
<glyph glyph-name="A" unicode="A" horiz-adv-x="650" d="M168 206 L66 0 L-18 0 L341 715 L455 715 L584 0 L500 0 L463 206 L168 206 Z M450 275 L384 643 L202 275 L450 275 Z " />
<glyph glyph-name="B" unicode="B" horiz-adv-x="622" d="M365 715 Q465 715 520 675.5 Q575 636 574 548 Q574 481 541.5 437.5 Q509 394 439 372 Q560 342 561 216 Q561 166 543 126 Q525 86 492 58 Q459 30 412.5 15 Q366 0 309 0 L48 0 L161 715 L365 715 Z M328 403 Q489 403 489 544 Q489 597 459.5 622 Q430 647 362 647 L235 647 L196 403 L328 403 Z M309 68 Q394 68 435 110 Q476 152 476 218 Q476 275 441 305 Q406 335 323 335 L186 335 L143 68 L309 68 Z " />
<glyph glyph-name="C" unicode="C" horiz-adv-x="728" d="M386 -9 Q312 -9 253 13 Q194 35 153 76 Q112 117 90 175 Q68 233 68 304 Q68 392 96 469 Q124 546 174 603 Q224 660 294 693 Q364 726 448 726 Q502 726 549 711 Q596 696 631.5 666.5 Q667 637 688.5 593.5 Q710 550 714 492 L632 492 Q619 573 574.5 615 Q530 657 444 657 Q377 657 323.5 629.5 Q270 602 233.5 554.5 Q197 507 177.5 442.5 Q158 378 158 304 Q158 188 215 124.5 Q272 61 387 61 Q474 61 530 109.5 Q586 158 611 237 L694 237 Q680 180 651 134.5 Q622 89 582 57 Q542 25 492.5 8 Q443 -9 386 -9 Z " />
<glyph glyph-name="D" unicode="D" horiz-adv-x="698" d="M335 715 Q424 715 487 692 Q550 669 590.5 628 Q631 587 650 531.5 Q669 476 669 410 Q669 325 642.5 250 Q616 175 563.5 119.5 Q511 64 434.5 32 Q358 0 257 0 L48 0 L161 715 L335 715 Z M254 71 Q331 71 391.5 94 Q452 117 494 160.5 Q536 204 558 267 Q580 330 580 409 Q580 460 566.5 503.5 Q553 547 523 578.5 Q493 610 446 627.5 Q399 645 331 645 L237 645 L146 71 L254 71 Z " />
<glyph glyph-name="E" unicode="E" horiz-adv-x="572" d="M574 715 L562 644 L236 644 L198 401 L464 401 L453 330 L187 330 L146 71 L494 71 L483 0 L48 0 L161 715 L574 715 Z " />
<glyph glyph-name="F" unicode="F" horiz-adv-x="556" d="M579 715 L567 644 L236 644 L196 391 L454 391 L443 320 L185 320 L135 0 L48 0 L161 715 L579 715 Z " />
<glyph glyph-name="G" unicode="G" horiz-adv-x="770" d="M394 -9 Q316 -9 255.5 15.5 Q195 40 153.5 83.5 Q112 127 90.5 186 Q69 245 69 314 Q69 398 97 472.5 Q125 547 175 603 Q225 659 293.5 691.5 Q362 724 443 724 Q497 724 546 710.5 Q595 697 633 669 Q671 641 694.5 598.5 Q718 556 722 499 L636 499 Q629 579 575 617 Q521 655 441 655 Q375 655 323 628 Q271 601 234.5 555 Q198 509 178.5 447 Q159 385 159 314 Q159 257 174 210 Q189 163 218.5 130 Q248 97 292.5 79 Q337 61 396 61 Q450 61 491 78 Q532 95 561.5 125.5 Q591 156 609 198 Q627 240 635 289 L423 289 L435 361 L730 361 Q714 168 626.5 79.5 Q539 -9 394 -9 Z " />
<glyph glyph-name="H" unicode="H" horiz-adv-x="730" d="M248 715 L196 391 L572 391 L624 715 L711 715 L598 0 L511 0 L561 318 L185 318 L135 0 L48 0 L161 715 L248 715 Z " />
<glyph glyph-name="I" unicode="I" horiz-adv-x="279" d="M253 715 L140 0 L53 0 L166 715 L253 715 Z " />
<glyph glyph-name="J" unicode="J" horiz-adv-x="420" d="M113 -9 Q62 -9 37 0 Q12 9 -2 17 L9 87 Q28 78 51.5 70 Q75 62 110 62 Q164 62 195 92 Q226 122 237 188 L320 715 L407 715 L322 180 Q306 80 249 35.5 Q192 -9 113 -9 Z " />
<glyph glyph-name="K" unicode="K" horiz-adv-x="616" d="M248 715 L194 375 L557 715 L658 715 L285 370 L557 0 L460 0 L192 359 L135 0 L48 0 L161 715 L248 715 Z " />
<glyph glyph-name="L" unicode="L" horiz-adv-x="535" d="M248 715 L146 71 L473 71 L462 0 L48 0 L161 715 L248 715 Z " />
<glyph glyph-name="M" unicode="M" horiz-adv-x="856" d="M279 715 L412 158 L714 715 L837 715 L724 0 L637 0 L732 602 L400 0 L373 0 L223 602 L128 0 L48 0 L161 715 L279 715 Z " />
<glyph glyph-name="N" unicode="N" horiz-adv-x="724" d="M272 715 L528 124 L622 715 L705 715 L592 0 L494 0 L228 613 L131 0 L48 0 L161 715 L272 715 Z " />
<glyph glyph-name="O" unicode="O" horiz-adv-x="811" d="M773 402 Q773 313 743.5 237.5 Q714 162 663 107.5 Q612 53 543 22 Q474 -9 395 -9 Q321 -9 260.5 15.5 Q200 40 157.5 82.5 Q115 125 91.5 184 Q68 243 68 312 Q68 398 97.5 473 Q127 548 178.5 603.5 Q230 659 300.5 691.5 Q371 724 452 724 Q529 724 589 698.5 Q649 673 690 629 Q731 585 752 526.5 Q773 468 773 402 Z M683 402 Q683 454 668 500 Q653 546 623.5 580 Q594 614 550.5 634 Q507 654 451 654 Q384 654 329.5 626.5 Q275 599 237 552.5 Q199 506 178.5 443.5 Q158 381 158 312 Q158 254 175.5 207.5 Q193 161 224.5 128.5 Q256 96 300 79 Q344 62 396 62 Q460 62 512.5 87.5 Q565 113 603 158.5 Q641 204 662 266.5 Q683 329 683 402 Z " />
<glyph glyph-name="P" unicode="P" horiz-adv-x="581" d="M360 715 Q409 715 449.5 703.5 Q490 692 519 669 Q548 646 564 611 Q580 576 580 529 Q580 463 557 418 Q534 373 496 344.5 Q458 316 409 303.5 Q360 291 307 291 L181 291 L135 0 L48 0 L161 715 L360 715 Z M312 360 Q403 360 448.5 403.5 Q494 447 494 528 Q494 589 458.5 617 Q423 645 351 645 L237 645 L192 360 L312 360 Z " />
<glyph glyph-name="Q" unicode="Q" horiz-adv-x="811" d="M773 402 Q773 290 727.5 201 Q682 112 607 58 L687 -40 L627 -89 L538 20 Q471 -9 395 -9 Q321 -9 260.5 15.5 Q200 40 157.5 82.5 Q115 125 91.5 184 Q68 243 68 312 Q68 398 97.5 473 Q127 548 178.5 603.5 Q230 659 300.5 691.5 Q371 724 452 724 Q529 724 589 698.5 Q649 673 690 629 Q731 585 752 526.5 Q773 468 773 402 Z M683 402 Q683 454 668 500 Q653 546 623.5 580 Q594 614 550.5 634 Q507 654 451 654 Q384 654 329.5 626.5 Q275 599 237 552.5 Q199 506 178.5 443.5 Q158 381 158 312 Q158 254 175.5 207.5 Q193 161 224.5 128.5 Q256 96 300 79 Q344 62 396 62 Q449 62 491 78 L416 171 L476 220 L560 116 Q618 161 650.5 235 Q683 309 683 402 Z " />
<glyph glyph-name="R" unicode="R" horiz-adv-x="628" d="M372 715 Q419 715 459 703.5 Q499 692 528.5 669.5 Q558 647 574.5 612.5 Q591 578 590 533 Q590 484 574 446.5 Q558 409 530.5 382.5 Q503 356 465.5 340 Q428 324 386 318 L561 0 L467 0 L297 311 L184 311 L135 0 L48 0 L161 715 L372 715 Z M329 380 Q504 380 504 533 Q505 593 469 619 Q433 645 367 645 L237 645 L195 380 L329 380 Z " />
<glyph glyph-name="S" unicode="S" horiz-adv-x="627" d="M300 -9 Q233 -9 183 10 Q133 29 100 60.5 Q67 92 50.5 133 Q34 174 34 218 L120 218 Q122 188 132.5 159.5 Q143 131 165 109.5 Q187 88 221.5 74.5 Q256 61 305 61 Q386 60 429.5 98.5 Q473 137 473 202 Q473 226 466 245 Q459 264 441 279 Q423 294 393.5 307 Q364 320 319 333 Q268 348 229.5 364.5 Q191 381 164.5 403 Q138 425 124.5 455 Q111 485 111 526 Q111 567 128 603 Q145 639 176 666 Q207 693 251.5 708.5 Q296 724 351 724 Q455 724 517.5 673.5 Q580 623 582 527 L502 527 Q495 598 452.5 626 Q410 654 343 654 Q266 654 230 618 Q194 582 194 529 Q194 508 201 491.5 Q208 475 225 461 Q242 447 272.5 434 Q303 421 349 407 Q402 391 441.5 373.5 Q481 356 507 333 Q533 310 545.5 280.5 Q558 251 558 211 Q558 164 540 123.5 Q522 83 488.5 53.5 Q455 24 407.5 7.5 Q360 -9 300 -9 Z " />
<glyph glyph-name="T" unicode="T" horiz-adv-x="561" d="M87 644 L99 715 L602 715 L590 644 L382 644 L281 0 L194 0 L295 644 L87 644 Z " />
<glyph glyph-name="U" unicode="U" horiz-adv-x="696" d="M325 -9 Q189 -9 126 64 Q63 137 86 283 L155 715 L242 715 L173 282 Q154 163 194.5 113 Q235 63 329 63 Q409 63 458 108 Q507 153 524 261 L596 715 L683 715 L609 249 Q600 191 578.5 143 Q557 95 522 61.5 Q487 28 438.5 9.5 Q390 -9 325 -9 Z " />
<glyph glyph-name="V" unicode="V" horiz-adv-x="636" d="M177 715 L290 84 L603 715 L686 715 L326 0 L222 0 L92 715 L177 715 Z " />
<glyph glyph-name="W" unicode="W" horiz-adv-x="890" d="M180 715 L234 132 L487 715 L543 715 L621 130 L856 715 L939 715 L644 0 L563 0 L491 561 L244 0 L166 0 L93 715 L180 715 Z " />
<glyph glyph-name="X" unicode="X" horiz-adv-x="607" d="M110 715 L200 715 L337 430 L554 715 L644 715 L370 360 L542 0 L448 0 L304 303 L71 0 L-19 0 L273 373 L110 715 Z " />
<glyph glyph-name="Y" unicode="Y" horiz-adv-x="592" d="M91 715 L184 715 L322 383 L554 715 L643 715 L352 305 L304 0 L217 0 L266 312 L91 715 Z " />
<glyph glyph-name="Z" unicode="Z" horiz-adv-x="595" d="M489 647 L124 647 L135 715 L624 715 L622 702 L130 71 L516 71 L505 0 L-14 0 L-12 14 L489 647 Z " />
<glyph glyph-name="bracketleft" unicode="&#x5b;" horiz-adv-x="356" d="M392 776 L382 710 L241 710 L116 -82 L257 -82 L246 -148 L22 -148 L168 776 L392 776 Z " />
<glyph glyph-name="backslash" unicode="&#x5c;" horiz-adv-x="403" d="M184 776 L331 -148 L257 -148 L110 776 L184 776 Z " />
<glyph glyph-name="bracketright" unicode="&#x5d;" horiz-adv-x="356" d="M130 -82 L255 710 L114 710 L124 776 L348 776 L202 -148 L-22 -148 L-11 -82 L130 -82 Z " />
<glyph glyph-name="asciicircum" unicode="&#x5e;" horiz-adv-x="507" d="M364 715 L485 408 L404 408 L311 644 L151 408 L66 408 L279 715 L364 715 Z " />
<glyph glyph-name="underscore" unicode="&#x5f;" horiz-adv-x="394" d="M338 -92 L327 -158 L-68 -158 L-57 -92 L338 -92 Z " />
<glyph glyph-name="grave" unicode="&#x60;" horiz-adv-x="600" d="M247 760 L294 613 L233 613 L145 760 L247 760 Z " />
<glyph glyph-name="a" unicode="a" horiz-adv-x="538" d="M197 -8 Q116 -8 72 32.5 Q28 73 28 140 Q28 188 48.5 220.5 Q69 253 103.5 272 Q138 291 184.5 299 Q231 307 282 307 L383 307 L389 345 Q399 405 376.5 434 Q354 463 291 463 Q240 463 208.5 440.5 Q177 418 166 369 L83 369 Q92 416 114.5 447.5 Q137 479 166 497.5 Q195 516 229 524 Q263 532 294 532 Q338 532 374 521.5 Q410 511 434.5 488 Q459 465 469 428 Q479 391 471 338 L442 156 Q434 105 431.5 69 Q429 33 433 0 L355 0 Q353 21 352.5 43.5 Q352 66 354 83 Q326 38 285.5 15 Q245 -8 197 -8 Z M208 57 Q267 57 310 89.5 Q353 122 364 191 L373 248 L284 248 Q196 248 153 224 Q110 200 110 140 Q110 105 133.5 81 Q157 57 208 57 Z " />
<glyph glyph-name="b" unicode="b" horiz-adv-x="627" d="M325 -9 Q285 -9 254.5 0.5 Q224 10 201.5 25.5 Q179 41 164.5 60 Q150 79 141 98 L125 0 L42 0 L164 773 L247 773 L193 431 Q219 475 268.5 503.5 Q318 532 376 532 Q422 532 460.5 516 Q499 500 527 470 Q555 440 570.5 397.5 Q586 355 586 302 Q586 239 568.5 182.5 Q551 126 517 83.5 Q483 41 435 16 Q387 -9 325 -9 Z M320 59 Q363 59 396 77 Q429 95 451.5 127 Q474 159 486 202.5 Q498 246 498 297 Q498 378 461 421 Q424 464 360 464 Q318 464 281 447.5 Q244 431 217 399.5 Q190 368 174.5 323 Q159 278 159 222 Q159 146 202 102.5 Q245 59 320 59 Z " />
<glyph glyph-name="c" unicode="c" horiz-adv-x="554" d="M283 -8 Q224 -8 178.5 9.5 Q133 27 102 58.5 Q71 90 55 134 Q39 178 39 230 Q39 302 61.5 358.5 Q84 415 121.5 453 Q159 491 208 511 Q257 531 310 531 Q353 531 390.5 520 Q428 509 456.5 486.5 Q485 464 502 429.5 Q519 395 522 347 L443 347 Q439 381 427.5 403 Q416 425 398 438 Q380 451 356.5 456.5 Q333 462 306 462 Q267 462 233.5 447 Q200 432 176 402.5 Q152 373 138 330 Q124 287 124 230 Q124 147 164 103.5 Q204 60 285 60 Q340 60 382.5 92.5 Q425 125 436 186 L514 186 Q506 140 485 103.5 Q464 67 433.5 42.5 Q403 18 365 5 Q327 -8 283 -8 Z " />
<glyph glyph-name="d" unicode="d" horiz-adv-x="622" d="M261 -9 Q212 -9 171.5 7.5 Q131 24 102 54 Q73 84 56.5 126.5 Q40 169 40 222 Q40 285 58.5 341 Q77 397 112.5 439.5 Q148 482 198 507 Q248 532 311 532 Q349 532 377.5 523 Q406 514 427 499 Q448 484 462.5 465.5 Q477 447 486 428 L540 773 L623 773 L526 156 Q518 102 515.5 67 Q513 32 515 0 L436 0 Q434 23 435.5 47.5 Q437 72 440 95 Q412 48 365.5 19.5 Q319 -9 261 -9 Z M271 60 Q313 60 348.5 75 Q384 90 410.5 120.5 Q437 151 452 196.5 Q467 242 467 303 Q467 378 424 420.5 Q381 463 314 463 Q270 463 235.5 445 Q201 427 177 395.5 Q153 364 140.5 320.5 Q128 277 128 226 Q128 148 165.5 104 Q203 60 271 60 Z " />
<glyph glyph-name="e" unicode="e" horiz-adv-x="553" d="M123 211 Q123 139 157.5 99.5 Q192 60 267 60 Q322 60 359 83 Q396 106 411 151 L494 151 Q482 111 459.5 80.5 Q437 50 407 30.5 Q377 11 340.5 1 Q304 -9 264 -9 Q211 -9 169 7.5 Q127 24 98 54 Q69 84 53.5 125 Q38 166 38 215 Q38 284 59 342 Q80 400 117 442 Q154 484 203.5 507.5 Q253 531 311 531 Q364 531 406.5 514.5 Q449 498 476.5 464.5 Q504 431 514.5 381 Q525 331 514 264 L511 245 L124 245 Q123 237 123 228.5 Q123 220 123 211 Z M306 463 Q278 463 251.5 454.5 Q225 446 202 427.5 Q179 409 161.5 380.5 Q144 352 134 312 L437 312 Q443 391 410.5 427 Q378 463 306 463 Z " />
<glyph glyph-name="f" unicode="f" horiz-adv-x="336" d="M137 523 L153 625 Q165 700 211 738 Q257 776 323 776 Q349 776 364.5 772.5 Q380 769 392 763 L382 697 Q371 702 357.5 704.5 Q344 707 327 707 Q286 707 264.5 685 Q243 663 236 623 L220 523 L348 523 L337 453 L209 453 L137 0 L54 0 L126 453 L51 453 L62 523 L137 523 Z " />
<glyph glyph-name="g" unicode="g" horiz-adv-x="623" d="M506 26 Q489 -83 422 -136.5 Q355 -190 246 -190 Q183 -190 140 -175.5 Q97 -161 70 -138 Q43 -115 30 -86.5 Q17 -58 13 -30 L97 -30 Q105 -70 139.5 -95 Q174 -120 244 -120 Q329 -120 369.5 -81 Q410 -42 423 34 L435 107 Q406 65 363.5 42 Q321 19 263 19 Q215 19 175 35.5 Q135 52 106 81 Q77 110 61 151.5 Q45 193 45 242 Q45 301 64.5 353.5 Q84 406 119.5 446 Q155 486 203.5 509 Q252 532 309 532 Q347 532 375.5 523 Q404 514 426 499 Q448 484 462.5 465.5 Q477 447 486 428 L501 523 L584 523 L506 26 Z M272 86 Q311 86 346.5 101.5 Q382 117 408.5 146 Q435 175 451 216.5 Q467 258 467 311 Q467 347 455.5 375.5 Q444 404 423 423.5 Q402 443 373.5 453 Q345 463 312 463 Q270 463 236.5 445.5 Q203 428 180 398 Q157 368 144.5 329 Q132 290 132 246 Q132 175 167.5 130.5 Q203 86 272 86 Z " />
<glyph glyph-name="h" unicode="h" horiz-adv-x="592" d="M247 773 L193 430 Q205 449 222 467.5 Q239 486 261 500 Q283 514 310 523 Q337 532 369 532 Q410 532 442.5 520 Q475 508 495.5 482 Q516 456 523 414 Q530 372 521 313 L471 0 L388 0 L441 332 Q462 461 351 461 Q318 461 288.5 450.5 Q259 440 235.5 419.5 Q212 399 195.5 370 Q179 341 173 304 L125 0 L42 0 L164 773 L247 773 Z " />
<glyph glyph-name="i" unicode="i" horiz-adv-x="255" d="M192 632 Q169 632 153 647.5 Q137 663 137 686 Q137 709 153.5 725.5 Q170 742 193 742 Q216 742 231.5 726.5 Q247 711 247 688 Q247 665 231 648.5 Q215 632 192 632 Z M210 523 L127 0 L44 0 L127 523 L210 523 Z " />
<glyph glyph-name="j" unicode="j" horiz-adv-x="255" d="M192 632 Q169 632 153 647.5 Q137 663 137 686 Q137 709 153.5 725.5 Q170 742 193 742 Q216 742 231.5 726.5 Q247 711 247 688 Q247 665 231 648.5 Q215 632 192 632 Z M-52 -121 Q-7 -119 12.5 -98.5 Q32 -78 38 -41 L127 523 L210 523 L120 -46 Q109 -115 67 -152.5 Q25 -190 -63 -190 L-52 -121 Z " />
<glyph glyph-name="k" unicode="k" horiz-adv-x="511" d="M247 773 L171 292 L420 523 L523 523 L259 283 L454 0 L359 0 L169 279 L125 0 L42 0 L164 773 L247 773 Z " />
<glyph glyph-name="l" unicode="l" horiz-adv-x="256" d="M250 773 L128 0 L44 0 L166 773 L250 773 Z " />
<glyph glyph-name="m" unicode="m" horiz-adv-x="897" d="M100 367 Q108 421 110.5 455.5 Q113 490 114 523 L192 523 Q192 501 191 475.5 Q190 450 187 424 Q215 474 258 503 Q301 532 353 532 Q408 532 446.5 505.5 Q485 479 496 418 Q513 450 535.5 471.5 Q558 493 582 506.5 Q606 520 630.5 526 Q655 532 677 532 Q715 532 746.5 520.5 Q778 509 799 482.5 Q820 456 828 414 Q836 372 826 311 L777 0 L694 0 L745 324 Q756 396 735 428.5 Q714 461 659 461 Q634 461 608 452 Q582 443 560.5 424.5 Q539 406 522.5 377.5 Q506 349 500 310 L451 0 L368 0 L420 330 Q431 396 408.5 428.5 Q386 461 333 461 Q306 461 280.5 451.5 Q255 442 233 423 Q211 404 195.5 375.5 Q180 347 174 310 L125 0 L42 0 L100 367 Z " />
<glyph glyph-name="n" unicode="n" horiz-adv-x="592" d="M100 367 Q108 421 110.5 455.5 Q113 490 114 523 L192 523 Q192 501 190.5 473 Q189 445 186 419 Q213 467 259 499.5 Q305 532 369 532 Q410 532 442.5 520 Q475 508 495.5 482 Q516 456 523 414 Q530 372 521 313 L471 0 L388 0 L441 332 Q462 461 351 461 Q318 461 288.5 450.5 Q259 440 235.5 419.5 Q212 399 195.5 370 Q179 341 173 304 L125 0 L42 0 L100 367 Z " />
<glyph glyph-name="o" unicode="o" horiz-adv-x="589" d="M271 -8 Q217 -8 173.5 9.5 Q130 27 100 58 Q70 89 54 131.5 Q38 174 38 224 Q38 290 59.5 346 Q81 402 118.5 443 Q156 484 206.5 507.5 Q257 531 316 531 Q370 531 413.5 514 Q457 497 487.5 466.5 Q518 436 534 394 Q550 352 550 301 Q550 234 529.5 177.5 Q509 121 472 80 Q435 39 384 15.5 Q333 -8 271 -8 Z M275 60 Q319 60 354 78 Q389 96 413 128.5 Q437 161 450 204.5 Q463 248 463 299 Q463 374 424.5 418.5 Q386 463 311 463 Q269 463 234.5 445 Q200 427 175.5 394.5 Q151 362 137.5 318.5 Q124 275 124 224 Q124 149 161 104.5 Q198 60 275 60 Z " />
<glyph glyph-name="p" unicode="p" horiz-adv-x="627" d="M376 532 Q422 532 460.5 516 Q499 500 527 470 Q555 440 570.5 397.5 Q586 355 586 302 Q586 239 568.5 182.5 Q551 126 517 83.5 Q483 41 435 16 Q387 -9 325 -9 Q285 -9 254.5 0.5 Q224 10 201.5 25.5 Q179 41 164.5 60 Q150 79 141 98 L96 -182 L13 -182 L100 367 Q108 421 110.5 455.5 Q113 490 114 523 L192 523 Q192 501 190.5 473.5 Q189 446 186 421 Q214 472 266 502 Q318 532 376 532 Z M320 59 Q363 59 396 77 Q429 95 451.5 127 Q474 159 486 202.5 Q498 246 498 297 Q498 378 461 421 Q424 464 360 464 Q318 464 281 447.5 Q244 431 217 399.5 Q190 368 174.5 323 Q159 278 159 222 Q159 146 202 102.5 Q245 59 320 59 Z " />
<glyph glyph-name="q" unicode="q" horiz-adv-x="627" d="M431 81 Q402 39 360.5 15 Q319 -9 261 -9 Q212 -9 171.5 7.5 Q131 24 102 54 Q73 84 56.5 126.5 Q40 169 40 222 Q40 285 58.5 341 Q77 397 112.5 439.5 Q148 482 198 507 Q248 532 311 532 Q349 532 377.5 523 Q406 514 427 499 Q448 484 462.5 465.5 Q477 447 486 428 L501 523 L584 523 L472 -182 L389 -182 L431 81 Z M271 60 Q313 60 348.5 75 Q384 90 410.5 120.5 Q437 151 452 196.5 Q467 242 467 303 Q467 378 424 420.5 Q381 463 314 463 Q270 463 235.5 445 Q201 427 177 395.5 Q153 364 140.5 320.5 Q128 277 128 226 Q128 148 165.5 104 Q203 60 271 60 Z " />
<glyph glyph-name="r" unicode="r" horiz-adv-x="374" d="M100 367 Q108 421 110.5 455.5 Q113 490 114 523 L192 523 Q192 501 190.5 473.5 Q189 446 186 416 Q203 442 220.5 463 Q238 484 260.5 499 Q283 514 311.5 522.5 Q340 531 379 532 L367 454 Q328 452 295 442 Q262 432 236.5 411 Q211 390 193.5 356 Q176 322 168 272 L125 0 L42 0 L100 367 Z " />
<glyph glyph-name="s" unicode="s" horiz-adv-x="480" d="M229 -9 Q177 -9 139 5 Q101 19 76 42.5 Q51 66 38.5 96.5 Q26 127 25 161 L106 161 Q108 140 114.5 121.5 Q121 103 135.5 89.5 Q150 76 173.5 68 Q197 60 232 60 Q287 60 313 82.5 Q339 105 339 146 Q339 180 316 198 Q293 216 233 231 Q145 253 109.5 287 Q74 321 74 380 Q74 418 89 446 Q104 474 129.5 493.5 Q155 513 188 522.5 Q221 532 256 532 Q294 532 327 523.5 Q360 515 384.5 496.5 Q409 478 424 449.5 Q439 421 441 381 L363 381 Q361 419 332 441 Q303 463 254 463 Q205 463 178.5 442.5 Q152 422 152 385 Q152 355 174.5 337.5 Q197 320 258 305 Q297 295 327 283 Q357 271 378 253.5 Q399 236 409.5 211 Q420 186 420 150 Q420 78 368.5 34.5 Q317 -9 229 -9 Z " />
<glyph glyph-name="t" unicode="t" horiz-adv-x="343" d="M204 -7 Q165 -7 138.5 4.5 Q112 16 97 36 Q82 56 77 83.5 Q72 111 77 143 L126 453 L51 453 L62 523 L137 523 L156 642 L239 642 L220 523 L339 523 L328 453 L209 453 L159 140 Q152 97 167 80 Q182 63 217 63 Q249 63 279 74 L268 5 Q241 -7 204 -7 Z " />
<glyph glyph-name="u" unicode="u" horiz-adv-x="588" d="M487 156 Q479 102 476.5 67 Q474 32 476 0 L397 0 Q395 23 396.5 50.5 Q398 78 402 104 Q374 56 329 23.5 Q284 -9 220 -9 Q179 -9 147 4 Q115 17 95 43.5 Q75 70 68 111.5 Q61 153 70 210 L120 523 L203 523 L150 191 Q140 129 162 95.5 Q184 62 238 62 Q304 62 353 103 Q402 144 414 219 L462 523 L545 523 L487 156 Z " />
<glyph glyph-name="v" unicode="v" horiz-adv-x="514" d="M148 523 L229 80 L448 523 L536 523 L269 0 L163 0 L60 523 L148 523 Z " />
<glyph glyph-name="w" unicode="w" horiz-adv-x="767" d="M152 523 L200 97 L392 523 L464 523 L514 97 L698 523 L785 523 L545 0 L453 0 L408 397 L226 0 L135 0 L64 523 L152 523 Z " />
<glyph glyph-name="x" unicode="x" horiz-adv-x="492" d="M65 523 L158 523 L256 336 L409 523 L502 523 L293 267 L437 0 L343 0 L236 209 L64 0 L-29 0 L198 276 L65 523 Z " />
<glyph glyph-name="y" unicode="y" horiz-adv-x="505" d="M60 523 L145 523 L239 148 L438 523 L527 523 L132 -182 L44 -182 L184 59 L60 523 Z " />
<glyph glyph-name="z" unicode="z" horiz-adv-x="475" d="M347 453 L78 453 L89 523 L488 523 L485 508 L128 73 L416 73 L404 0 L-21 0 L-19 12 L347 453 Z " />
<glyph glyph-name="braceleft" unicode="&#x7b;" horiz-adv-x="381" d="M271 -147 Q159 -141 116.5 -85 Q74 -29 111 76 L144 167 Q153 192 153 214 Q153 236 142 252 Q131 268 107 278 Q83 288 45 289 L53 350 Q130 348 160.5 377.5 Q191 407 189 467 L186 573 Q183 689 241.5 735 Q300 781 418 779 L408 717 Q367 717 339 709.5 Q311 702 294 685 Q277 668 270 639.5 Q263 611 264 568 L266 467 Q267 397 234 362.5 Q201 328 148 315 Q201 301 220 260 Q239 219 216 153 L187 72 Q159 -11 182 -45.5 Q205 -80 281 -84 L271 -147 Z " />
<glyph glyph-name="bar" unicode="&#x7c;" horiz-adv-x="253" d="M175 776 L175 -148 L108 -148 L108 776 L175 776 Z " />
<glyph glyph-name="braceright" unicode="&#x7d;" horiz-adv-x="381" d="M125 779 Q237 773 279.5 717 Q322 661 285 556 L252 463 Q243 439 243 417 Q243 395 254.5 378 Q266 361 289.5 349.5 Q313 338 351 335 L343 274 Q266 280 235.5 253 Q205 226 207 165 L210 59 Q213 -57 154.5 -103 Q96 -149 -22 -147 L-12 -85 Q29 -85 57 -77.5 Q85 -70 102 -53 Q119 -36 126 -7.5 Q133 21 132 64 L130 171 Q130 207 138.5 232 Q147 257 163 273.5 Q179 290 200.5 299.5 Q222 309 248 313 Q195 330 175.5 372 Q156 414 177 472 L209 560 Q238 643 215 677.5 Q192 712 115 716 L125 779 Z " />
<glyph glyph-name="asciitilde" unicode="&#x7e;" horiz-adv-x="445" d="M40 223 Q52 289 83.5 320 Q115 351 153 351 Q178 351 198 343 Q218 335 235 325.5 Q252 316 266 308 Q280 300 292 300 Q308 300 323.5 313 Q339 326 344 353 L410 353 Q399 286 366 255.5 Q333 225 298 225 Q272 225 251.5 233 Q231 241 214 250.5 Q197 260 183 268 Q169 276 157 276 Q140 276 126 262.5 Q112 249 106 223 L40 223 Z " />
<glyph glyph-name="uni00A0" unicode="&#xa0;" horiz-adv-x="280" d="" />
<glyph glyph-name="exclamdown" unicode="&#xa1;" horiz-adv-x="288" d="M185 603 Q211 603 230 584.5 Q249 566 249 539 Q249 512 230.5 493.5 Q212 475 186 475 Q160 475 140.5 493.5 Q121 512 121 539 Q121 566 140 584.5 Q159 603 185 603 Z M37 -117 L133 396 L197 396 L129 -117 L37 -117 Z " />
<glyph glyph-name="cent" unicode="&#xa2;" horiz-adv-x="562" d="M260 -135 L201 -135 L222 -2 Q134 15 86.5 76 Q39 137 39 228 Q39 299 61 354.5 Q83 410 120 448.5 Q157 487 205.5 508 Q254 529 306 531 L322 629 L381 629 L365 527 Q433 516 479 472 Q525 428 530 347 L451 347 Q446 399 419.5 424.5 Q393 450 354 458 L291 60 Q316 60 340 66.5 Q364 73 384.5 88 Q405 103 420.5 127 Q436 151 443 186 L521 186 Q512 135 490 98.5 Q468 62 436.5 38.5 Q405 15 366.5 3.5 Q328 -8 287 -8 L280 -8 L260 -135 Z M124 228 Q124 92 233 66 L295 461 Q259 458 228 441.5 Q197 425 173.5 395.5 Q150 366 137 324 Q124 282 124 228 Z " />
<glyph glyph-name="sterling" unicode="&#xa3;" horiz-adv-x="596" d="M137 377 Q135 400 134 423.5 Q133 447 133 471 Q133 523 147.5 569 Q162 615 192 649.5 Q222 684 267.5 704 Q313 724 374 724 Q465 724 520 677 Q575 630 576 535 L491 535 Q488 587 462 620 Q436 653 370 653 Q327 653 298 638 Q269 623 251.5 598 Q234 573 226.5 540 Q219 507 219 470 Q219 444 219.5 422 Q220 400 221 377 L432 377 L422 315 L225 315 Q226 299 226 282 Q226 265 226 246 Q226 208 219.5 176 Q213 144 196 115 Q220 109 243.5 100.5 Q267 92 289.5 83.5 Q312 75 332 69.5 Q352 64 368 64 Q404 64 429 82.5 Q454 101 462 150 L536 150 Q525 78 484 34.5 Q443 -9 365 -9 Q334 -9 303 1 Q272 11 243 22.5 Q214 34 188 44 Q162 54 141 54 Q111 54 95.5 37 Q80 20 75 0 L3 0 Q6 18 15 38 Q24 58 38.5 75.5 Q53 93 73 105.5 Q93 118 118 122 Q146 169 146 238 Q146 255 145 274.5 Q144 294 142 315 L57 315 L67 377 L137 377 Z " />
<glyph glyph-name="yen" unicode="&#xa5;" horiz-adv-x="576" d="M250 339 L99 715 L190 715 L313 391 L532 715 L619 715 L359 339 L515 339 L506 281 L338 281 L326 203 L493 203 L484 145 L317 145 L294 0 L209 0 L232 145 L63 145 L72 203 L241 203 L253 281 L85 281 L94 339 L250 339 Z " />
<glyph glyph-name="brokenbar" unicode="&#xa6;" horiz-adv-x="253" d="M175 776 L175 367 L108 367 L108 776 L175 776 Z M175 297 L175 -148 L108 -148 L108 297 L175 297 Z " />
<glyph glyph-name="section" unicode="&#xa7;" horiz-adv-x="539" d="M217 -137 Q181 -137 147 -127.5 Q113 -118 87.5 -97.5 Q62 -77 47.5 -46.5 Q33 -16 35 26 L119 26 Q120 -19 144.5 -43 Q169 -67 224 -67 Q268 -67 299.5 -42.5 Q331 -18 331 30 Q331 47 325 60.5 Q319 74 304.5 87 Q290 100 265.5 112 Q241 124 203 138 Q167 151 138 166 Q109 181 88.5 200.5 Q68 220 56.5 244.5 Q45 269 45 302 Q45 332 56 356 Q67 380 85.5 398 Q104 416 128.5 428 Q153 440 181 446 Q161 466 150 490 Q139 514 139 552 Q139 591 155 623 Q171 655 198 677.5 Q225 700 261 712 Q297 724 337 724 Q409 724 457 686.5 Q505 649 507 567 L422 567 Q421 654 329 654 Q285 654 253 632 Q221 610 221 557 Q221 541 226.5 527 Q232 513 245 501 Q258 489 281 477 Q304 465 338 453 Q374 440 404 425 Q434 410 456 390.5 Q478 371 490 344.5 Q502 318 502 283 Q502 253 492 230 Q482 207 464 190.5 Q446 174 421.5 162.5 Q397 151 369 143 Q389 125 401.5 96.5 Q414 68 414 37 Q414 -5 398.5 -37 Q383 -69 356.5 -91.5 Q330 -114 294 -125.5 Q258 -137 217 -137 Z M313 180 Q332 184 350.5 190.5 Q369 197 384 208.5 Q399 220 408.5 236.5 Q418 253 418 277 Q418 312 390 336.5 Q362 361 314 378 L232 408 Q214 405 196 398 Q178 391 163 379 Q148 367 138.5 349.5 Q129 332 129 309 Q129 276 153.5 254 Q178 232 229 212 L313 180 Z " />
<glyph glyph-name="dieresis" unicode="&#xa8;" horiz-adv-x="400" d="M172 634 Q150 634 134.5 649 Q119 664 119 686 Q119 708 135 724 Q151 740 173 740 Q195 740 210 725 Q225 710 225 688 Q225 666 209.5 650 Q194 634 172 634 Z M360 634 Q338 634 322.5 649 Q307 664 307 686 Q307 708 323 724 Q339 740 361 740 Q383 740 398 725 Q413 710 413 688 Q413 666 397.5 650 Q382 634 360 634 Z " />
<glyph glyph-name="copyright" unicode="&#xa9;" horiz-adv-x="844" d="M432 -9 Q356 -9 289 19 Q222 47 172.5 96.5 Q123 146 94.5 212.5 Q66 279 66 357 Q66 434 94.5 500.5 Q123 567 172.5 617 Q222 667 289.5 695.5 Q357 724 434 724 Q512 724 579 695.5 Q646 667 695 617.5 Q744 568 772 501.5 Q800 435 800 359 Q800 281 771.5 214 Q743 147 693.5 97.5 Q644 48 576.5 19.5 Q509 -9 432 -9 Z M432 33 Q496 33 554 57 Q612 81 656 124 Q700 167 726 227 Q752 287 752 359 Q752 430 726.5 489.5 Q701 549 657.5 592 Q614 635 556.5 658.5 Q499 682 434 682 Q368 682 310 658 Q252 634 208.5 591 Q165 548 139.5 488.5 Q114 429 114 357 Q114 285 140 225 Q166 165 210 122.5 Q254 80 311.5 56.5 Q369 33 432 33 Z M434 155 Q343 155 292.5 208.5 Q242 262 242 353 L242 361 Q242 406 256.5 442.5 Q271 479 296.5 505 Q322 531 357 545.5 Q392 560 434 560 Q502 560 549.5 526 Q597 492 603 422 L527 422 Q515 500 434 500 Q382 500 351.5 463.5 Q321 427 321 361 L321 354 Q321 288 350.5 252 Q380 216 434 216 Q475 216 502 236.5 Q529 257 535 299 L607 299 Q599 227 552 191 Q505 155 434 155 Z " />
<glyph glyph-name="ordfeminine" unicode="&#xaa;" horiz-adv-x="419" d="M184 290 Q121 290 87 322 Q53 354 53 406 Q53 445 69.5 471.5 Q86 498 114.5 514.5 Q143 531 181 538 Q219 545 263 545 L336 545 L340 571 Q347 616 330.5 638.5 Q314 661 266 661 Q190 661 175 593 L97 593 Q105 630 122.5 655 Q140 680 164 695.5 Q188 711 215.5 717.5 Q243 724 270 724 Q307 724 337 715 Q367 706 387 687 Q407 668 415.5 637.5 Q424 607 417 565 L395 425 Q388 383 387 353.5 Q386 324 389 298 L314 298 Q312 315 311.5 327 Q311 339 312 353 Q288 319 255 304.5 Q222 290 184 290 Z M201 350 Q248 350 280.5 373 Q313 396 321 447 L328 491 L260 491 Q194 491 162.5 472.5 Q131 454 131 410 Q131 384 148.5 367 Q166 350 201 350 Z " />
<glyph glyph-name="guillemotleft" unicode="&#xab;" horiz-adv-x="500" d="M216 439 L301 439 L145 258 L240 83 L160 83 L58 262 L216 439 Z M394 439 L479 439 L323 258 L418 83 L338 83 L236 262 L394 439 Z " />
<glyph glyph-name="registered" unicode="&#xae;" horiz-adv-x="514" d="M291 282 Q245 282 204.5 299 Q164 316 134 345.5 Q104 375 86.5 415 Q69 455 69 502 Q69 548 86.5 588.5 Q104 629 134 659 Q164 689 204.5 706.5 Q245 724 291 724 Q338 724 378.5 707 Q419 690 449 660 Q479 630 496 589.5 Q513 549 513 503 Q513 456 496 415.5 Q479 375 449 345.5 Q419 316 378.5 299 Q338 282 291 282 Z M291 318 Q330 318 363 331.5 Q396 345 420.5 369.5 Q445 394 459 428 Q473 462 473 503 Q473 544 459.5 578 Q446 612 422 636.5 Q398 661 364.5 674.5 Q331 688 291 688 Q251 688 217.5 674.5 Q184 661 160 636 Q136 611 122.5 577 Q109 543 109 502 Q109 461 123 427 Q137 393 161.5 369 Q186 345 219.5 331.5 Q253 318 291 318 Z M292 615 Q330 615 353 599 Q376 583 376 549 L376 548 Q376 523 363.5 509 Q351 495 331 489 L389 396 L339 396 L286 481 L263 481 L263 396 L215 396 L215 615 L292 615 Z M291 514 Q329 514 329 546 L329 547 Q329 564 319 571 Q309 578 291 578 L263 578 L263 514 L291 514 Z " />
<glyph glyph-name="macron" unicode="&#xaf;" horiz-adv-x="400" d="M401 712 L391 648 L129 648 L139 712 L401 712 Z " />
<glyph glyph-name="degree" unicode="&#xb0;" horiz-adv-x="427" d="M255 406 Q222 406 192.5 418 Q163 430 141.5 450.5 Q120 471 107.5 499 Q95 527 95 559 Q95 594 108 624 Q121 654 143.5 676.5 Q166 699 196.5 711.5 Q227 724 263 724 Q297 724 326 712 Q355 700 376.5 679 Q398 658 410 630 Q422 602 422 569 Q422 535 409.5 505.5 Q397 476 374.5 454 Q352 432 321.5 419 Q291 406 255 406 Z M257 464 Q297 464 322.5 492 Q348 520 348 568 Q348 610 323.5 638 Q299 666 261 666 Q220 666 193 637.5 Q166 609 166 561 Q166 520 192 492 Q218 464 257 464 Z " />
<glyph glyph-name="plusminus" unicode="&#xb1;" horiz-adv-x="519" d="M45 327 L56 397 L243 397 L272 579 L345 579 L316 397 L503 397 L492 327 L305 327 L276 145 L203 145 L232 327 L45 327 Z M452 70 L441 0 L-6 0 L5 70 L452 70 Z " />
<glyph glyph-name="uni00B2" unicode="&#xb2;" horiz-adv-x="286" d="M174 516 Q203 542 225 568.5 Q247 595 246 622 Q245 645 232 656 Q219 667 200 667 Q176 667 158.5 651.5 Q141 636 133 601 L71 601 Q80 658 116.5 688.5 Q153 719 204 719 Q225 719 244 714.5 Q263 710 278 699 Q293 688 302.5 670 Q312 652 313 626 Q315 590 288.5 556.5 Q262 523 217 484 L148 424 L284 424 L276 373 L24 373 L26 385 L174 516 Z " />
<glyph glyph-name="uni00B3" unicode="&#xb3;" horiz-adv-x="311" d="M183 368 Q158 368 135 373.5 Q112 379 94 392 Q76 405 65 426.5 Q54 448 54 479 L117 479 Q119 453 134.5 435.5 Q150 418 182 418 Q207 418 227.5 432 Q248 446 248 477 Q248 526 193 526 L169 526 L176 573 L203 573 Q230 573 246.5 585.5 Q263 598 263 623 Q263 644 251.5 656.5 Q240 669 214 669 Q188 669 170 654.5 Q152 640 146 614 L86 614 Q92 664 129 691.5 Q166 719 216 719 Q239 719 259 714 Q279 709 294.5 698.5 Q310 688 319 671 Q328 654 328 629 Q328 601 310 580 Q292 559 261 549 Q284 544 300.5 525.5 Q317 507 317 474 Q317 449 306 429 Q295 409 276.5 395.5 Q258 382 233.5 375 Q209 368 183 368 Z " />
<glyph glyph-name="acute" unicode="&#xb4;" horiz-adv-x="600" d="M401 760 L280 613 L214 613 L293 760 L401 760 Z " />
<glyph glyph-name="paragraph" unicode="&#xb6;" horiz-adv-x="588" d="M285 346 Q196 346 140.5 387.5 Q85 429 85 509 Q85 560 103.5 598.5 Q122 637 154.5 663 Q187 689 230 702 Q273 715 321 715 L565 715 L436 -100 L367 -100 L487 658 L406 658 L286 -100 L218 -100 L288 346 L285 346 Z " />
<glyph glyph-name="periodcentered" unicode="&#xb7;" horiz-adv-x="282" d="M150 263 Q124 263 105 281.5 Q86 300 86 327 Q86 354 104.5 372.5 Q123 391 149 391 Q175 391 194.5 372.5 Q214 354 214 327 Q214 300 195 281.5 Q176 263 150 263 Z " />
<glyph glyph-name="cedilla" unicode="&#xb8;" horiz-adv-x="400" d="M143 -214 Q104 -214 76 -193.5 Q48 -173 44 -130 L100 -130 Q102 -145 112.5 -155.5 Q123 -166 142 -166 Q158 -166 170 -157.5 Q182 -149 182 -128 Q182 -113 172 -104.5 Q162 -96 147 -96 Q138 -96 132 -98.5 Q126 -101 121 -104 L94 -74 L151 0 L204 0 L164 -53 Q194 -50 219.5 -68.5 Q245 -87 245 -125 Q245 -169 217 -191.5 Q189 -214 143 -214 Z " />
<glyph glyph-name="uni00B9" unicode="&#xb9;" horiz-adv-x="231" d="M76 593 L85 654 L184 715 L244 715 L190 373 L122 373 L165 647 L76 593 Z " />
<glyph glyph-name="ordmasculine" unicode="&#xba;" horiz-adv-x="493" d="M264 290 Q220 290 185 303.5 Q150 317 125.5 342 Q101 367 88 401 Q75 435 75 476 Q75 529 92.5 574.5 Q110 620 140.5 653 Q171 686 212.5 705 Q254 724 302 724 Q346 724 381 710.5 Q416 697 440.5 672 Q465 647 478 613 Q491 579 491 538 Q491 484 474 438.5 Q457 393 427 360 Q397 327 355.5 308.5 Q314 290 264 290 Z M268 354 Q302 354 328.5 368 Q355 382 373 406.5 Q391 431 400.5 464.5 Q410 498 410 537 Q410 594 382 627 Q354 660 297 660 Q265 660 239 646 Q213 632 194.5 607.5 Q176 583 166 549 Q156 515 156 476 Q156 419 183.5 386.5 Q211 354 268 354 Z " />
<glyph glyph-name="guillemotright" unicode="&#xbb;" horiz-adv-x="500" d="M104 83 L19 83 L175 264 L80 439 L160 439 L262 260 L104 83 Z M282 83 L197 83 L353 264 L258 439 L338 439 L440 260 L282 83 Z " />
<glyph glyph-name="onequarter" unicode="&#xbc;" horiz-adv-x="684" d="M686 715 L89 0 L20 0 L617 715 L686 715 Z M79 593 L88 654 L187 715 L247 715 L193 373 L125 373 L168 647 L79 593 Z M349 69 L353 93 L545 342 L629 342 L593 118 L639 118 L631 69 L586 69 L575 0 L510 0 L521 69 L349 69 Z M556 287 L431 118 L530 118 L556 287 Z " />
<glyph glyph-name="onehalf" unicode="&#xbd;" horiz-adv-x="697" d="M673 715 L76 0 L7 0 L604 715 L673 715 Z M79 593 L88 654 L187 715 L247 715 L193 373 L125 373 L168 647 L79 593 Z M523 143 Q559 175 577 197.5 Q595 220 595 249 Q595 272 581.5 283 Q568 294 549 294 Q525 294 507.5 278.5 Q490 263 482 228 L420 228 Q429 285 465.5 315.5 Q502 346 553 346 Q574 346 593.5 340.5 Q613 335 628 323.5 Q643 312 652.5 294 Q662 276 662 250 Q662 230 655.5 213.5 Q649 197 637 181.5 Q625 166 606.5 149 Q588 132 564 111 L495 51 L633 51 L625 0 L373 0 L375 12 L523 143 Z " />
<glyph glyph-name="threequarters" unicode="&#xbe;" horiz-adv-x="710" d="M186 368 Q161 368 138 373.5 Q115 379 97 392 Q79 405 68 426.5 Q57 448 57 479 L120 479 Q122 453 137.5 435.5 Q153 418 185 418 Q210 418 230.5 432 Q251 446 251 477 Q251 526 196 526 L172 526 L179 573 L206 573 Q233 573 249.5 585.5 Q266 598 266 623 Q266 644 254.5 656.5 Q243 669 217 669 Q191 669 173 654.5 Q155 640 149 614 L89 614 Q95 664 132 691.5 Q169 719 219 719 Q242 719 262 714 Q282 709 297.5 698.5 Q313 688 322 671 Q331 654 331 629 Q331 601 313 580 Q295 559 264 549 Q287 544 303.5 525.5 Q320 507 320 474 Q320 449 309 429 Q298 409 279.5 395.5 Q261 382 236.5 375 Q212 368 186 368 Z M726 715 L129 0 L60 0 L657 715 L726 715 Z M375 69 L379 93 L571 342 L655 342 L619 118 L665 118 L657 69 L612 69 L601 0 L536 0 L547 69 L375 69 Z M582 287 L457 118 L556 118 L582 287 Z " />
<glyph glyph-name="questiondown" unicode="&#xbf;" horiz-adv-x="489" d="M308 603 Q334 603 353 584.5 Q372 566 372 539 Q372 512 353.5 493.5 Q335 475 309 475 Q283 475 263.5 493.5 Q244 512 244 539 Q244 566 263 584.5 Q282 603 308 603 Z M320 345 Q314 309 300 282 Q286 255 266.5 234 Q247 213 224.5 196 Q202 179 181 163 Q144 135 120.5 107.5 Q97 80 97 33 Q97 -9 124 -33 Q151 -57 202 -57 Q255 -57 293 -24 Q331 9 342 73 L421 73 Q415 25 394.5 -12 Q374 -49 344 -74.5 Q314 -100 275.5 -113 Q237 -126 193 -126 Q146 -126 111.5 -113 Q77 -100 55 -78 Q33 -56 22.5 -27.5 Q12 1 12 32 Q12 68 22.5 95 Q33 122 51 143 Q69 164 92 181.5 Q115 199 140 217 Q178 244 209 274.5 Q240 305 247 352 L254 396 L328 396 L320 345 Z " />
<glyph glyph-name="Agrave" unicode="&#xc0;" horiz-adv-x="650" d="M400 898 L439 771 L379 771 L299 898 L400 898 Z M168 206 L66 0 L-18 0 L341 715 L455 715 L584 0 L500 0 L463 206 L168 206 Z M450 275 L384 643 L202 275 L450 275 Z " />
<glyph glyph-name="Aacute" unicode="&#xc1;" horiz-adv-x="650" d="M538 898 L430 771 L364 771 L432 898 L538 898 Z M168 206 L66 0 L-18 0 L341 715 L455 715 L584 0 L500 0 L463 206 L168 206 Z M450 275 L384 643 L202 275 L450 275 Z " />
<glyph glyph-name="Acircumflex" unicode="&#xc2;" horiz-adv-x="650" d="M450 898 L541 771 L483 771 L406 829 L313 771 L251 771 L375 898 L450 898 Z M168 206 L66 0 L-18 0 L341 715 L455 715 L584 0 L500 0 L463 206 L168 206 Z M450 275 L384 643 L202 275 L450 275 Z " />
<glyph glyph-name="Atilde" unicode="&#xc3;" horiz-adv-x="650" d="M465 774 Q447 774 431.5 780.5 Q416 787 402.5 795.5 Q389 804 377 810.5 Q365 817 354 817 Q340 817 326.5 805 Q313 793 308 772 L248 772 Q259 827 287.5 857.5 Q316 888 355 888 Q372 888 387.5 881.5 Q403 875 416.5 866.5 Q430 858 442 851.5 Q454 845 465 845 Q479 845 492 857 Q505 869 510 890 L570 890 Q559 835 531 804.5 Q503 774 465 774 Z M168 206 L66 0 L-18 0 L341 715 L455 715 L584 0 L500 0 L463 206 L168 206 Z M450 275 L384 643 L202 275 L450 275 Z " />
<glyph glyph-name="Adieresis" unicode="&#xc4;" horiz-adv-x="650" d="M305 789 Q283 789 267.5 804 Q252 819 252 841 Q252 863 268 879 Q284 895 306 895 Q328 895 343 880 Q358 865 358 843 Q358 821 342.5 805 Q327 789 305 789 Z M508 789 Q486 789 470.5 804 Q455 819 455 841 Q455 863 471 879 Q487 895 509 895 Q531 895 546 880 Q561 865 561 843 Q561 821 545.5 805 Q530 789 508 789 Z M168 206 L66 0 L-18 0 L341 715 L455 715 L584 0 L500 0 L463 206 L168 206 Z M450 275 L384 643 L202 275 L450 275 Z " />
<glyph glyph-name="Aring" unicode="&#xc5;" horiz-adv-x="650" d="M405 759 Q360 759 330 788.5 Q300 818 300 861 Q300 883 308.5 902.5 Q317 922 332 936 Q347 950 367 958.5 Q387 967 409 967 Q454 967 484 937.5 Q514 908 514 865 Q514 843 505.5 823.5 Q497 804 482 790 Q467 776 447 767.5 Q427 759 405 759 Z M405 805 Q428 805 444 822 Q460 839 460 865 Q460 890 446 905.5 Q432 921 409 921 Q386 921 370 904 Q354 887 354 861 Q354 836 368 820.5 Q382 805 405 805 Z M168 206 L66 0 L-18 0 L341 715 L455 715 L584 0 L500 0 L463 206 L168 206 Z M450 275 L384 643 L202 275 L450 275 Z " />
<glyph glyph-name="AE" unicode="&#xc6;" horiz-adv-x="950" d="M958 715 L946 644 L620 644 L582 401 L848 401 L837 330 L571 330 L530 71 L878 71 L867 0 L432 0 L464 207 L211 207 L78 0 L-13 0 L453 715 L958 715 Z M475 275 L533 644 L493 644 L255 275 L475 275 Z " />
<glyph glyph-name="Ccedilla" unicode="&#xc7;" horiz-adv-x="728" d="M302 -214 Q263 -214 235 -193.5 Q207 -173 203 -130 L259 -130 Q261 -145 271.5 -155.5 Q282 -166 301 -166 Q317 -166 329 -157.5 Q341 -149 341 -128 Q341 -113 331 -104.5 Q321 -96 306 -96 Q297 -96 291 -98.5 Q285 -101 280 -104 L253 -74 L308 -2 Q195 19 131.5 99.5 Q68 180 68 304 Q68 392 96 469 Q124 546 174 603 Q224 660 294 693 Q364 726 448 726 Q502 726 549 711 Q596 696 631.5 666.5 Q667 637 688.5 593.5 Q710 550 714 492 L632 492 Q619 573 574.5 615 Q530 657 444 657 Q377 657 323.5 629.5 Q270 602 233.5 554.5 Q197 507 177.5 442.5 Q158 378 158 304 Q158 188 215 124.5 Q272 61 387 61 Q474 61 530 109.5 Q586 158 611 237 L694 237 Q680 180 651 134.5 Q622 89 582 57 Q542 25 492.5 8 Q443 -9 386 -9 Q378 -9 373 -9 Q368 -9 357 -8 L323 -53 Q353 -50 378.5 -68.5 Q404 -87 404 -125 Q404 -169 376 -191.5 Q348 -214 302 -214 Z " />
<glyph glyph-name="Egrave" unicode="&#xc8;" horiz-adv-x="572" d="M382 898 L421 771 L361 771 L281 898 L382 898 Z M574 715 L562 644 L236 644 L198 401 L464 401 L453 330 L187 330 L146 71 L494 71 L483 0 L48 0 L161 715 L574 715 Z " />
<glyph glyph-name="Eacute" unicode="&#xc9;" horiz-adv-x="572" d="M507 898 L399 771 L333 771 L401 898 L507 898 Z M574 715 L562 644 L236 644 L198 401 L464 401 L453 330 L187 330 L146 71 L494 71 L483 0 L48 0 L161 715 L574 715 Z " />
<glyph glyph-name="Ecircumflex" unicode="&#xca;" horiz-adv-x="572" d="M421 898 L512 771 L454 771 L377 829 L284 771 L222 771 L346 898 L421 898 Z M574 715 L562 644 L236 644 L198 401 L464 401 L453 330 L187 330 L146 71 L494 71 L483 0 L48 0 L161 715 L574 715 Z " />
<glyph glyph-name="Edieresis" unicode="&#xcb;" horiz-adv-x="572" d="M278 789 Q256 789 240.5 804 Q225 819 225 841 Q225 863 241 879 Q257 895 279 895 Q301 895 316 880 Q331 865 331 843 Q331 821 315.5 805 Q300 789 278 789 Z M481 789 Q459 789 443.5 804 Q428 819 428 841 Q428 863 444 879 Q460 895 482 895 Q504 895 519 880 Q534 865 534 843 Q534 821 518.5 805 Q503 789 481 789 Z M574 715 L562 644 L236 644 L198 401 L464 401 L453 330 L187 330 L146 71 L494 71 L483 0 L48 0 L161 715 L574 715 Z " />
<glyph glyph-name="Igrave" unicode="&#xcc;" horiz-adv-x="279" d="M215 898 L254 771 L194 771 L114 898 L215 898 Z M253 715 L140 0 L53 0 L166 715 L253 715 Z " />
<glyph glyph-name="Iacute" unicode="&#xcd;" horiz-adv-x="279" d="M353 898 L245 771 L179 771 L247 898 L353 898 Z M253 715 L140 0 L53 0 L166 715 L253 715 Z " />
<glyph glyph-name="Icircumflex" unicode="&#xce;" horiz-adv-x="279" d="M267 898 L358 771 L300 771 L223 829 L130 771 L68 771 L192 898 L267 898 Z M253 715 L140 0 L53 0 L166 715 L253 715 Z " />
<glyph glyph-name="Idieresis" unicode="&#xcf;" horiz-adv-x="279" d="M127 789 Q105 789 89.5 804 Q74 819 74 841 Q74 863 90 879 Q106 895 128 895 Q150 895 165 880 Q180 865 180 843 Q180 821 164.5 805 Q149 789 127 789 Z M330 789 Q308 789 292.5 804 Q277 819 277 841 Q277 863 293 879 Q309 895 331 895 Q353 895 368 880 Q383 865 383 843 Q383 821 367.5 805 Q352 789 330 789 Z M253 715 L140 0 L53 0 L166 715 L253 715 Z " />
<glyph glyph-name="Eth" unicode="&#xd0;" horiz-adv-x="718" d="M130 392 L181 715 L355 715 Q444 715 507 692 Q570 669 610.5 628 Q651 587 670 531.5 Q689 476 689 410 Q689 325 662.5 250 Q636 175 583.5 119.5 Q531 64 454.5 32 Q378 0 277 0 L68 0 L119 325 L43 325 L54 392 L130 392 Z M274 71 Q351 71 411.5 94 Q472 117 514 160.5 Q556 204 578 267 Q600 330 600 409 Q600 460 586.5 503.5 Q573 547 543 578.5 Q513 610 466 627.5 Q419 645 351 645 L257 645 L217 392 L424 392 L413 325 L206 325 L166 71 L274 71 Z " />
<glyph glyph-name="Ntilde" unicode="&#xd1;" horiz-adv-x="724" d="M514 774 Q496 774 480.5 780.5 Q465 787 451.5 795.5 Q438 804 426 810.5 Q414 817 403 817 Q389 817 375.5 805 Q362 793 357 772 L297 772 Q308 827 336.5 857.5 Q365 888 404 888 Q421 888 436.5 881.5 Q452 875 465.5 866.5 Q479 858 491 851.5 Q503 845 514 845 Q528 845 541 857 Q554 869 559 890 L619 890 Q608 835 580 804.5 Q552 774 514 774 Z M272 715 L528 124 L622 715 L705 715 L592 0 L494 0 L228 613 L131 0 L48 0 L161 715 L272 715 Z " />
<glyph glyph-name="Ograve" unicode="&#xd2;" horiz-adv-x="811" d="M467 898 L506 771 L446 771 L366 898 L467 898 Z M773 402 Q773 313 743.5 237.5 Q714 162 663 107.5 Q612 53 543 22 Q474 -9 395 -9 Q321 -9 260.5 15.5 Q200 40 157.5 82.5 Q115 125 91.5 184 Q68 243 68 312 Q68 398 97.5 473 Q127 548 178.5 603.5 Q230 659 300.5 691.5 Q371 724 452 724 Q529 724 589 698.5 Q649 673 690 629 Q731 585 752 526.5 Q773 468 773 402 Z M683 402 Q683 454 668 500 Q653 546 623.5 580 Q594 614 550.5 634 Q507 654 451 654 Q384 654 329.5 626.5 Q275 599 237 552.5 Q199 506 178.5 443.5 Q158 381 158 312 Q158 254 175.5 207.5 Q193 161 224.5 128.5 Q256 96 300 79 Q344 62 396 62 Q460 62 512.5 87.5 Q565 113 603 158.5 Q641 204 662 266.5 Q683 329 683 402 Z " />
<glyph glyph-name="Oacute" unicode="&#xd3;" horiz-adv-x="811" d="M608 898 L500 771 L434 771 L502 898 L608 898 Z M773 402 Q773 313 743.5 237.5 Q714 162 663 107.5 Q612 53 543 22 Q474 -9 395 -9 Q321 -9 260.5 15.5 Q200 40 157.5 82.5 Q115 125 91.5 184 Q68 243 68 312 Q68 398 97.5 473 Q127 548 178.5 603.5 Q230 659 300.5 691.5 Q371 724 452 724 Q529 724 589 698.5 Q649 673 690 629 Q731 585 752 526.5 Q773 468 773 402 Z M683 402 Q683 454 668 500 Q653 546 623.5 580 Q594 614 550.5 634 Q507 654 451 654 Q384 654 329.5 626.5 Q275 599 237 552.5 Q199 506 178.5 443.5 Q158 381 158 312 Q158 254 175.5 207.5 Q193 161 224.5 128.5 Q256 96 300 79 Q344 62 396 62 Q460 62 512.5 87.5 Q565 113 603 158.5 Q641 204 662 266.5 Q683 329 683 402 Z " />
<glyph glyph-name="Ocircumflex" unicode="&#xd4;" horiz-adv-x="811" d="M529 898 L620 771 L562 771 L485 829 L392 771 L330 771 L454 898 L529 898 Z M773 402 Q773 313 743.5 237.5 Q714 162 663 107.5 Q612 53 543 22 Q474 -9 395 -9 Q321 -9 260.5 15.5 Q200 40 157.5 82.5 Q115 125 91.5 184 Q68 243 68 312 Q68 398 97.5 473 Q127 548 178.5 603.5 Q230 659 300.5 691.5 Q371 724 452 724 Q529 724 589 698.5 Q649 673 690 629 Q731 585 752 526.5 Q773 468 773 402 Z M683 402 Q683 454 668 500 Q653 546 623.5 580 Q594 614 550.5 634 Q507 654 451 654 Q384 654 329.5 626.5 Q275 599 237 552.5 Q199 506 178.5 443.5 Q158 381 158 312 Q158 254 175.5 207.5 Q193 161 224.5 128.5 Q256 96 300 79 Q344 62 396 62 Q460 62 512.5 87.5 Q565 113 603 158.5 Q641 204 662 266.5 Q683 329 683 402 Z " />
<glyph glyph-name="Otilde" unicode="&#xd5;" horiz-adv-x="811" d="M535 774 Q517 774 501.5 780.5 Q486 787 472.5 795.5 Q459 804 447 810.5 Q435 817 424 817 Q410 817 396.5 805 Q383 793 378 772 L318 772 Q329 827 357.5 857.5 Q386 888 425 888 Q442 888 457.5 881.5 Q473 875 486.5 866.5 Q500 858 512 851.5 Q524 845 535 845 Q549 845 562 857 Q575 869 580 890 L640 890 Q629 835 601 804.5 Q573 774 535 774 Z M773 402 Q773 313 743.5 237.5 Q714 162 663 107.5 Q612 53 543 22 Q474 -9 395 -9 Q321 -9 260.5 15.5 Q200 40 157.5 82.5 Q115 125 91.5 184 Q68 243 68 312 Q68 398 97.5 473 Q127 548 178.5 603.5 Q230 659 300.5 691.5 Q371 724 452 724 Q529 724 589 698.5 Q649 673 690 629 Q731 585 752 526.5 Q773 468 773 402 Z M683 402 Q683 454 668 500 Q653 546 623.5 580 Q594 614 550.5 634 Q507 654 451 654 Q384 654 329.5 626.5 Q275 599 237 552.5 Q199 506 178.5 443.5 Q158 381 158 312 Q158 254 175.5 207.5 Q193 161 224.5 128.5 Q256 96 300 79 Q344 62 396 62 Q460 62 512.5 87.5 Q565 113 603 158.5 Q641 204 662 266.5 Q683 329 683 402 Z " />
<glyph glyph-name="Odieresis" unicode="&#xd6;" horiz-adv-x="811" d="M378 789 Q356 789 340.5 804 Q325 819 325 841 Q325 863 341 879 Q357 895 379 895 Q401 895 416 880 Q431 865 431 843 Q431 821 415.5 805 Q400 789 378 789 Z M581 789 Q559 789 543.5 804 Q528 819 528 841 Q528 863 544 879 Q560 895 582 895 Q604 895 619 880 Q634 865 634 843 Q634 821 618.5 805 Q603 789 581 789 Z M773 402 Q773 313 743.5 237.5 Q714 162 663 107.5 Q612 53 543 22 Q474 -9 395 -9 Q321 -9 260.5 15.5 Q200 40 157.5 82.5 Q115 125 91.5 184 Q68 243 68 312 Q68 398 97.5 473 Q127 548 178.5 603.5 Q230 659 300.5 691.5 Q371 724 452 724 Q529 724 589 698.5 Q649 673 690 629 Q731 585 752 526.5 Q773 468 773 402 Z M683 402 Q683 454 668 500 Q653 546 623.5 580 Q594 614 550.5 634 Q507 654 451 654 Q384 654 329.5 626.5 Q275 599 237 552.5 Q199 506 178.5 443.5 Q158 381 158 312 Q158 254 175.5 207.5 Q193 161 224.5 128.5 Q256 96 300 79 Q344 62 396 62 Q460 62 512.5 87.5 Q565 113 603 158.5 Q641 204 662 266.5 Q683 329 683 402 Z " />
<glyph glyph-name="multiply" unicode="&#xd7;" horiz-adv-x="469" d="M196 335 L64 488 L114 535 L248 381 L420 535 L465 485 L291 330 L425 177 L373 131 L240 284 L67 131 L24 181 L196 335 Z " />
<glyph glyph-name="Oslash" unicode="&#xd8;" horiz-adv-x="811" d="M130 114 Q100 155 84 205 Q68 255 68 312 Q68 398 97.5 473 Q127 548 178.5 603.5 Q230 659 300.5 691.5 Q371 724 452 724 Q516 724 568 706 Q620 688 659 656 L743 742 L786 697 L703 613 Q738 570 755.5 516 Q773 462 773 402 Q773 313 743.5 237.5 Q714 162 663 107.5 Q612 53 543 22 Q474 -9 395 -9 Q326 -9 270 11 Q214 31 172 68 L73 -33 L30 12 L130 114 Z M158 312 Q158 231 189 174 L606 601 Q577 627 538 640.5 Q499 654 451 654 Q384 654 329.5 626.5 Q275 599 237 552.5 Q199 506 178.5 443.5 Q158 381 158 312 Z M683 402 Q683 491 645 553 L226 124 Q258 93 301 77.5 Q344 62 396 62 Q460 62 512.5 87.5 Q565 113 603 158.5 Q641 204 662 266.5 Q683 329 683 402 Z " />
<glyph glyph-name="Ugrave" unicode="&#xd9;" horiz-adv-x="696" d="M419 898 L458 771 L398 771 L318 898 L419 898 Z M325 -9 Q189 -9 126 64 Q63 137 86 283 L155 715 L242 715 L173 282 Q154 163 194.5 113 Q235 63 329 63 Q409 63 458 108 Q507 153 524 261 L596 715 L683 715 L609 249 Q600 191 578.5 143 Q557 95 522 61.5 Q487 28 438.5 9.5 Q390 -9 325 -9 Z " />
<glyph glyph-name="Uacute" unicode="&#xda;" horiz-adv-x="696" d="M557 898 L449 771 L383 771 L451 898 L557 898 Z M325 -9 Q189 -9 126 64 Q63 137 86 283 L155 715 L242 715 L173 282 Q154 163 194.5 113 Q235 63 329 63 Q409 63 458 108 Q507 153 524 261 L596 715 L683 715 L609 249 Q600 191 578.5 143 Q557 95 522 61.5 Q487 28 438.5 9.5 Q390 -9 325 -9 Z " />
<glyph glyph-name="Ucircumflex" unicode="&#xdb;" horiz-adv-x="696" d="M471 898 L562 771 L504 771 L427 829 L334 771 L272 771 L396 898 L471 898 Z M325 -9 Q189 -9 126 64 Q63 137 86 283 L155 715 L242 715 L173 282 Q154 163 194.5 113 Q235 63 329 63 Q409 63 458 108 Q507 153 524 261 L596 715 L683 715 L609 249 Q600 191 578.5 143 Q557 95 522 61.5 Q487 28 438.5 9.5 Q390 -9 325 -9 Z " />
<glyph glyph-name="Udieresis" unicode="&#xdc;" horiz-adv-x="696" d="M331 789 Q309 789 293.5 804 Q278 819 278 841 Q278 863 294 879 Q310 895 332 895 Q354 895 369 880 Q384 865 384 843 Q384 821 368.5 805 Q353 789 331 789 Z M534 789 Q512 789 496.5 804 Q481 819 481 841 Q481 863 497 879 Q513 895 535 895 Q557 895 572 880 Q587 865 587 843 Q587 821 571.5 805 Q556 789 534 789 Z M325 -9 Q189 -9 126 64 Q63 137 86 283 L155 715 L242 715 L173 282 Q154 163 194.5 113 Q235 63 329 63 Q409 63 458 108 Q507 153 524 261 L596 715 L683 715 L609 249 Q600 191 578.5 143 Q557 95 522 61.5 Q487 28 438.5 9.5 Q390 -9 325 -9 Z " />
<glyph glyph-name="Yacute" unicode="&#xdd;" horiz-adv-x="592" d="M507 898 L399 771 L333 771 L401 898 L507 898 Z M91 715 L184 715 L322 383 L554 715 L643 715 L352 305 L304 0 L217 0 L266 312 L91 715 Z " />
<glyph glyph-name="Thorn" unicode="&#xde;" horiz-adv-x="581" d="M341 581 Q390 581 430.5 569.5 Q471 558 500 535 Q529 512 545 478 Q561 444 561 399 Q561 335 538 290.5 Q515 246 477.5 218 Q440 190 391.5 177.5 Q343 165 293 165 L161 165 L135 0 L48 0 L161 715 L248 715 L227 581 L341 581 Z M172 234 L298 234 Q385 234 430 276.5 Q475 319 475 398 Q476 457 440 484 Q404 511 332 511 L216 511 L172 234 Z " />
<glyph glyph-name="germandbls" unicode="&#xdf;" horiz-adv-x="593" d="M315 -9 Q277 -9 250 -2 Q223 5 203 16 L214 83 Q236 72 259.5 65.5 Q283 59 311 59 Q346 59 373 72 Q400 85 418.5 107.5 Q437 130 446.5 161.5 Q456 193 456 229 Q456 306 411 349.5 Q366 393 284 393 L296 463 Q330 463 360.5 470.5 Q391 478 414.5 494.5 Q438 511 452 537.5 Q466 564 466 602 Q466 653 435.5 680.5 Q405 708 351 708 Q294 708 260 672 Q226 636 216 575 L125 0 L42 0 L133 580 Q140 625 159.5 661.5 Q179 698 208.5 723 Q238 748 274.5 761.5 Q311 775 353 775 Q390 775 424.5 764 Q459 753 486 731 Q513 709 529 676.5 Q545 644 545 601 Q545 535 505.5 490.5 Q466 446 400 426 Q467 404 504.5 351.5 Q542 299 542 225 Q542 172 526 128.5 Q510 85 480.5 54.5 Q451 24 409 7.5 Q367 -9 315 -9 Z " />
<glyph glyph-name="agrave" unicode="&#xe0;" horiz-adv-x="538" d="M296 760 L343 613 L282 613 L194 760 L296 760 Z M197 -8 Q116 -8 72 32.5 Q28 73 28 140 Q28 188 48.5 220.5 Q69 253 103.5 272 Q138 291 184.5 299 Q231 307 282 307 L383 307 L389 345 Q399 405 376.5 434 Q354 463 291 463 Q240 463 208.5 440.5 Q177 418 166 369 L83 369 Q92 416 114.5 447.5 Q137 479 166 497.5 Q195 516 229 524 Q263 532 294 532 Q338 532 374 521.5 Q410 511 434.5 488 Q459 465 469 428 Q479 391 471 338 L442 156 Q434 105 431.5 69 Q429 33 433 0 L355 0 Q353 21 352.5 43.5 Q352 66 354 83 Q326 38 285.5 15 Q245 -8 197 -8 Z M208 57 Q267 57 310 89.5 Q353 122 364 191 L373 248 L284 248 Q196 248 153 224 Q110 200 110 140 Q110 105 133.5 81 Q157 57 208 57 Z " />
<glyph glyph-name="aacute" unicode="&#xe1;" horiz-adv-x="538" d="M456 760 L335 613 L269 613 L348 760 L456 760 Z M197 -8 Q116 -8 72 32.5 Q28 73 28 140 Q28 188 48.5 220.5 Q69 253 103.5 272 Q138 291 184.5 299 Q231 307 282 307 L383 307 L389 345 Q399 405 376.5 434 Q354 463 291 463 Q240 463 208.5 440.5 Q177 418 166 369 L83 369 Q92 416 114.5 447.5 Q137 479 166 497.5 Q195 516 229 524 Q263 532 294 532 Q338 532 374 521.5 Q410 511 434.5 488 Q459 465 469 428 Q479 391 471 338 L442 156 Q434 105 431.5 69 Q429 33 433 0 L355 0 Q353 21 352.5 43.5 Q352 66 354 83 Q326 38 285.5 15 Q245 -8 197 -8 Z M208 57 Q267 57 310 89.5 Q353 122 364 191 L373 248 L284 248 Q196 248 153 224 Q110 200 110 140 Q110 105 133.5 81 Q157 57 208 57 Z " />
<glyph glyph-name="acircumflex" unicode="&#xe2;" horiz-adv-x="538" d="M369 722 L455 578 L397 578 L323 653 L227 578 L165 578 L294 722 L369 722 Z M197 -8 Q116 -8 72 32.5 Q28 73 28 140 Q28 188 48.5 220.5 Q69 253 103.5 272 Q138 291 184.5 299 Q231 307 282 307 L383 307 L389 345 Q399 405 376.5 434 Q354 463 291 463 Q240 463 208.5 440.5 Q177 418 166 369 L83 369 Q92 416 114.5 447.5 Q137 479 166 497.5 Q195 516 229 524 Q263 532 294 532 Q338 532 374 521.5 Q410 511 434.5 488 Q459 465 469 428 Q479 391 471 338 L442 156 Q434 105 431.5 69 Q429 33 433 0 L355 0 Q353 21 352.5 43.5 Q352 66 354 83 Q326 38 285.5 15 Q245 -8 197 -8 Z M208 57 Q267 57 310 89.5 Q353 122 364 191 L373 248 L284 248 Q196 248 153 224 Q110 200 110 140 Q110 105 133.5 81 Q157 57 208 57 Z " />
<glyph glyph-name="atilde" unicode="&#xe3;" horiz-adv-x="538" d="M376 619 Q358 619 342.5 625.5 Q327 632 313.5 640.5 Q300 649 288 655.5 Q276 662 265 662 Q251 662 237.5 650 Q224 638 219 617 L159 617 Q170 672 198.5 702.5 Q227 733 266 733 Q283 733 298.5 726.5 Q314 720 327.5 711.5 Q341 703 353 696.5 Q365 690 376 690 Q390 690 403 702 Q416 714 421 735 L481 735 Q470 680 442 649.5 Q414 619 376 619 Z M197 -8 Q116 -8 72 32.5 Q28 73 28 140 Q28 188 48.5 220.5 Q69 253 103.5 272 Q138 291 184.5 299 Q231 307 282 307 L383 307 L389 345 Q399 405 376.5 434 Q354 463 291 463 Q240 463 208.5 440.5 Q177 418 166 369 L83 369 Q92 416 114.5 447.5 Q137 479 166 497.5 Q195 516 229 524 Q263 532 294 532 Q338 532 374 521.5 Q410 511 434.5 488 Q459 465 469 428 Q479 391 471 338 L442 156 Q434 105 431.5 69 Q429 33 433 0 L355 0 Q353 21 352.5 43.5 Q352 66 354 83 Q326 38 285.5 15 Q245 -8 197 -8 Z M208 57 Q267 57 310 89.5 Q353 122 364 191 L373 248 L284 248 Q196 248 153 224 Q110 200 110 140 Q110 105 133.5 81 Q157 57 208 57 Z " />
<glyph glyph-name="adieresis" unicode="&#xe4;" horiz-adv-x="538" d="M223 634 Q201 634 185.5 649 Q170 664 170 686 Q170 708 186 724 Q202 740 224 740 Q246 740 261 725 Q276 710 276 688 Q276 666 260.5 650 Q245 634 223 634 Z M411 634 Q389 634 373.5 649 Q358 664 358 686 Q358 708 374 724 Q390 740 412 740 Q434 740 449 725 Q464 710 464 688 Q464 666 448.5 650 Q433 634 411 634 Z M197 -8 Q116 -8 72 32.5 Q28 73 28 140 Q28 188 48.5 220.5 Q69 253 103.5 272 Q138 291 184.5 299 Q231 307 282 307 L383 307 L389 345 Q399 405 376.5 434 Q354 463 291 463 Q240 463 208.5 440.5 Q177 418 166 369 L83 369 Q92 416 114.5 447.5 Q137 479 166 497.5 Q195 516 229 524 Q263 532 294 532 Q338 532 374 521.5 Q410 511 434.5 488 Q459 465 469 428 Q479 391 471 338 L442 156 Q434 105 431.5 69 Q429 33 433 0 L355 0 Q353 21 352.5 43.5 Q352 66 354 83 Q326 38 285.5 15 Q245 -8 197 -8 Z M208 57 Q267 57 310 89.5 Q353 122 364 191 L373 248 L284 248 Q196 248 153 224 Q110 200 110 140 Q110 105 133.5 81 Q157 57 208 57 Z " />
<glyph glyph-name="aring" unicode="&#xe5;" horiz-adv-x="538" d="M324 598 Q279 598 249 627.5 Q219 657 219 700 Q219 722 227.5 741.5 Q236 761 251 775 Q266 789 286 797.5 Q306 806 328 806 Q373 806 403 776.5 Q433 747 433 704 Q433 682 424.5 662.5 Q416 643 401 629 Q386 615 366 606.5 Q346 598 324 598 Z M324 644 Q347 644 363 661 Q379 678 379 704 Q379 729 365 744.5 Q351 760 328 760 Q305 760 289 743 Q273 726 273 700 Q273 675 287 659.5 Q301 644 324 644 Z M197 -8 Q116 -8 72 32.5 Q28 73 28 140 Q28 188 48.5 220.5 Q69 253 103.5 272 Q138 291 184.5 299 Q231 307 282 307 L383 307 L389 345 Q399 405 376.5 434 Q354 463 291 463 Q240 463 208.5 440.5 Q177 418 166 369 L83 369 Q92 416 114.5 447.5 Q137 479 166 497.5 Q195 516 229 524 Q263 532 294 532 Q338 532 374 521.5 Q410 511 434.5 488 Q459 465 469 428 Q479 391 471 338 L442 156 Q434 105 431.5 69 Q429 33 433 0 L355 0 Q353 21 352.5 43.5 Q352 66 354 83 Q326 38 285.5 15 Q245 -8 197 -8 Z M208 57 Q267 57 310 89.5 Q353 122 364 191 L373 248 L284 248 Q196 248 153 224 Q110 200 110 140 Q110 105 133.5 81 Q157 57 208 57 Z " />
<glyph glyph-name="ae" unicode="&#xe6;" horiz-adv-x="875" d="M458 211 Q458 139 489.5 99.5 Q521 60 596 60 Q705 60 735 151 L816 151 Q792 70 732.5 30.5 Q673 -9 593 -9 Q518 -9 469 23 Q420 55 397 109 Q367 52 316 22 Q265 -8 199 -8 Q116 -8 72 29.5 Q28 67 28 134 Q28 182 49 215.5 Q70 249 105.5 270 Q141 291 188 300.5 Q235 310 287 310 L384 310 L390 345 Q400 405 377 434 Q354 463 291 463 Q240 463 208.5 440.5 Q177 418 166 369 L83 369 Q92 416 114.5 447.5 Q137 479 166 497.5 Q195 516 229 524 Q263 532 294 532 Q354 532 397 512 Q440 492 457 446 Q492 486 538.5 508.5 Q585 531 640 531 Q693 531 734.5 514.5 Q776 498 802 464.5 Q828 431 837.5 381 Q847 331 836 264 L833 247 L459 247 Q458 238 458 229 Q458 220 458 211 Z M635 463 Q579 463 533 427.5 Q487 392 468 310 L759 310 Q765 389 736 426 Q707 463 635 463 Z M206 57 Q267 57 310.5 89.5 Q354 122 365 191 L374 247 L284 247 Q196 247 153 222 Q110 197 110 137 Q110 102 133.5 79.5 Q157 57 206 57 Z " />
<glyph glyph-name="ccedilla" unicode="&#xe7;" horiz-adv-x="554" d="M209 -214 Q170 -214 142 -193.5 Q114 -173 110 -130 L166 -130 Q168 -145 178.5 -155.5 Q189 -166 208 -166 Q224 -166 236 -157.5 Q248 -149 248 -128 Q248 -113 238 -104.5 Q228 -96 213 -96 Q204 -96 198 -98.5 Q192 -101 187 -104 L160 -74 L216 -1 Q129 16 84 78 Q39 140 39 230 Q39 302 61.5 358.5 Q84 415 121.5 453 Q159 491 208 511 Q257 531 310 531 Q353 531 390.5 520 Q428 509 456.5 486.5 Q485 464 502 429.5 Q519 395 522 347 L443 347 Q439 381 427.5 403 Q416 425 398 438 Q380 451 356.5 456.5 Q333 462 306 462 Q267 462 233.5 447 Q200 432 176 402.5 Q152 373 138 330 Q124 287 124 230 Q124 147 164 103.5 Q204 60 285 60 Q340 60 382.5 92.5 Q425 125 436 186 L514 186 Q506 140 485 103.5 Q464 67 433.5 42.5 Q403 18 365 5 Q327 -8 283 -8 L263 -8 L230 -53 Q260 -50 285.5 -68.5 Q311 -87 311 -125 Q311 -169 283 -191.5 Q255 -214 209 -214 Z " />
<glyph glyph-name="egrave" unicode="&#xe8;" horiz-adv-x="553" d="M308 760 L355 613 L294 613 L206 760 L308 760 Z M123 211 Q123 139 157.5 99.5 Q192 60 267 60 Q322 60 359 83 Q396 106 411 151 L494 151 Q482 111 459.5 80.5 Q437 50 407 30.5 Q377 11 340.5 1 Q304 -9 264 -9 Q211 -9 169 7.5 Q127 24 98 54 Q69 84 53.5 125 Q38 166 38 215 Q38 284 59 342 Q80 400 117 442 Q154 484 203.5 507.5 Q253 531 311 531 Q364 531 406.5 514.5 Q449 498 476.5 464.5 Q504 431 514.5 381 Q525 331 514 264 L511 245 L124 245 Q123 237 123 228.5 Q123 220 123 211 Z M306 463 Q278 463 251.5 454.5 Q225 446 202 427.5 Q179 409 161.5 380.5 Q144 352 134 312 L437 312 Q443 391 410.5 427 Q378 463 306 463 Z " />
<glyph glyph-name="eacute" unicode="&#xe9;" horiz-adv-x="553" d="M468 760 L347 613 L281 613 L360 760 L468 760 Z M123 211 Q123 139 157.5 99.5 Q192 60 267 60 Q322 60 359 83 Q396 106 411 151 L494 151 Q482 111 459.5 80.5 Q437 50 407 30.5 Q377 11 340.5 1 Q304 -9 264 -9 Q211 -9 169 7.5 Q127 24 98 54 Q69 84 53.5 125 Q38 166 38 215 Q38 284 59 342 Q80 400 117 442 Q154 484 203.5 507.5 Q253 531 311 531 Q364 531 406.5 514.5 Q449 498 476.5 464.5 Q504 431 514.5 381 Q525 331 514 264 L511 245 L124 245 Q123 237 123 228.5 Q123 220 123 211 Z M306 463 Q278 463 251.5 454.5 Q225 446 202 427.5 Q179 409 161.5 380.5 Q144 352 134 312 L437 312 Q443 391 410.5 427 Q378 463 306 463 Z " />
<glyph glyph-name="ecircumflex" unicode="&#xea;" horiz-adv-x="553" d="M373 757 L459 613 L401 613 L327 688 L231 613 L169 613 L298 757 L373 757 Z M123 211 Q123 139 157.5 99.5 Q192 60 267 60 Q322 60 359 83 Q396 106 411 151 L494 151 Q482 111 459.5 80.5 Q437 50 407 30.5 Q377 11 340.5 1 Q304 -9 264 -9 Q211 -9 169 7.5 Q127 24 98 54 Q69 84 53.5 125 Q38 166 38 215 Q38 284 59 342 Q80 400 117 442 Q154 484 203.5 507.5 Q253 531 311 531 Q364 531 406.5 514.5 Q449 498 476.5 464.5 Q504 431 514.5 381 Q525 331 514 264 L511 245 L124 245 Q123 237 123 228.5 Q123 220 123 211 Z M306 463 Q278 463 251.5 454.5 Q225 446 202 427.5 Q179 409 161.5 380.5 Q144 352 134 312 L437 312 Q443 391 410.5 427 Q378 463 306 463 Z " />
<glyph glyph-name="edieresis" unicode="&#xeb;" horiz-adv-x="553" d="M241 634 Q219 634 203.5 649 Q188 664 188 686 Q188 708 204 724 Q220 740 242 740 Q264 740 279 725 Q294 710 294 688 Q294 666 278.5 650 Q263 634 241 634 Z M429 634 Q407 634 391.5 649 Q376 664 376 686 Q376 708 392 724 Q408 740 430 740 Q452 740 467 725 Q482 710 482 688 Q482 666 466.5 650 Q451 634 429 634 Z M123 211 Q123 139 157.5 99.5 Q192 60 267 60 Q322 60 359 83 Q396 106 411 151 L494 151 Q482 111 459.5 80.5 Q437 50 407 30.5 Q377 11 340.5 1 Q304 -9 264 -9 Q211 -9 169 7.5 Q127 24 98 54 Q69 84 53.5 125 Q38 166 38 215 Q38 284 59 342 Q80 400 117 442 Q154 484 203.5 507.5 Q253 531 311 531 Q364 531 406.5 514.5 Q449 498 476.5 464.5 Q504 431 514.5 381 Q525 331 514 264 L511 245 L124 245 Q123 237 123 228.5 Q123 220 123 211 Z M306 463 Q278 463 251.5 454.5 Q225 446 202 427.5 Q179 409 161.5 380.5 Q144 352 134 312 L437 312 Q443 391 410.5 427 Q378 463 306 463 Z " />
<glyph glyph-name="igrave" unicode="&#xec;" horiz-adv-x="255" d="M167 760 L214 613 L153 613 L65 760 L167 760 Z M210 523 L127 0 L44 0 L127 523 L210 523 Z " />
<glyph glyph-name="iacute" unicode="&#xed;" horiz-adv-x="255" d="M327 760 L206 613 L140 613 L219 760 L327 760 Z M210 523 L127 0 L44 0 L127 523 L210 523 Z " />
<glyph glyph-name="icircumflex" unicode="&#xee;" horiz-adv-x="255" d="M232 757 L318 613 L260 613 L186 688 L90 613 L28 613 L157 757 L232 757 Z M210 523 L127 0 L44 0 L127 523 L210 523 Z " />
<glyph glyph-name="idieresis" unicode="&#xef;" horiz-adv-x="255" d="M105 634 Q83 634 67.5 649 Q52 664 52 686 Q52 708 68 724 Q84 740 106 740 Q128 740 143 725 Q158 710 158 688 Q158 666 142.5 650 Q127 634 105 634 Z M283 634 Q261 634 245.5 649 Q230 664 230 686 Q230 708 246 724 Q262 740 284 740 Q306 740 321 725 Q336 710 336 688 Q336 666 320.5 650 Q305 634 283 634 Z M210 523 L127 0 L44 0 L127 523 L210 523 Z " />
<glyph glyph-name="eth" unicode="&#xf0;" horiz-adv-x="592" d="M310 678 Q284 704 255.5 727 Q227 750 195 773 L301 773 Q338 751 378 714 L471 765 L497 719 L415 675 Q443 643 467.5 605 Q492 567 510.5 523.5 Q529 480 539.5 431.5 Q550 383 550 330 Q550 258 531.5 196.5 Q513 135 477 89 Q441 43 388.5 17 Q336 -9 268 -9 Q217 -9 175 7.5 Q133 24 102.5 55 Q72 86 55 129 Q38 172 38 225 Q38 283 57 338 Q76 393 111 436 Q146 479 195 505.5 Q244 532 304 532 Q353 532 390.5 513 Q428 494 454 452 Q414 559 347 638 L227 574 L201 619 L310 678 Z M124 222 Q124 190 132 161 Q140 132 157.5 109.5 Q175 87 203 73.5 Q231 60 270 60 Q316 60 352 79.5 Q388 99 412.5 131.5 Q437 164 450 207.5 Q463 251 463 299 Q463 331 455 360.5 Q447 390 429 412.5 Q411 435 382.5 449 Q354 463 313 463 Q268 463 232.5 443 Q197 423 173 390 Q149 357 136.5 313.5 Q124 270 124 222 Z " />
<glyph glyph-name="ntilde" unicode="&#xf1;" horiz-adv-x="592" d="M409 619 Q391 619 375.5 625.5 Q360 632 346.5 640.5 Q333 649 321 655.5 Q309 662 298 662 Q284 662 270.5 650 Q257 638 252 617 L192 617 Q203 672 231.5 702.5 Q260 733 299 733 Q316 733 331.5 726.5 Q347 720 360.5 711.5 Q374 703 386 696.5 Q398 690 409 690 Q423 690 436 702 Q449 714 454 735 L514 735 Q503 680 475 649.5 Q447 619 409 619 Z M100 367 Q108 421 110.5 455.5 Q113 490 114 523 L192 523 Q192 501 190.5 473 Q189 445 186 419 Q213 467 259 499.5 Q305 532 369 532 Q410 532 442.5 520 Q475 508 495.5 482 Q516 456 523 414 Q530 372 521 313 L471 0 L388 0 L441 332 Q462 461 351 461 Q318 461 288.5 450.5 Q259 440 235.5 419.5 Q212 399 195.5 370 Q179 341 173 304 L125 0 L42 0 L100 367 Z " />
<glyph glyph-name="ograve" unicode="&#xf2;" horiz-adv-x="589" d="M321 760 L368 613 L307 613 L219 760 L321 760 Z M271 -8 Q217 -8 173.5 9.5 Q130 27 100 58 Q70 89 54 131.5 Q38 174 38 224 Q38 290 59.5 346 Q81 402 118.5 443 Q156 484 206.5 507.5 Q257 531 316 531 Q370 531 413.5 514 Q457 497 487.5 466.5 Q518 436 534 394 Q550 352 550 301 Q550 234 529.5 177.5 Q509 121 472 80 Q435 39 384 15.5 Q333 -8 271 -8 Z M275 60 Q319 60 354 78 Q389 96 413 128.5 Q437 161 450 204.5 Q463 248 463 299 Q463 374 424.5 418.5 Q386 463 311 463 Q269 463 234.5 445 Q200 427 175.5 394.5 Q151 362 137.5 318.5 Q124 275 124 224 Q124 149 161 104.5 Q198 60 275 60 Z " />
<glyph glyph-name="oacute" unicode="&#xf3;" horiz-adv-x="589" d="M481 760 L360 613 L294 613 L373 760 L481 760 Z M271 -8 Q217 -8 173.5 9.5 Q130 27 100 58 Q70 89 54 131.5 Q38 174 38 224 Q38 290 59.5 346 Q81 402 118.5 443 Q156 484 206.5 507.5 Q257 531 316 531 Q370 531 413.5 514 Q457 497 487.5 466.5 Q518 436 534 394 Q550 352 550 301 Q550 234 529.5 177.5 Q509 121 472 80 Q435 39 384 15.5 Q333 -8 271 -8 Z M275 60 Q319 60 354 78 Q389 96 413 128.5 Q437 161 450 204.5 Q463 248 463 299 Q463 374 424.5 418.5 Q386 463 311 463 Q269 463 234.5 445 Q200 427 175.5 394.5 Q151 362 137.5 318.5 Q124 275 124 224 Q124 149 161 104.5 Q198 60 275 60 Z " />
<glyph glyph-name="ocircumflex" unicode="&#xf4;" horiz-adv-x="589" d="M386 757 L472 613 L414 613 L340 688 L244 613 L182 613 L311 757 L386 757 Z M271 -8 Q217 -8 173.5 9.5 Q130 27 100 58 Q70 89 54 131.5 Q38 174 38 224 Q38 290 59.5 346 Q81 402 118.5 443 Q156 484 206.5 507.5 Q257 531 316 531 Q370 531 413.5 514 Q457 497 487.5 466.5 Q518 436 534 394 Q550 352 550 301 Q550 234 529.5 177.5 Q509 121 472 80 Q435 39 384 15.5 Q333 -8 271 -8 Z M275 60 Q319 60 354 78 Q389 96 413 128.5 Q437 161 450 204.5 Q463 248 463 299 Q463 374 424.5 418.5 Q386 463 311 463 Q269 463 234.5 445 Q200 427 175.5 394.5 Q151 362 137.5 318.5 Q124 275 124 224 Q124 149 161 104.5 Q198 60 275 60 Z " />
<glyph glyph-name="otilde" unicode="&#xf5;" horiz-adv-x="589" d="M396 619 Q378 619 362.5 625.5 Q347 632 333.5 640.5 Q320 649 308 655.5 Q296 662 285 662 Q271 662 257.5 650 Q244 638 239 617 L179 617 Q190 672 218.5 702.5 Q247 733 286 733 Q303 733 318.5 726.5 Q334 720 347.5 711.5 Q361 703 373 696.5 Q385 690 396 690 Q410 690 423 702 Q436 714 441 735 L501 735 Q490 680 462 649.5 Q434 619 396 619 Z M271 -8 Q217 -8 173.5 9.5 Q130 27 100 58 Q70 89 54 131.5 Q38 174 38 224 Q38 290 59.5 346 Q81 402 118.5 443 Q156 484 206.5 507.5 Q257 531 316 531 Q370 531 413.5 514 Q457 497 487.5 466.5 Q518 436 534 394 Q550 352 550 301 Q550 234 529.5 177.5 Q509 121 472 80 Q435 39 384 15.5 Q333 -8 271 -8 Z M275 60 Q319 60 354 78 Q389 96 413 128.5 Q437 161 450 204.5 Q463 248 463 299 Q463 374 424.5 418.5 Q386 463 311 463 Q269 463 234.5 445 Q200 427 175.5 394.5 Q151 362 137.5 318.5 Q124 275 124 224 Q124 149 161 104.5 Q198 60 275 60 Z " />
<glyph glyph-name="odieresis" unicode="&#xf6;" horiz-adv-x="589" d="M246 634 Q224 634 208.5 649 Q193 664 193 686 Q193 708 209 724 Q225 740 247 740 Q269 740 284 725 Q299 710 299 688 Q299 666 283.5 650 Q268 634 246 634 Z M434 634 Q412 634 396.5 649 Q381 664 381 686 Q381 708 397 724 Q413 740 435 740 Q457 740 472 725 Q487 710 487 688 Q487 666 471.5 650 Q456 634 434 634 Z M271 -8 Q217 -8 173.5 9.5 Q130 27 100 58 Q70 89 54 131.5 Q38 174 38 224 Q38 290 59.5 346 Q81 402 118.5 443 Q156 484 206.5 507.5 Q257 531 316 531 Q370 531 413.5 514 Q457 497 487.5 466.5 Q518 436 534 394 Q550 352 550 301 Q550 234 529.5 177.5 Q509 121 472 80 Q435 39 384 15.5 Q333 -8 271 -8 Z M275 60 Q319 60 354 78 Q389 96 413 128.5 Q437 161 450 204.5 Q463 248 463 299 Q463 374 424.5 418.5 Q386 463 311 463 Q269 463 234.5 445 Q200 427 175.5 394.5 Q151 362 137.5 318.5 Q124 275 124 224 Q124 149 161 104.5 Q198 60 275 60 Z " />
<glyph glyph-name="divide" unicode="&#xf7;" horiz-adv-x="519" d="M295 467 Q269 467 250 485.5 Q231 504 231 531 Q231 558 250 576.5 Q269 595 295 595 Q321 595 340 576.5 Q359 558 359 531 Q359 504 340 485.5 Q321 467 295 467 Z M500 377 L489 307 L42 307 L53 377 L500 377 Z M247 89 Q221 89 202 107.5 Q183 126 183 153 Q183 180 202 198.5 Q221 217 247 217 Q273 217 292 198.5 Q311 180 311 153 Q311 126 292 107.5 Q273 89 247 89 Z " />
<glyph glyph-name="oslash" unicode="&#xf8;" horiz-adv-x="589" d="M83 78 Q38 139 38 224 Q38 290 59.5 346 Q81 402 118.5 443 Q156 484 206.5 507.5 Q257 531 316 531 Q361 531 398.5 519 Q436 507 465 484 L532 556 L573 518 L504 445 Q550 387 550 301 Q550 234 529.5 177.5 Q509 121 472 80 Q435 39 384 15.5 Q333 -8 271 -8 Q226 -8 188.5 4 Q151 16 122 39 L51 -37 L11 1 L83 78 Z M124 224 Q124 199 127.5 177.5 Q131 156 139 137 L414 430 Q376 463 311 463 Q269 463 234.5 445 Q200 427 175.5 394.5 Q151 362 137.5 318.5 Q124 275 124 224 Z M275 60 Q319 60 354 78 Q389 96 413 128.5 Q437 161 450 204.5 Q463 248 463 299 Q463 349 447 384 L172 91 Q209 60 275 60 Z " />
<glyph glyph-name="ugrave" unicode="&#xf9;" horiz-adv-x="588" d="M333 760 L380 613 L319 613 L231 760 L333 760 Z M487 156 Q479 102 476.5 67 Q474 32 476 0 L397 0 Q395 23 396.5 50.5 Q398 78 402 104 Q374 56 329 23.5 Q284 -9 220 -9 Q179 -9 147 4 Q115 17 95 43.5 Q75 70 68 111.5 Q61 153 70 210 L120 523 L203 523 L150 191 Q140 129 162 95.5 Q184 62 238 62 Q304 62 353 103 Q402 144 414 219 L462 523 L545 523 L487 156 Z " />
<glyph glyph-name="uacute" unicode="&#xfa;" horiz-adv-x="588" d="M487 760 L366 613 L300 613 L379 760 L487 760 Z M487 156 Q479 102 476.5 67 Q474 32 476 0 L397 0 Q395 23 396.5 50.5 Q398 78 402 104 Q374 56 329 23.5 Q284 -9 220 -9 Q179 -9 147 4 Q115 17 95 43.5 Q75 70 68 111.5 Q61 153 70 210 L120 523 L203 523 L150 191 Q140 129 162 95.5 Q184 62 238 62 Q304 62 353 103 Q402 144 414 219 L462 523 L545 523 L487 156 Z " />
<glyph glyph-name="ucircumflex" unicode="&#xfb;" horiz-adv-x="588" d="M398 757 L484 613 L426 613 L352 688 L256 613 L194 613 L323 757 L398 757 Z M487 156 Q479 102 476.5 67 Q474 32 476 0 L397 0 Q395 23 396.5 50.5 Q398 78 402 104 Q374 56 329 23.5 Q284 -9 220 -9 Q179 -9 147 4 Q115 17 95 43.5 Q75 70 68 111.5 Q61 153 70 210 L120 523 L203 523 L150 191 Q140 129 162 95.5 Q184 62 238 62 Q304 62 353 103 Q402 144 414 219 L462 523 L545 523 L487 156 Z " />
<glyph glyph-name="udieresis" unicode="&#xfc;" horiz-adv-x="588" d="M256 634 Q234 634 218.5 649 Q203 664 203 686 Q203 708 219 724 Q235 740 257 740 Q279 740 294 725 Q309 710 309 688 Q309 666 293.5 650 Q278 634 256 634 Z M444 634 Q422 634 406.5 649 Q391 664 391 686 Q391 708 407 724 Q423 740 445 740 Q467 740 482 725 Q497 710 497 688 Q497 666 481.5 650 Q466 634 444 634 Z M487 156 Q479 102 476.5 67 Q474 32 476 0 L397 0 Q395 23 396.5 50.5 Q398 78 402 104 Q374 56 329 23.5 Q284 -9 220 -9 Q179 -9 147 4 Q115 17 95 43.5 Q75 70 68 111.5 Q61 153 70 210 L120 523 L203 523 L150 191 Q140 129 162 95.5 Q184 62 238 62 Q304 62 353 103 Q402 144 414 219 L462 523 L545 523 L487 156 Z " />
<glyph glyph-name="yacute" unicode="&#xfd;" horiz-adv-x="505" d="M450 760 L329 613 L263 613 L342 760 L450 760 Z M60 523 L145 523 L239 148 L438 523 L527 523 L132 -182 L44 -182 L184 59 L60 523 Z " />
<glyph glyph-name="thorn" unicode="&#xfe;" horiz-adv-x="631" d="M247 773 L193 431 Q219 475 268.5 503.5 Q318 532 376 532 Q422 532 460.5 516 Q499 500 527 470 Q555 440 570.5 397.5 Q586 355 586 302 Q586 239 568.5 182.5 Q551 126 517 83.5 Q483 41 435 16 Q387 -9 325 -9 Q285 -9 254.5 0.5 Q224 10 201.5 25.5 Q179 41 164.5 60 Q150 79 141 98 L96 -182 L13 -182 L164 773 L247 773 Z M320 59 Q363 59 396 77 Q429 95 451.5 127 Q474 159 486 202.5 Q498 246 498 297 Q498 378 461 421 Q424 464 360 464 Q318 464 281 447.5 Q244 431 217 399.5 Q190 368 174.5 323 Q159 278 159 222 Q159 146 202 102.5 Q245 59 320 59 Z " />
<glyph glyph-name="ydieresis" unicode="&#xff;" horiz-adv-x="505" d="M223 634 Q201 634 185.5 649 Q170 664 170 686 Q170 708 186 724 Q202 740 224 740 Q246 740 261 725 Q276 710 276 688 Q276 666 260.5 650 Q245 634 223 634 Z M411 634 Q389 634 373.5 649 Q358 664 358 686 Q358 708 374 724 Q390 740 412 740 Q434 740 449 725 Q464 710 464 688 Q464 666 448.5 650 Q433 634 411 634 Z M60 523 L145 523 L239 148 L438 523 L527 523 L132 -182 L44 -182 L184 59 L60 523 Z " />
<glyph glyph-name="Amacron" unicode="&#x100;" horiz-adv-x="650" d="M549 850 L539 786 L273 786 L283 850 L549 850 Z M168 206 L66 0 L-18 0 L341 715 L455 715 L584 0 L500 0 L463 206 L168 206 Z M450 275 L384 643 L202 275 L450 275 Z " />
<glyph glyph-name="amacron" unicode="&#x101;" horiz-adv-x="538" d="M458 712 L448 648 L186 648 L196 712 L458 712 Z M197 -8 Q116 -8 72 32.5 Q28 73 28 140 Q28 188 48.5 220.5 Q69 253 103.5 272 Q138 291 184.5 299 Q231 307 282 307 L383 307 L389 345 Q399 405 376.5 434 Q354 463 291 463 Q240 463 208.5 440.5 Q177 418 166 369 L83 369 Q92 416 114.5 447.5 Q137 479 166 497.5 Q195 516 229 524 Q263 532 294 532 Q338 532 374 521.5 Q410 511 434.5 488 Q459 465 469 428 Q479 391 471 338 L442 156 Q434 105 431.5 69 Q429 33 433 0 L355 0 Q353 21 352.5 43.5 Q352 66 354 83 Q326 38 285.5 15 Q245 -8 197 -8 Z M208 57 Q267 57 310 89.5 Q353 122 364 191 L373 248 L284 248 Q196 248 153 224 Q110 200 110 140 Q110 105 133.5 81 Q157 57 208 57 Z " />
<glyph glyph-name="Abreve" unicode="&#x102;" horiz-adv-x="650" d="M406 767 Q350 767 313 803 Q276 839 276 899 L342 899 Q350 835 407 835 Q468 835 480 899 L544 899 Q542 870 530 845.5 Q518 821 499 803.5 Q480 786 456 776.5 Q432 767 406 767 Z M168 206 L66 0 L-18 0 L341 715 L455 715 L584 0 L500 0 L463 206 L168 206 Z M450 275 L384 643 L202 275 L450 275 Z " />
<glyph glyph-name="abreve" unicode="&#x103;" horiz-adv-x="538" d="M313 592 Q257 592 220 628 Q183 664 183 724 L249 724 Q257 660 314 660 Q375 660 387 724 L451 724 Q449 695 437 670.5 Q425 646 406 628.5 Q387 611 363 601.5 Q339 592 313 592 Z M197 -8 Q116 -8 72 32.5 Q28 73 28 140 Q28 188 48.5 220.5 Q69 253 103.5 272 Q138 291 184.5 299 Q231 307 282 307 L383 307 L389 345 Q399 405 376.5 434 Q354 463 291 463 Q240 463 208.5 440.5 Q177 418 166 369 L83 369 Q92 416 114.5 447.5 Q137 479 166 497.5 Q195 516 229 524 Q263 532 294 532 Q338 532 374 521.5 Q410 511 434.5 488 Q459 465 469 428 Q479 391 471 338 L442 156 Q434 105 431.5 69 Q429 33 433 0 L355 0 Q353 21 352.5 43.5 Q352 66 354 83 Q326 38 285.5 15 Q245 -8 197 -8 Z M208 57 Q267 57 310 89.5 Q353 122 364 191 L373 248 L284 248 Q196 248 153 224 Q110 200 110 140 Q110 105 133.5 81 Q157 57 208 57 Z " />
<glyph glyph-name="Aogonek" unicode="&#x104;" horiz-adv-x="650" d="M418 -101 Q418 -66 444 -41.5 Q470 -17 500 -2 L463 206 L168 206 L66 0 L-18 0 L341 715 L455 715 L584 0 Q572 -7 557 -15.5 Q542 -24 529.5 -35 Q517 -46 508 -60 Q499 -74 499 -91 Q499 -122 536 -122 Q561 -122 584 -112 L575 -171 Q565 -175 551 -178.5 Q537 -182 517 -182 Q477 -182 447 -163.5 Q417 -145 418 -101 Z M450 275 L384 643 L202 275 L450 275 Z " />
<glyph glyph-name="aogonek" unicode="&#x105;" horiz-adv-x="538" d="M370 -182 Q330 -182 300 -163.5 Q270 -145 271 -101 Q271 -83 278.5 -68 Q286 -53 298 -40 Q310 -27 325 -17.5 Q340 -8 355 0 Q353 21 352.5 43.5 Q352 66 354 83 Q326 38 285.5 15 Q245 -8 197 -8 Q116 -8 72 32.5 Q28 73 28 140 Q28 188 48.5 220.5 Q69 253 103.5 272 Q138 291 184.5 299 Q231 307 282 307 L383 307 L389 345 Q399 405 376.5 434 Q354 463 291 463 Q240 463 208.5 440.5 Q177 418 166 369 L83 369 Q92 416 114.5 447.5 Q137 479 166 497.5 Q195 516 229 524 Q263 532 294 532 Q338 532 374 521.5 Q410 511 434.5 488 Q459 465 469 428 Q479 391 471 338 L442 156 Q434 105 431.5 69 Q429 33 433 0 Q422 -7 408 -15.5 Q394 -24 381.5 -35 Q369 -46 360.5 -60 Q352 -74 352 -91 Q352 -122 389 -122 Q414 -122 437 -112 L428 -171 Q418 -175 404 -178.5 Q390 -182 370 -182 Z M208 57 Q267 57 310 89.5 Q353 122 364 191 L373 248 L284 248 Q196 248 153 224 Q110 200 110 140 Q110 105 133.5 81 Q157 57 208 57 Z " />
<glyph glyph-name="Cacute" unicode="&#x106;" horiz-adv-x="728" d="M595 898 L487 771 L421 771 L489 898 L595 898 Z M386 -9 Q312 -9 253 13 Q194 35 153 76 Q112 117 90 175 Q68 233 68 304 Q68 392 96 469 Q124 546 174 603 Q224 660 294 693 Q364 726 448 726 Q502 726 549 711 Q596 696 631.5 666.5 Q667 637 688.5 593.5 Q710 550 714 492 L632 492 Q619 573 574.5 615 Q530 657 444 657 Q377 657 323.5 629.5 Q270 602 233.5 554.5 Q197 507 177.5 442.5 Q158 378 158 304 Q158 188 215 124.5 Q272 61 387 61 Q474 61 530 109.5 Q586 158 611 237 L694 237 Q680 180 651 134.5 Q622 89 582 57 Q542 25 492.5 8 Q443 -9 386 -9 Z " />
<glyph glyph-name="cacute" unicode="&#x107;" horiz-adv-x="554" d="M471 760 L350 613 L284 613 L363 760 L471 760 Z M283 -8 Q224 -8 178.5 9.5 Q133 27 102 58.5 Q71 90 55 134 Q39 178 39 230 Q39 302 61.5 358.5 Q84 415 121.5 453 Q159 491 208 511 Q257 531 310 531 Q353 531 390.5 520 Q428 509 456.5 486.5 Q485 464 502 429.5 Q519 395 522 347 L443 347 Q439 381 427.5 403 Q416 425 398 438 Q380 451 356.5 456.5 Q333 462 306 462 Q267 462 233.5 447 Q200 432 176 402.5 Q152 373 138 330 Q124 287 124 230 Q124 147 164 103.5 Q204 60 285 60 Q340 60 382.5 92.5 Q425 125 436 186 L514 186 Q506 140 485 103.5 Q464 67 433.5 42.5 Q403 18 365 5 Q327 -8 283 -8 Z " />
<glyph glyph-name="Ccircumflex" unicode="&#x108;" horiz-adv-x="728" d="M509 898 L600 771 L542 771 L465 829 L372 771 L310 771 L434 898 L509 898 Z M386 -9 Q312 -9 253 13 Q194 35 153 76 Q112 117 90 175 Q68 233 68 304 Q68 392 96 469 Q124 546 174 603 Q224 660 294 693 Q364 726 448 726 Q502 726 549 711 Q596 696 631.5 666.5 Q667 637 688.5 593.5 Q710 550 714 492 L632 492 Q619 573 574.5 615 Q530 657 444 657 Q377 657 323.5 629.5 Q270 602 233.5 554.5 Q197 507 177.5 442.5 Q158 378 158 304 Q158 188 215 124.5 Q272 61 387 61 Q474 61 530 109.5 Q586 158 611 237 L694 237 Q680 180 651 134.5 Q622 89 582 57 Q542 25 492.5 8 Q443 -9 386 -9 Z " />
<glyph glyph-name="ccircumflex" unicode="&#x109;" horiz-adv-x="554" d="M376 757 L462 613 L404 613 L330 688 L234 613 L172 613 L301 757 L376 757 Z M283 -8 Q224 -8 178.5 9.5 Q133 27 102 58.5 Q71 90 55 134 Q39 178 39 230 Q39 302 61.5 358.5 Q84 415 121.5 453 Q159 491 208 511 Q257 531 310 531 Q353 531 390.5 520 Q428 509 456.5 486.5 Q485 464 502 429.5 Q519 395 522 347 L443 347 Q439 381 427.5 403 Q416 425 398 438 Q380 451 356.5 456.5 Q333 462 306 462 Q267 462 233.5 447 Q200 432 176 402.5 Q152 373 138 330 Q124 287 124 230 Q124 147 164 103.5 Q204 60 285 60 Q340 60 382.5 92.5 Q425 125 436 186 L514 186 Q506 140 485 103.5 Q464 67 433.5 42.5 Q403 18 365 5 Q327 -8 283 -8 Z " />
<glyph glyph-name="Cdotaccent" unicode="&#x10a;" horiz-adv-x="728" d="M463 787 Q440 787 424 802.5 Q408 818 408 841 Q408 864 424.5 880.5 Q441 897 464 897 Q487 897 502.5 881.5 Q518 866 518 843 Q518 820 502 803.5 Q486 787 463 787 Z M386 -9 Q312 -9 253 13 Q194 35 153 76 Q112 117 90 175 Q68 233 68 304 Q68 392 96 469 Q124 546 174 603 Q224 660 294 693 Q364 726 448 726 Q502 726 549 711 Q596 696 631.5 666.5 Q667 637 688.5 593.5 Q710 550 714 492 L632 492 Q619 573 574.5 615 Q530 657 444 657 Q377 657 323.5 629.5 Q270 602 233.5 554.5 Q197 507 177.5 442.5 Q158 378 158 304 Q158 188 215 124.5 Q272 61 387 61 Q474 61 530 109.5 Q586 158 611 237 L694 237 Q680 180 651 134.5 Q622 89 582 57 Q542 25 492.5 8 Q443 -9 386 -9 Z " />
<glyph glyph-name="cdotaccent" unicode="&#x10b;" horiz-adv-x="554" d="M340 632 Q317 632 301 647.5 Q285 663 285 686 Q285 709 301.5 725.5 Q318 742 341 742 Q364 742 379.5 726.5 Q395 711 395 688 Q395 665 379 648.5 Q363 632 340 632 Z M283 -8 Q224 -8 178.5 9.5 Q133 27 102 58.5 Q71 90 55 134 Q39 178 39 230 Q39 302 61.5 358.5 Q84 415 121.5 453 Q159 491 208 511 Q257 531 310 531 Q353 531 390.5 520 Q428 509 456.5 486.5 Q485 464 502 429.5 Q519 395 522 347 L443 347 Q439 381 427.5 403 Q416 425 398 438 Q380 451 356.5 456.5 Q333 462 306 462 Q267 462 233.5 447 Q200 432 176 402.5 Q152 373 138 330 Q124 287 124 230 Q124 147 164 103.5 Q204 60 285 60 Q340 60 382.5 92.5 Q425 125 436 186 L514 186 Q506 140 485 103.5 Q464 67 433.5 42.5 Q403 18 365 5 Q327 -8 283 -8 Z " />
<glyph glyph-name="Ccaron" unicode="&#x10c;" horiz-adv-x="728" d="M412 771 L321 898 L379 898 L456 840 L549 898 L611 898 L487 771 L412 771 Z M386 -9 Q312 -9 253 13 Q194 35 153 76 Q112 117 90 175 Q68 233 68 304 Q68 392 96 469 Q124 546 174 603 Q224 660 294 693 Q364 726 448 726 Q502 726 549 711 Q596 696 631.5 666.5 Q667 637 688.5 593.5 Q710 550 714 492 L632 492 Q619 573 574.5 615 Q530 657 444 657 Q377 657 323.5 629.5 Q270 602 233.5 554.5 Q197 507 177.5 442.5 Q158 378 158 304 Q158 188 215 124.5 Q272 61 387 61 Q474 61 530 109.5 Q586 158 611 237 L694 237 Q680 180 651 134.5 Q622 89 582 57 Q542 25 492.5 8 Q443 -9 386 -9 Z " />
<glyph glyph-name="ccaron" unicode="&#x10d;" horiz-adv-x="554" d="M280 613 L194 757 L252 757 L326 682 L422 757 L484 757 L355 613 L280 613 Z M283 -8 Q224 -8 178.5 9.5 Q133 27 102 58.5 Q71 90 55 134 Q39 178 39 230 Q39 302 61.5 358.5 Q84 415 121.5 453 Q159 491 208 511 Q257 531 310 531 Q353 531 390.5 520 Q428 509 456.5 486.5 Q485 464 502 429.5 Q519 395 522 347 L443 347 Q439 381 427.5 403 Q416 425 398 438 Q380 451 356.5 456.5 Q333 462 306 462 Q267 462 233.5 447 Q200 432 176 402.5 Q152 373 138 330 Q124 287 124 230 Q124 147 164 103.5 Q204 60 285 60 Q340 60 382.5 92.5 Q425 125 436 186 L514 186 Q506 140 485 103.5 Q464 67 433.5 42.5 Q403 18 365 5 Q327 -8 283 -8 Z " />
<glyph glyph-name="Dcaron" unicode="&#x10e;" horiz-adv-x="698" d="M341 771 L250 898 L308 898 L385 840 L478 898 L540 898 L416 771 L341 771 Z M335 715 Q424 715 487 692 Q550 669 590.5 628 Q631 587 650 531.5 Q669 476 669 410 Q669 325 642.5 250 Q616 175 563.5 119.5 Q511 64 434.5 32 Q358 0 257 0 L48 0 L161 715 L335 715 Z M254 71 Q331 71 391.5 94 Q452 117 494 160.5 Q536 204 558 267 Q580 330 580 409 Q580 460 566.5 503.5 Q553 547 523 578.5 Q493 610 446 627.5 Q399 645 331 645 L237 645 L146 71 L254 71 Z " />
<glyph glyph-name="dcaron" unicode="&#x10f;" horiz-adv-x="622" d="M261 -9 Q212 -9 171.5 7.5 Q131 24 102 54 Q73 84 56.5 126.5 Q40 169 40 222 Q40 285 58.5 341 Q77 397 112.5 439.5 Q148 482 198 507 Q248 532 311 532 Q349 532 377.5 523 Q406 514 427 499 Q448 484 462.5 465.5 Q477 447 486 428 L540 773 L623 773 L526 156 Q518 102 515.5 67 Q513 32 515 0 L436 0 Q434 23 435.5 47.5 Q437 72 440 95 Q412 48 365.5 19.5 Q319 -9 261 -9 Z M774 773 L704 598 L645 598 L683 773 L774 773 Z M271 60 Q313 60 348.5 75 Q384 90 410.5 120.5 Q437 151 452 196.5 Q467 242 467 303 Q467 378 424 420.5 Q381 463 314 463 Q270 463 235.5 445 Q201 427 177 395.5 Q153 364 140.5 320.5 Q128 277 128 226 Q128 148 165.5 104 Q203 60 271 60 Z " />
<glyph glyph-name="Dcroat" unicode="&#x110;" horiz-adv-x="718" d="M130 392 L181 715 L355 715 Q444 715 507 692 Q570 669 610.5 628 Q651 587 670 531.5 Q689 476 689 410 Q689 325 662.5 250 Q636 175 583.5 119.5 Q531 64 454.5 32 Q378 0 277 0 L68 0 L119 325 L43 325 L54 392 L130 392 Z M274 71 Q351 71 411.5 94 Q472 117 514 160.5 Q556 204 578 267 Q600 330 600 409 Q600 460 586.5 503.5 Q573 547 543 578.5 Q513 610 466 627.5 Q419 645 351 645 L257 645 L217 392 L424 392 L413 325 L206 325 L166 71 L274 71 Z " />
<glyph glyph-name="dcroat" unicode="&#x111;" horiz-adv-x="622" d="M525 676 L540 773 L623 773 L607 676 L683 676 L673 615 L598 615 L526 156 Q518 102 515.5 67 Q513 32 515 0 L436 0 Q434 23 435.5 47.5 Q437 72 440 95 Q412 48 365.5 19.5 Q319 -9 261 -9 Q212 -9 171.5 7.5 Q131 24 102 54 Q73 84 56.5 126.5 Q40 169 40 222 Q40 285 58.5 341 Q77 397 112.5 439.5 Q148 482 198 507 Q248 532 311 532 Q349 532 377.5 523 Q406 514 427 499 Q448 484 462.5 465.5 Q477 447 486 428 L515 615 L337 615 L347 676 L525 676 Z M314 463 Q270 463 235.5 445 Q201 427 177 395.5 Q153 364 140.5 320.5 Q128 277 128 226 Q128 145 165 102.5 Q202 60 271 60 Q313 60 348.5 75 Q384 90 410.5 121 Q437 152 452 198 Q467 244 467 306 Q467 382 425 422.5 Q383 463 314 463 Z " />
<glyph glyph-name="Emacron" unicode="&#x112;" horiz-adv-x="572" d="M518 850 L508 786 L242 786 L252 850 L518 850 Z M574 715 L562 644 L236 644 L198 401 L464 401 L453 330 L187 330 L146 71 L494 71 L483 0 L48 0 L161 715 L574 715 Z " />
<glyph glyph-name="emacron" unicode="&#x113;" horiz-adv-x="553" d="M470 712 L460 648 L198 648 L208 712 L470 712 Z M123 211 Q123 139 157.5 99.5 Q192 60 267 60 Q322 60 359 83 Q396 106 411 151 L494 151 Q482 111 459.5 80.5 Q437 50 407 30.5 Q377 11 340.5 1 Q304 -9 264 -9 Q211 -9 169 7.5 Q127 24 98 54 Q69 84 53.5 125 Q38 166 38 215 Q38 284 59 342 Q80 400 117 442 Q154 484 203.5 507.5 Q253 531 311 531 Q364 531 406.5 514.5 Q449 498 476.5 464.5 Q504 431 514.5 381 Q525 331 514 264 L511 245 L124 245 Q123 237 123 228.5 Q123 220 123 211 Z M306 463 Q278 463 251.5 454.5 Q225 446 202 427.5 Q179 409 161.5 380.5 Q144 352 134 312 L437 312 Q443 391 410.5 427 Q378 463 306 463 Z " />
<glyph glyph-name="Ebreve" unicode="&#x114;" horiz-adv-x="572" d="M375 767 Q319 767 282 803 Q245 839 245 899 L311 899 Q319 835 376 835 Q437 835 449 899 L513 899 Q511 870 499 845.5 Q487 821 468 803.5 Q449 786 425 776.5 Q401 767 375 767 Z M574 715 L562 644 L236 644 L198 401 L464 401 L453 330 L187 330 L146 71 L494 71 L483 0 L48 0 L161 715 L574 715 Z " />
<glyph glyph-name="ebreve" unicode="&#x115;" horiz-adv-x="553" d="M327 619 Q271 619 234 655 Q197 691 197 751 L263 751 Q271 687 328 687 Q389 687 401 751 L465 751 Q463 722 451 697.5 Q439 673 420 655.5 Q401 638 377 628.5 Q353 619 327 619 Z M123 211 Q123 139 157.5 99.5 Q192 60 267 60 Q322 60 359 83 Q396 106 411 151 L494 151 Q482 111 459.5 80.5 Q437 50 407 30.5 Q377 11 340.5 1 Q304 -9 264 -9 Q211 -9 169 7.5 Q127 24 98 54 Q69 84 53.5 125 Q38 166 38 215 Q38 284 59 342 Q80 400 117 442 Q154 484 203.5 507.5 Q253 531 311 531 Q364 531 406.5 514.5 Q449 498 476.5 464.5 Q504 431 514.5 381 Q525 331 514 264 L511 245 L124 245 Q123 237 123 228.5 Q123 220 123 211 Z M306 463 Q278 463 251.5 454.5 Q225 446 202 427.5 Q179 409 161.5 380.5 Q144 352 134 312 L437 312 Q443 391 410.5 427 Q378 463 306 463 Z " />
<glyph glyph-name="Edotaccent" unicode="&#x116;" horiz-adv-x="572" d="M379 787 Q356 787 340 802.5 Q324 818 324 841 Q324 864 340.5 880.5 Q357 897 380 897 Q403 897 418.5 881.5 Q434 866 434 843 Q434 820 418 803.5 Q402 787 379 787 Z M574 715 L562 644 L236 644 L198 401 L464 401 L453 330 L187 330 L146 71 L494 71 L483 0 L48 0 L161 715 L574 715 Z " />
<glyph glyph-name="edotaccent" unicode="&#x117;" horiz-adv-x="553" d="M337 632 Q314 632 298 647.5 Q282 663 282 686 Q282 709 298.5 725.5 Q315 742 338 742 Q361 742 376.5 726.5 Q392 711 392 688 Q392 665 376 648.5 Q360 632 337 632 Z M123 211 Q123 139 157.5 99.5 Q192 60 267 60 Q322 60 359 83 Q396 106 411 151 L494 151 Q482 111 459.5 80.5 Q437 50 407 30.5 Q377 11 340.5 1 Q304 -9 264 -9 Q211 -9 169 7.5 Q127 24 98 54 Q69 84 53.5 125 Q38 166 38 215 Q38 284 59 342 Q80 400 117 442 Q154 484 203.5 507.5 Q253 531 311 531 Q364 531 406.5 514.5 Q449 498 476.5 464.5 Q504 431 514.5 381 Q525 331 514 264 L511 245 L124 245 Q123 237 123 228.5 Q123 220 123 211 Z M306 463 Q278 463 251.5 454.5 Q225 446 202 427.5 Q179 409 161.5 380.5 Q144 352 134 312 L437 312 Q443 391 410.5 427 Q378 463 306 463 Z " />
<glyph glyph-name="Eogonek" unicode="&#x118;" horiz-adv-x="572" d="M574 715 L562 644 L236 644 L198 401 L464 401 L453 330 L187 330 L146 71 L494 71 L483 0 L452 0 Q440 -7 425.5 -15.5 Q411 -24 398.5 -35.5 Q386 -47 377 -61 Q368 -75 368 -93 Q368 -122 405 -122 Q430 -122 453 -112 L444 -171 Q434 -175 420 -178.5 Q406 -182 386 -182 Q346 -182 316 -164 Q286 -146 287 -106 Q287 -68 312.5 -42 Q338 -16 367 0 L48 0 L161 715 L574 715 Z " />
<glyph glyph-name="eogonek" unicode="&#x119;" horiz-adv-x="553" d="M316 -182 Q276 -182 246 -163.5 Q216 -145 217 -101 Q217 -69 241.5 -46 Q266 -23 294 -7 Q286 -8 279 -8.5 Q272 -9 264 -9 Q211 -9 169 7.5 Q127 24 98 54 Q69 84 53.5 125 Q38 166 38 215 Q38 284 59 342 Q80 400 117 442 Q154 484 203.5 507.5 Q253 531 311 531 Q364 531 406.5 514.5 Q449 498 476.5 464.5 Q504 431 514.5 381 Q525 331 514 264 L511 245 L124 245 Q123 237 123 228.5 Q123 220 123 211 Q123 139 157.5 99.5 Q192 60 267 60 Q322 60 359 83 Q396 106 411 151 L494 151 Q485 122 472 99 Q459 76 438 54 Q420 36 396 19 Q372 2 350.5 -15.5 Q329 -33 313.5 -51.5 Q298 -70 298 -91 Q298 -122 335 -122 Q360 -122 383 -112 L374 -171 Q364 -175 350 -178.5 Q336 -182 316 -182 Z M306 463 Q278 463 251.5 454.5 Q225 446 202 427.5 Q179 409 161.5 380.5 Q144 352 134 312 L437 312 Q443 391 410.5 427 Q378 463 306 463 Z " />
<glyph glyph-name="Ecaron" unicode="&#x11a;" horiz-adv-x="572" d="M326 771 L235 898 L293 898 L370 840 L463 898 L525 898 L401 771 L326 771 Z M574 715 L562 644 L236 644 L198 401 L464 401 L453 330 L187 330 L146 71 L494 71 L483 0 L48 0 L161 715 L574 715 Z " />
<glyph glyph-name="ecaron" unicode="&#x11b;" horiz-adv-x="553" d="M280 613 L194 757 L252 757 L326 682 L422 757 L484 757 L355 613 L280 613 Z M123 211 Q123 139 157.5 99.5 Q192 60 267 60 Q322 60 359 83 Q396 106 411 151 L494 151 Q482 111 459.5 80.5 Q437 50 407 30.5 Q377 11 340.5 1 Q304 -9 264 -9 Q211 -9 169 7.5 Q127 24 98 54 Q69 84 53.5 125 Q38 166 38 215 Q38 284 59 342 Q80 400 117 442 Q154 484 203.5 507.5 Q253 531 311 531 Q364 531 406.5 514.5 Q449 498 476.5 464.5 Q504 431 514.5 381 Q525 331 514 264 L511 245 L124 245 Q123 237 123 228.5 Q123 220 123 211 Z M306 463 Q278 463 251.5 454.5 Q225 446 202 427.5 Q179 409 161.5 380.5 Q144 352 134 312 L437 312 Q443 391 410.5 427 Q378 463 306 463 Z " />
<glyph glyph-name="Gcircumflex" unicode="&#x11c;" horiz-adv-x="770" d="M501 898 L592 771 L534 771 L457 829 L364 771 L302 771 L426 898 L501 898 Z M394 -9 Q316 -9 255.5 15.5 Q195 40 153.5 83.5 Q112 127 90.5 186 Q69 245 69 314 Q69 398 97 472.5 Q125 547 175 603 Q225 659 293.5 691.5 Q362 724 443 724 Q497 724 546 710.5 Q595 697 633 669 Q671 641 694.5 598.5 Q718 556 722 499 L636 499 Q629 579 575 617 Q521 655 441 655 Q375 655 323 628 Q271 601 234.5 555 Q198 509 178.5 447 Q159 385 159 314 Q159 257 174 210 Q189 163 218.5 130 Q248 97 292.5 79 Q337 61 396 61 Q450 61 491 78 Q532 95 561.5 125.5 Q591 156 609 198 Q627 240 635 289 L423 289 L435 361 L730 361 Q714 168 626.5 79.5 Q539 -9 394 -9 Z " />
<glyph glyph-name="gcircumflex" unicode="&#x11d;" horiz-adv-x="623" d="M400 757 L486 613 L428 613 L354 688 L258 613 L196 613 L325 757 L400 757 Z M506 26 Q489 -83 422 -136.5 Q355 -190 246 -190 Q183 -190 140 -175.5 Q97 -161 70 -138 Q43 -115 30 -86.5 Q17 -58 13 -30 L97 -30 Q105 -70 139.5 -95 Q174 -120 244 -120 Q329 -120 369.5 -81 Q410 -42 423 34 L435 107 Q406 65 363.5 42 Q321 19 263 19 Q215 19 175 35.5 Q135 52 106 81 Q77 110 61 151.5 Q45 193 45 242 Q45 301 64.5 353.5 Q84 406 119.5 446 Q155 486 203.5 509 Q252 532 309 532 Q347 532 375.5 523 Q404 514 426 499 Q448 484 462.5 465.5 Q477 447 486 428 L501 523 L584 523 L506 26 Z M272 86 Q311 86 346.5 101.5 Q382 117 408.5 146 Q435 175 451 216.5 Q467 258 467 311 Q467 347 455.5 375.5 Q444 404 423 423.5 Q402 443 373.5 453 Q345 463 312 463 Q270 463 236.5 445.5 Q203 428 180 398 Q157 368 144.5 329 Q132 290 132 246 Q132 175 167.5 130.5 Q203 86 272 86 Z " />
<glyph glyph-name="Gbreve" unicode="&#x11e;" horiz-adv-x="770" d="M455 767 Q399 767 362 803 Q325 839 325 899 L391 899 Q399 835 456 835 Q517 835 529 899 L593 899 Q591 870 579 845.5 Q567 821 548 803.5 Q529 786 505 776.5 Q481 767 455 767 Z M394 -9 Q316 -9 255.5 15.5 Q195 40 153.5 83.5 Q112 127 90.5 186 Q69 245 69 314 Q69 398 97 472.5 Q125 547 175 603 Q225 659 293.5 691.5 Q362 724 443 724 Q497 724 546 710.5 Q595 697 633 669 Q671 641 694.5 598.5 Q718 556 722 499 L636 499 Q629 579 575 617 Q521 655 441 655 Q375 655 323 628 Q271 601 234.5 555 Q198 509 178.5 447 Q159 385 159 314 Q159 257 174 210 Q189 163 218.5 130 Q248 97 292.5 79 Q337 61 396 61 Q450 61 491 78 Q532 95 561.5 125.5 Q591 156 609 198 Q627 240 635 289 L423 289 L435 361 L730 361 Q714 168 626.5 79.5 Q539 -9 394 -9 Z " />
<glyph glyph-name="gbreve" unicode="&#x11f;" horiz-adv-x="623" d="M354 619 Q298 619 261 655 Q224 691 224 751 L290 751 Q298 687 355 687 Q416 687 428 751 L492 751 Q490 722 478 697.5 Q466 673 447 655.5 Q428 638 404 628.5 Q380 619 354 619 Z M506 26 Q489 -83 422 -136.5 Q355 -190 246 -190 Q183 -190 140 -175.5 Q97 -161 70 -138 Q43 -115 30 -86.5 Q17 -58 13 -30 L97 -30 Q105 -70 139.5 -95 Q174 -120 244 -120 Q329 -120 369.5 -81 Q410 -42 423 34 L435 107 Q406 65 363.5 42 Q321 19 263 19 Q215 19 175 35.5 Q135 52 106 81 Q77 110 61 151.5 Q45 193 45 242 Q45 301 64.5 353.5 Q84 406 119.5 446 Q155 486 203.5 509 Q252 532 309 532 Q347 532 375.5 523 Q404 514 426 499 Q448 484 462.5 465.5 Q477 447 486 428 L501 523 L584 523 L506 26 Z M272 86 Q311 86 346.5 101.5 Q382 117 408.5 146 Q435 175 451 216.5 Q467 258 467 311 Q467 347 455.5 375.5 Q444 404 423 423.5 Q402 443 373.5 453 Q345 463 312 463 Q270 463 236.5 445.5 Q203 428 180 398 Q157 368 144.5 329 Q132 290 132 246 Q132 175 167.5 130.5 Q203 86 272 86 Z " />
<glyph glyph-name="Gdotaccent" unicode="&#x120;" horiz-adv-x="770" d="M457 787 Q434 787 418 802.5 Q402 818 402 841 Q402 864 418.5 880.5 Q435 897 458 897 Q481 897 496.5 881.5 Q512 866 512 843 Q512 820 496 803.5 Q480 787 457 787 Z M394 -9 Q316 -9 255.5 15.5 Q195 40 153.5 83.5 Q112 127 90.5 186 Q69 245 69 314 Q69 398 97 472.5 Q125 547 175 603 Q225 659 293.5 691.5 Q362 724 443 724 Q497 724 546 710.5 Q595 697 633 669 Q671 641 694.5 598.5 Q718 556 722 499 L636 499 Q629 579 575 617 Q521 655 441 655 Q375 655 323 628 Q271 601 234.5 555 Q198 509 178.5 447 Q159 385 159 314 Q159 257 174 210 Q189 163 218.5 130 Q248 97 292.5 79 Q337 61 396 61 Q450 61 491 78 Q532 95 561.5 125.5 Q591 156 609 198 Q627 240 635 289 L423 289 L435 361 L730 361 Q714 168 626.5 79.5 Q539 -9 394 -9 Z " />
<glyph glyph-name="gdotaccent" unicode="&#x121;" horiz-adv-x="623" d="M365 632 Q342 632 326 647.5 Q310 663 310 686 Q310 709 326.5 725.5 Q343 742 366 742 Q389 742 404.5 726.5 Q420 711 420 688 Q420 665 404 648.5 Q388 632 365 632 Z M506 26 Q489 -83 422 -136.5 Q355 -190 246 -190 Q183 -190 140 -175.5 Q97 -161 70 -138 Q43 -115 30 -86.5 Q17 -58 13 -30 L97 -30 Q105 -70 139.5 -95 Q174 -120 244 -120 Q329 -120 369.5 -81 Q410 -42 423 34 L435 107 Q406 65 363.5 42 Q321 19 263 19 Q215 19 175 35.5 Q135 52 106 81 Q77 110 61 151.5 Q45 193 45 242 Q45 301 64.5 353.5 Q84 406 119.5 446 Q155 486 203.5 509 Q252 532 309 532 Q347 532 375.5 523 Q404 514 426 499 Q448 484 462.5 465.5 Q477 447 486 428 L501 523 L584 523 L506 26 Z M272 86 Q311 86 346.5 101.5 Q382 117 408.5 146 Q435 175 451 216.5 Q467 258 467 311 Q467 347 455.5 375.5 Q444 404 423 423.5 Q402 443 373.5 453 Q345 463 312 463 Q270 463 236.5 445.5 Q203 428 180 398 Q157 368 144.5 329 Q132 290 132 246 Q132 175 167.5 130.5 Q203 86 272 86 Z " />
<glyph glyph-name="Gcommaaccent" unicode="&#x122;" horiz-adv-x="770" d="M394 -9 Q316 -9 255.5 15.5 Q195 40 153.5 83.5 Q112 127 90.5 186 Q69 245 69 314 Q69 398 97 472.5 Q125 547 175 603 Q225 659 293.5 691.5 Q362 724 443 724 Q497 724 546 710.5 Q595 697 633 669 Q671 641 694.5 598.5 Q718 556 722 499 L636 499 Q629 579 575 617 Q521 655 441 655 Q375 655 323 628 Q271 601 234.5 555 Q198 509 178.5 447 Q159 385 159 314 Q159 257 174 210 Q189 163 218.5 130 Q248 97 292.5 79 Q337 61 396 61 Q450 61 491 78 Q532 95 561.5 125.5 Q591 156 609 198 Q627 240 635 289 L423 289 L435 361 L730 361 Q714 168 626.5 79.5 Q539 -9 394 -9 Z M304 -37 L382 -61 L281 -220 L232 -194 L304 -37 Z " />
<glyph glyph-name="gcommaaccent" unicode="&#x123;" horiz-adv-x="623" d="M364 602 L286 626 L387 785 L436 759 L364 602 Z M506 26 Q489 -83 422 -136.5 Q355 -190 246 -190 Q183 -190 140 -175.5 Q97 -161 70 -138 Q43 -115 30 -86.5 Q17 -58 13 -30 L97 -30 Q105 -70 139.5 -95 Q174 -120 244 -120 Q329 -120 369.5 -81 Q410 -42 423 34 L435 107 Q406 65 363.5 42 Q321 19 263 19 Q215 19 175 35.5 Q135 52 106 81 Q77 110 61 151.5 Q45 193 45 242 Q45 301 64.5 353.5 Q84 406 119.5 446 Q155 486 203.5 509 Q252 532 309 532 Q347 532 375.5 523 Q404 514 426 499 Q448 484 462.5 465.5 Q477 447 486 428 L501 523 L584 523 L506 26 Z M272 86 Q311 86 346.5 101.5 Q382 117 408.5 146 Q435 175 451 216.5 Q467 258 467 311 Q467 347 455.5 375.5 Q444 404 423 423.5 Q402 443 373.5 453 Q345 463 312 463 Q270 463 236.5 445.5 Q203 428 180 398 Q157 368 144.5 329 Q132 290 132 246 Q132 175 167.5 130.5 Q203 86 272 86 Z " />
<glyph glyph-name="Hcircumflex" unicode="&#x124;" horiz-adv-x="730" d="M495 898 L586 771 L528 771 L451 829 L358 771 L296 771 L420 898 L495 898 Z M248 715 L196 391 L572 391 L624 715 L711 715 L598 0 L511 0 L561 318 L185 318 L135 0 L48 0 L161 715 L248 715 Z " />
<glyph glyph-name="hcircumflex" unicode="&#x125;" horiz-adv-x="592" d="M433 948 L524 821 L466 821 L389 879 L296 821 L234 821 L358 948 L433 948 Z M247 773 L193 430 Q205 449 222 467.5 Q239 486 261 500 Q283 514 310 523 Q337 532 369 532 Q410 532 442.5 520 Q475 508 495.5 482 Q516 456 523 414 Q530 372 521 313 L471 0 L388 0 L441 332 Q462 461 351 461 Q318 461 288.5 450.5 Q259 440 235.5 419.5 Q212 399 195.5 370 Q179 341 173 304 L125 0 L42 0 L164 773 L247 773 Z " />
<glyph glyph-name="Hbar" unicode="&#x126;" horiz-adv-x="730" d="M136 560 L161 715 L248 715 L223 560 L599 560 L624 715 L711 715 L686 560 L756 560 L746 493 L676 493 L598 0 L511 0 L561 318 L185 318 L135 0 L48 0 L126 493 L56 493 L66 560 L136 560 Z M588 493 L212 493 L196 391 L572 391 L588 493 Z " />
<glyph glyph-name="hbar" unicode="&#x127;" horiz-adv-x="592" d="M148 676 L164 773 L247 773 L231 676 L410 676 L400 615 L222 615 L193 430 Q205 449 222 467.5 Q239 486 261 500 Q283 514 310 523 Q337 532 369 532 Q410 532 442.5 520 Q475 508 495.5 482 Q516 456 523 414 Q530 372 521 313 L471 0 L388 0 L441 332 Q452 402 429.5 431.5 Q407 461 351 461 Q318 461 288.5 450.5 Q259 440 235.5 419.5 Q212 399 195.5 370 Q179 341 173 304 L125 0 L42 0 L139 615 L64 615 L74 676 L148 676 Z " />
<glyph glyph-name="Itilde" unicode="&#x128;" horiz-adv-x="279" d="M285 774 Q267 774 251.5 780.5 Q236 787 222.5 795.5 Q209 804 197 810.5 Q185 817 174 817 Q160 817 146.5 805 Q133 793 128 772 L68 772 Q79 827 107.5 857.5 Q136 888 175 888 Q192 888 207.5 881.5 Q223 875 236.5 866.5 Q250 858 262 851.5 Q274 845 285 845 Q299 845 312 857 Q325 869 330 890 L390 890 Q379 835 351 804.5 Q323 774 285 774 Z M253 715 L140 0 L53 0 L166 715 L253 715 Z " />
<glyph glyph-name="itilde" unicode="&#x129;" horiz-adv-x="255" d="M247 619 Q229 619 213.5 625.5 Q198 632 184.5 640.5 Q171 649 159 655.5 Q147 662 136 662 Q122 662 108.5 650 Q95 638 90 617 L30 617 Q41 672 69.5 702.5 Q98 733 137 733 Q154 733 169.5 726.5 Q185 720 198.5 711.5 Q212 703 224 696.5 Q236 690 247 690 Q261 690 274 702 Q287 714 292 735 L352 735 Q341 680 313 649.5 Q285 619 247 619 Z M210 523 L127 0 L44 0 L127 523 L210 523 Z " />
<glyph glyph-name="Imacron" unicode="&#x12a;" horiz-adv-x="279" d="M364 850 L354 786 L88 786 L98 850 L364 850 Z M253 715 L140 0 L53 0 L166 715 L253 715 Z " />
<glyph glyph-name="imacron" unicode="&#x12b;" horiz-adv-x="255" d="M295 712 L285 648 L91 648 L101 712 L295 712 Z M210 523 L127 0 L44 0 L127 523 L210 523 Z " />
<glyph glyph-name="Ibreve" unicode="&#x12c;" horiz-adv-x="279" d="M221 767 Q165 767 128 803 Q91 839 91 899 L157 899 Q165 835 222 835 Q283 835 295 899 L359 899 Q357 870 345 845.5 Q333 821 314 803.5 Q295 786 271 776.5 Q247 767 221 767 Z M253 715 L140 0 L53 0 L166 715 L253 715 Z " />
<glyph glyph-name="ibreve" unicode="&#x12d;" horiz-adv-x="255" d="M186 619 Q130 619 93 655 Q56 691 56 751 L122 751 Q130 687 187 687 Q248 687 260 751 L324 751 Q322 722 310 697.5 Q298 673 279 655.5 Q260 638 236 628.5 Q212 619 186 619 Z M210 523 L127 0 L44 0 L127 523 L210 523 Z " />
<glyph glyph-name="Iogonek" unicode="&#x12e;" horiz-adv-x="279" d="M71 -182 Q31 -182 1 -163.5 Q-29 -145 -28 -101 Q-28 -66 -2.5 -42 Q23 -18 52 -3 L166 715 L253 715 L141 6 Q128 -2 112.5 -12.5 Q97 -23 84 -35.5 Q71 -48 62 -62 Q53 -76 53 -91 Q53 -122 90 -122 Q115 -122 138 -112 L129 -171 Q119 -175 105 -178.5 Q91 -182 71 -182 Z " />
<glyph glyph-name="iogonek" unicode="&#x12f;" horiz-adv-x="255" d="M192 632 Q169 632 153 647.5 Q137 663 137 686 Q137 709 153.5 725.5 Q170 742 193 742 Q216 742 231.5 726.5 Q247 711 247 688 Q247 665 231 648.5 Q215 632 192 632 Z M210 523 L128 6 Q115 -2 100 -12 Q85 -22 72 -33.5 Q59 -45 50.5 -59.5 Q42 -74 42 -91 Q42 -122 77 -122 Q102 -122 125 -112 L116 -171 Q106 -175 92 -178.5 Q78 -182 58 -182 Q39 -182 21.5 -177.5 Q4 -173 -9.5 -163.5 Q-23 -154 -31 -138.5 Q-39 -123 -39 -101 Q-39 -83 -31.5 -67.5 Q-24 -52 -12 -39.5 Q0 -27 15 -17 Q30 -7 44 0 L127 523 L210 523 Z " />
<glyph glyph-name="Idotaccent" unicode="&#x130;" horiz-adv-x="279" d="M225 787 Q202 787 186 802.5 Q170 818 170 841 Q170 864 186.5 880.5 Q203 897 226 897 Q249 897 264.5 881.5 Q280 866 280 843 Q280 820 264 803.5 Q248 787 225 787 Z M253 715 L140 0 L53 0 L166 715 L253 715 Z " />
<glyph glyph-name="dotlessi" unicode="&#x131;" horiz-adv-x="255" d="M210 523 L127 0 L44 0 L127 523 L210 523 Z " />
<glyph glyph-name="IJ" unicode="&#x132;" horiz-adv-x="657" d="M211 715 L98 0 L11 0 L124 715 L211 715 Z M308 -9 Q257 -9 232 0 Q207 9 193 17 L204 87 Q223 78 246.5 70 Q270 62 305 62 Q359 62 390 92 Q421 122 432 188 L515 715 L602 715 L517 180 Q501 80 444 35.5 Q387 -9 308 -9 Z " />
<glyph glyph-name="ij" unicode="&#x133;" horiz-adv-x="510" d="M192 632 Q169 632 153 647.5 Q137 663 137 686 Q137 709 153.5 725.5 Q170 742 193 742 Q216 742 231.5 726.5 Q247 711 247 688 Q247 665 231 648.5 Q215 632 192 632 Z M447 632 Q424 632 408 647.5 Q392 663 392 686 Q392 709 408.5 725.5 Q425 742 448 742 Q471 742 486.5 726.5 Q502 711 502 688 Q502 665 486 648.5 Q470 632 447 632 Z M210 523 L127 0 L44 0 L127 523 L210 523 Z M203 -121 Q248 -119 267.5 -98.5 Q287 -78 293 -41 L382 523 L465 523 L375 -46 Q364 -115 322 -152.5 Q280 -190 192 -190 L203 -121 Z " />
<glyph glyph-name="Jcircumflex" unicode="&#x134;" horiz-adv-x="420" d="M424 898 L515 771 L457 771 L380 829 L287 771 L225 771 L349 898 L424 898 Z M113 -9 Q62 -9 37 0 Q12 9 -2 17 L9 87 Q28 78 51.5 70 Q75 62 110 62 Q164 62 195 92 Q226 122 237 188 L320 715 L407 715 L322 180 Q306 80 249 35.5 Q192 -9 113 -9 Z " />
<glyph glyph-name="jcircumflex" unicode="&#x135;" horiz-adv-x="255" d="M232 757 L318 613 L260 613 L186 688 L90 613 L28 613 L157 757 L232 757 Z M-52 -121 Q-7 -119 12.5 -98.5 Q32 -78 38 -41 L127 523 L210 523 L120 -46 Q109 -115 67 -152.5 Q25 -190 -63 -190 L-52 -121 Z " />
<glyph glyph-name="Kcommaaccent" unicode="&#x136;" horiz-adv-x="616" d="M248 715 L194 375 L557 715 L658 715 L285 370 L557 0 L460 0 L192 359 L135 0 L48 0 L161 715 L248 715 Z M247 -37 L325 -61 L224 -220 L175 -194 L247 -37 Z " />
<glyph glyph-name="kcommaaccent" unicode="&#x137;" horiz-adv-x="511" d="M247 773 L171 292 L420 523 L523 523 L259 283 L454 0 L359 0 L169 278 L125 0 L42 0 L164 773 L247 773 Z M201 -37 L279 -61 L178 -220 L129 -194 L201 -37 Z " />
<glyph glyph-name="Lacute" unicode="&#x139;" horiz-adv-x="535" d="M350 898 L242 771 L176 771 L244 898 L350 898 Z M248 715 L146 71 L473 71 L462 0 L48 0 L161 715 L248 715 Z " />
<glyph glyph-name="lacute" unicode="&#x13a;" horiz-adv-x="256" d="M353 948 L245 821 L179 821 L247 948 L353 948 Z M250 773 L128 0 L44 0 L166 773 L250 773 Z " />
<glyph glyph-name="Lcommaaccent" unicode="&#x13b;" horiz-adv-x="535" d="M248 715 L146 71 L473 71 L462 0 L48 0 L161 715 L248 715 Z M213 -37 L291 -61 L190 -220 L141 -194 L213 -37 Z " />
<glyph glyph-name="lcommaaccent" unicode="&#x13c;" horiz-adv-x="256" d="M250 773 L128 0 L44 0 L166 773 L250 773 Z M46 -37 L124 -61 L23 -220 L-26 -194 L46 -37 Z " />
<glyph glyph-name="Lcaron" unicode="&#x13d;" horiz-adv-x="535" d="M248 715 L146 71 L473 71 L462 0 L48 0 L161 715 L248 715 Z M522 715 L443 558 L384 558 L427 715 L522 715 Z " />
<glyph glyph-name="lcaron" unicode="&#x13e;" horiz-adv-x="256" d="M250 773 L128 0 L44 0 L166 773 L250 773 Z M401 773 L331 598 L272 598 L310 773 L401 773 Z " />
<glyph glyph-name="Ldot" unicode="&#x13f;" horiz-adv-x="535" d="M248 715 L146 71 L473 71 L462 0 L48 0 L161 715 L248 715 Z M448 320 Q422 320 403 338.5 Q384 357 384 384 Q384 411 402.5 429.5 Q421 448 447 448 Q473 448 492.5 429.5 Q512 411 512 384 Q512 357 493 338.5 Q474 320 448 320 Z " />
<glyph glyph-name="ldot" unicode="&#x140;" horiz-adv-x="328" d="M250 773 L128 0 L44 0 L166 773 L250 773 Z M307 303 Q281 303 262 321.5 Q243 340 243 367 Q243 394 261.5 412.5 Q280 431 306 431 Q332 431 351.5 412.5 Q371 394 371 367 Q371 340 352 321.5 Q333 303 307 303 Z " />
<glyph glyph-name="Lslash" unicode="&#x141;" horiz-adv-x="555" d="M122 344 L181 715 L268 715 L214 376 L425 449 L414 378 L203 305 L166 71 L493 71 L482 0 L68 0 L111 273 L39 248 L50 319 L122 344 Z " />
<glyph glyph-name="lslash" unicode="&#x142;" horiz-adv-x="276" d="M121 426 L176 773 L260 773 L212 473 L300 518 L287 445 L201 400 L138 0 L54 0 L110 353 L27 311 L39 384 L121 426 Z " />
<glyph glyph-name="Nacute" unicode="&#x143;" horiz-adv-x="724" d="M588 898 L480 771 L414 771 L482 898 L588 898 Z M272 715 L528 124 L622 715 L705 715 L592 0 L494 0 L228 613 L131 0 L48 0 L161 715 L272 715 Z " />
<glyph glyph-name="nacute" unicode="&#x144;" horiz-adv-x="592" d="M490 760 L369 613 L303 613 L382 760 L490 760 Z M100 367 Q108 421 110.5 455.5 Q113 490 114 523 L192 523 Q192 501 190.5 473 Q189 445 186 419 Q213 467 259 499.5 Q305 532 369 532 Q410 532 442.5 520 Q475 508 495.5 482 Q516 456 523 414 Q530 372 521 313 L471 0 L388 0 L441 332 Q462 461 351 461 Q318 461 288.5 450.5 Q259 440 235.5 419.5 Q212 399 195.5 370 Q179 341 173 304 L125 0 L42 0 L100 367 Z " />
<glyph glyph-name="Ncommaaccent" unicode="&#x145;" horiz-adv-x="724" d="M272 715 L528 124 L622 715 L705 715 L592 0 L494 0 L228 613 L131 0 L48 0 L161 715 L272 715 Z M285 -37 L363 -61 L262 -220 L213 -194 L285 -37 Z " />
<glyph glyph-name="ncommaaccent" unicode="&#x146;" horiz-adv-x="592" d="M100 367 Q108 421 110.5 455.5 Q113 490 114 523 L192 523 Q192 501 190.5 473 Q189 445 186 419 Q213 467 259 499.5 Q305 532 369 532 Q410 532 442.5 520 Q475 508 495.5 482 Q516 456 523 414 Q530 372 521 313 L471 0 L388 0 L441 332 Q462 461 351 461 Q318 461 288.5 450.5 Q259 440 235.5 419.5 Q212 399 195.5 370 Q179 341 173 304 L125 0 L42 0 L100 367 Z M208 -37 L286 -61 L185 -220 L136 -194 L208 -37 Z " />
<glyph glyph-name="Ncaron" unicode="&#x147;" horiz-adv-x="724" d="M407 771 L316 898 L374 898 L451 840 L544 898 L606 898 L482 771 L407 771 Z M272 715 L528 124 L622 715 L705 715 L592 0 L494 0 L228 613 L131 0 L48 0 L161 715 L272 715 Z " />
<glyph glyph-name="ncaron" unicode="&#x148;" horiz-adv-x="592" d="M301 613 L215 757 L273 757 L347 682 L443 757 L505 757 L376 613 L301 613 Z M100 367 Q108 421 110.5 455.5 Q113 490 114 523 L192 523 Q192 501 190.5 473 Q189 445 186 419 Q213 467 259 499.5 Q305 532 369 532 Q410 532 442.5 520 Q475 508 495.5 482 Q516 456 523 414 Q530 372 521 313 L471 0 L388 0 L441 332 Q462 461 351 461 Q318 461 288.5 450.5 Q259 440 235.5 419.5 Q212 399 195.5 370 Q179 341 173 304 L125 0 L42 0 L100 367 Z " />
<glyph glyph-name="napostrophe" unicode="&#x149;" horiz-adv-x="598" d="M95 726 L172 690 L41 488 L-8 514 L95 726 Z M106 367 Q114 421 116.5 455.5 Q119 490 120 523 L198 523 Q198 501 196.5 473 Q195 445 192 419 Q219 467 265 499.5 Q311 532 375 532 Q416 532 448.5 520 Q481 508 501.5 482 Q522 456 529 414 Q536 372 527 313 L477 0 L394 0 L447 332 Q468 461 357 461 Q324 461 294.5 450.5 Q265 440 241.5 419.5 Q218 399 201.5 370 Q185 341 179 304 L131 0 L48 0 L106 367 Z " />
<glyph glyph-name="Eng" unicode="&#x14a;" horiz-adv-x="724" d="M374 -122 Q427 -122 459 -96 Q491 -70 504 -9 L228 613 L131 0 L48 0 L161 715 L275 715 L531 142 L622 715 L705 715 L593 10 Q584 -46 565 -85 Q546 -124 519 -148 Q492 -172 457.5 -182.5 Q423 -193 383 -193 Q336 -193 310.5 -185 Q285 -177 272 -169 L283 -99 Q302 -109 322 -115.5 Q342 -122 374 -122 Z " />
<glyph glyph-name="eng" unicode="&#x14b;" horiz-adv-x="592" d="M100 367 Q108 421 110.5 455.5 Q113 490 114 523 L192 523 Q192 501 190.5 473 Q189 445 186 419 Q213 467 259 499.5 Q305 532 369 532 Q410 532 442.5 520 Q475 508 495.5 482 Q516 456 523 414 Q530 372 521 313 L464 -46 Q459 -79 447 -105.5 Q435 -132 413.5 -150.5 Q392 -169 359.5 -179.5 Q327 -190 281 -191 L292 -121 Q337 -118 356.5 -98 Q376 -78 382 -39 L441 332 Q462 461 351 461 Q318 461 288.5 450.5 Q259 440 235.5 419.5 Q212 399 195.5 370 Q179 341 173 304 L125 0 L42 0 L100 367 Z " />
<glyph glyph-name="Omacron" unicode="&#x14c;" horiz-adv-x="811" d="M626 850 L616 786 L350 786 L360 850 L626 850 Z M773 402 Q773 313 743.5 237.5 Q714 162 663 107.5 Q612 53 543 22 Q474 -9 395 -9 Q321 -9 260.5 15.5 Q200 40 157.5 82.5 Q115 125 91.5 184 Q68 243 68 312 Q68 398 97.5 473 Q127 548 178.5 603.5 Q230 659 300.5 691.5 Q371 724 452 724 Q529 724 589 698.5 Q649 673 690 629 Q731 585 752 526.5 Q773 468 773 402 Z M683 402 Q683 454 668 500 Q653 546 623.5 580 Q594 614 550.5 634 Q507 654 451 654 Q384 654 329.5 626.5 Q275 599 237 552.5 Q199 506 178.5 443.5 Q158 381 158 312 Q158 254 175.5 207.5 Q193 161 224.5 128.5 Q256 96 300 79 Q344 62 396 62 Q460 62 512.5 87.5 Q565 113 603 158.5 Q641 204 662 266.5 Q683 329 683 402 Z " />
<glyph glyph-name="omacron" unicode="&#x14d;" horiz-adv-x="589" d="M483 712 L473 648 L211 648 L221 712 L483 712 Z M271 -8 Q217 -8 173.5 9.5 Q130 27 100 58 Q70 89 54 131.5 Q38 174 38 224 Q38 290 59.5 346 Q81 402 118.5 443 Q156 484 206.5 507.5 Q257 531 316 531 Q370 531 413.5 514 Q457 497 487.5 466.5 Q518 436 534 394 Q550 352 550 301 Q550 234 529.5 177.5 Q509 121 472 80 Q435 39 384 15.5 Q333 -8 271 -8 Z M275 60 Q319 60 354 78 Q389 96 413 128.5 Q437 161 450 204.5 Q463 248 463 299 Q463 374 424.5 418.5 Q386 463 311 463 Q269 463 234.5 445 Q200 427 175.5 394.5 Q151 362 137.5 318.5 Q124 275 124 224 Q124 149 161 104.5 Q198 60 275 60 Z " />
<glyph glyph-name="Obreve" unicode="&#x14e;" horiz-adv-x="811" d="M483 767 Q427 767 390 803 Q353 839 353 899 L419 899 Q427 835 484 835 Q545 835 557 899 L621 899 Q619 870 607 845.5 Q595 821 576 803.5 Q557 786 533 776.5 Q509 767 483 767 Z M773 402 Q773 313 743.5 237.5 Q714 162 663 107.5 Q612 53 543 22 Q474 -9 395 -9 Q321 -9 260.5 15.5 Q200 40 157.5 82.5 Q115 125 91.5 184 Q68 243 68 312 Q68 398 97.5 473 Q127 548 178.5 603.5 Q230 659 300.5 691.5 Q371 724 452 724 Q529 724 589 698.5 Q649 673 690 629 Q731 585 752 526.5 Q773 468 773 402 Z M683 402 Q683 454 668 500 Q653 546 623.5 580 Q594 614 550.5 634 Q507 654 451 654 Q384 654 329.5 626.5 Q275 599 237 552.5 Q199 506 178.5 443.5 Q158 381 158 312 Q158 254 175.5 207.5 Q193 161 224.5 128.5 Q256 96 300 79 Q344 62 396 62 Q460 62 512.5 87.5 Q565 113 603 158.5 Q641 204 662 266.5 Q683 329 683 402 Z " />
<glyph glyph-name="obreve" unicode="&#x14f;" horiz-adv-x="589" d="M340 619 Q284 619 247 655 Q210 691 210 751 L276 751 Q284 687 341 687 Q402 687 414 751 L478 751 Q476 722 464 697.5 Q452 673 433 655.5 Q414 638 390 628.5 Q366 619 340 619 Z M271 -8 Q217 -8 173.5 9.5 Q130 27 100 58 Q70 89 54 131.5 Q38 174 38 224 Q38 290 59.5 346 Q81 402 118.5 443 Q156 484 206.5 507.5 Q257 531 316 531 Q370 531 413.5 514 Q457 497 487.5 466.5 Q518 436 534 394 Q550 352 550 301 Q550 234 529.5 177.5 Q509 121 472 80 Q435 39 384 15.5 Q333 -8 271 -8 Z M275 60 Q319 60 354 78 Q389 96 413 128.5 Q437 161 450 204.5 Q463 248 463 299 Q463 374 424.5 418.5 Q386 463 311 463 Q269 463 234.5 445 Q200 427 175.5 394.5 Q151 362 137.5 318.5 Q124 275 124 224 Q124 149 161 104.5 Q198 60 275 60 Z " />
<glyph glyph-name="Ohungarumlaut" unicode="&#x150;" horiz-adv-x="811" d="M504 898 L423 771 L362 771 L408 898 L504 898 Z M658 898 L577 771 L516 771 L562 898 L658 898 Z M773 402 Q773 313 743.5 237.5 Q714 162 663 107.5 Q612 53 543 22 Q474 -9 395 -9 Q321 -9 260.5 15.5 Q200 40 157.5 82.5 Q115 125 91.5 184 Q68 243 68 312 Q68 398 97.5 473 Q127 548 178.5 603.5 Q230 659 300.5 691.5 Q371 724 452 724 Q529 724 589 698.5 Q649 673 690 629 Q731 585 752 526.5 Q773 468 773 402 Z M683 402 Q683 454 668 500 Q653 546 623.5 580 Q594 614 550.5 634 Q507 654 451 654 Q384 654 329.5 626.5 Q275 599 237 552.5 Q199 506 178.5 443.5 Q158 381 158 312 Q158 254 175.5 207.5 Q193 161 224.5 128.5 Q256 96 300 79 Q344 62 396 62 Q460 62 512.5 87.5 Q565 113 603 158.5 Q641 204 662 266.5 Q683 329 683 402 Z " />
<glyph glyph-name="ohungarumlaut" unicode="&#x151;" horiz-adv-x="589" d="M377 760 L289 613 L228 613 L281 760 L377 760 Z M531 760 L443 613 L382 613 L435 760 L531 760 Z M271 -8 Q217 -8 173.5 9.5 Q130 27 100 58 Q70 89 54 131.5 Q38 174 38 224 Q38 290 59.5 346 Q81 402 118.5 443 Q156 484 206.5 507.5 Q257 531 316 531 Q370 531 413.5 514 Q457 497 487.5 466.5 Q518 436 534 394 Q550 352 550 301 Q550 234 529.5 177.5 Q509 121 472 80 Q435 39 384 15.5 Q333 -8 271 -8 Z M275 60 Q319 60 354 78 Q389 96 413 128.5 Q437 161 450 204.5 Q463 248 463 299 Q463 374 424.5 418.5 Q386 463 311 463 Q269 463 234.5 445 Q200 427 175.5 394.5 Q151 362 137.5 318.5 Q124 275 124 224 Q124 149 161 104.5 Q198 60 275 60 Z " />
<glyph glyph-name="OE" unicode="&#x152;" horiz-adv-x="960" d="M406 0 Q318 0 254 23 Q190 46 149 87 Q108 128 88 184 Q68 240 68 306 Q68 391 95 465.5 Q122 540 174.5 595.5 Q227 651 304.5 683 Q382 715 482 715 L968 715 L956 644 L646 644 L608 401 L858 401 L847 330 L597 330 L556 71 L888 71 L877 0 L406 0 Z M485 644 Q408 644 347 621 Q286 598 244 554.5 Q202 511 179.5 448.5 Q157 386 157 307 Q157 256 171 212.5 Q185 169 216 137.5 Q247 106 295 88 Q343 70 410 70 L469 70 L559 644 L485 644 Z " />
<glyph glyph-name="oe" unicode="&#x153;" horiz-adv-x="974" d="M544 211 Q544 139 578.5 99.5 Q613 60 688 60 Q743 60 780 83 Q817 106 832 151 L915 151 Q903 111 880.5 80.5 Q858 50 828 30.5 Q798 11 761.5 1 Q725 -9 685 -9 Q608 -9 559 23.5 Q510 56 488 113 Q453 56 397.5 24 Q342 -8 271 -8 Q217 -8 173.5 9.5 Q130 27 100 58 Q70 89 54 131.5 Q38 174 38 224 Q38 290 59.5 346 Q81 402 118.5 443 Q156 484 206.5 507.5 Q257 531 316 531 Q391 531 442.5 497 Q494 463 518 405 Q553 464 607.5 497.5 Q662 531 732 531 Q785 531 827.5 514.5 Q870 498 897.5 464.5 Q925 431 935.5 381 Q946 331 935 264 L932 245 L545 245 Q544 237 544 228.5 Q544 220 544 211 Z M275 60 Q319 60 354 78 Q389 96 413 128.5 Q437 161 450 204.5 Q463 248 463 299 Q463 374 424.5 418.5 Q386 463 311 463 Q269 463 234.5 445 Q200 427 175.5 394.5 Q151 362 137.5 318.5 Q124 275 124 224 Q124 149 161 104.5 Q198 60 275 60 Z M727 463 Q699 463 672.5 454.5 Q646 446 623 427.5 Q600 409 582.5 380.5 Q565 352 555 312 L858 312 Q864 391 831.5 427 Q799 463 727 463 Z " />
<glyph glyph-name="Racute" unicode="&#x154;" horiz-adv-x="628" d="M507 898 L399 771 L333 771 L401 898 L507 898 Z M372 715 Q419 715 459 703.5 Q499 692 528.5 669.5 Q558 647 574.5 612.5 Q591 578 590 533 Q590 484 574 446.5 Q558 409 530.5 382.5 Q503 356 465.5 340 Q428 324 386 318 L561 0 L467 0 L297 311 L184 311 L135 0 L48 0 L161 715 L372 715 Z M329 380 Q504 380 504 533 Q505 593 469 619 Q433 645 367 645 L237 645 L195 380 L329 380 Z " />
<glyph glyph-name="racute" unicode="&#x155;" horiz-adv-x="374" d="M412 760 L291 613 L225 613 L304 760 L412 760 Z M100 367 Q108 421 110.5 455.5 Q113 490 114 523 L192 523 Q192 501 190.5 473.5 Q189 446 186 416 Q203 442 220.5 463 Q238 484 260.5 499 Q283 514 311.5 522.5 Q340 531 379 532 L367 454 Q328 452 295 442 Q262 432 236.5 411 Q211 390 193.5 356 Q176 322 168 272 L125 0 L42 0 L100 367 Z " />
<glyph glyph-name="Rcommaaccent" unicode="&#x156;" horiz-adv-x="628" d="M372 715 Q419 715 459 703.5 Q499 692 528.5 669.5 Q558 647 574.5 612.5 Q591 578 590 533 Q590 484 574 446.5 Q558 409 530.5 382.5 Q503 356 465.5 340 Q428 324 386 318 L561 0 L467 0 L297 311 L184 311 L135 0 L48 0 L161 715 L372 715 Z M329 380 Q504 380 504 533 Q505 593 469 619 Q433 645 367 645 L237 645 L195 380 L329 380 Z M252 -37 L330 -61 L229 -220 L180 -194 L252 -37 Z " />
<glyph glyph-name="rcommaaccent" unicode="&#x157;" horiz-adv-x="374" d="M100 367 Q108 421 110.5 455.5 Q113 490 114 523 L192 523 Q192 501 190.5 473.5 Q189 446 186 416 Q203 442 220.5 463 Q238 484 260.5 499 Q283 514 311.5 522.5 Q340 531 379 532 L367 454 Q328 452 295 442 Q262 432 236.5 411 Q211 390 193.5 356 Q176 322 168 272 L125 0 L42 0 L100 367 Z M40 -37 L118 -61 L17 -220 L-32 -194 L40 -37 Z " />
<glyph glyph-name="Rcaron" unicode="&#x158;" horiz-adv-x="628" d="M319 771 L228 898 L286 898 L363 840 L456 898 L518 898 L394 771 L319 771 Z M372 715 Q419 715 459 703.5 Q499 692 528.5 669.5 Q558 647 574.5 612.5 Q591 578 590 533 Q590 484 574 446.5 Q558 409 530.5 382.5 Q503 356 465.5 340 Q428 324 386 318 L561 0 L467 0 L297 311 L184 311 L135 0 L48 0 L161 715 L372 715 Z M329 380 Q504 380 504 533 Q505 593 469 619 Q433 645 367 645 L237 645 L195 380 L329 380 Z " />
<glyph glyph-name="rcaron" unicode="&#x159;" horiz-adv-x="374" d="M218 613 L132 757 L190 757 L264 682 L360 757 L422 757 L293 613 L218 613 Z M100 367 Q108 421 110.5 455.5 Q113 490 114 523 L192 523 Q192 501 190.5 473.5 Q189 446 186 416 Q203 442 220.5 463 Q238 484 260.5 499 Q283 514 311.5 522.5 Q340 531 379 532 L367 454 Q328 452 295 442 Q262 432 236.5 411 Q211 390 193.5 356 Q176 322 168 272 L125 0 L42 0 L100 367 Z " />
<glyph glyph-name="Sacute" unicode="&#x15a;" horiz-adv-x="627" d="M513 898 L405 771 L339 771 L407 898 L513 898 Z M300 -9 Q233 -9 183 10 Q133 29 100 60.5 Q67 92 50.5 133 Q34 174 34 218 L120 218 Q122 188 132.5 159.5 Q143 131 165 109.5 Q187 88 221.5 74.5 Q256 61 305 61 Q386 60 429.5 98.5 Q473 137 473 202 Q473 226 466 245 Q459 264 441 279 Q423 294 393.5 307 Q364 320 319 333 Q268 348 229.5 364.5 Q191 381 164.5 403 Q138 425 124.5 455 Q111 485 111 526 Q111 567 128 603 Q145 639 176 666 Q207 693 251.5 708.5 Q296 724 351 724 Q455 724 517.5 673.5 Q580 623 582 527 L502 527 Q495 598 452.5 626 Q410 654 343 654 Q266 654 230 618 Q194 582 194 529 Q194 508 201 491.5 Q208 475 225 461 Q242 447 272.5 434 Q303 421 349 407 Q402 391 441.5 373.5 Q481 356 507 333 Q533 310 545.5 280.5 Q558 251 558 211 Q558 164 540 123.5 Q522 83 488.5 53.5 Q455 24 407.5 7.5 Q360 -9 300 -9 Z " />
<glyph glyph-name="sacute" unicode="&#x15b;" horiz-adv-x="480" d="M426 760 L305 613 L239 613 L318 760 L426 760 Z M229 -9 Q177 -9 139 5 Q101 19 76 42.5 Q51 66 38.5 96.5 Q26 127 25 161 L106 161 Q108 140 114.5 121.5 Q121 103 135.5 89.5 Q150 76 173.5 68 Q197 60 232 60 Q287 60 313 82.5 Q339 105 339 146 Q339 180 316 198 Q293 216 233 231 Q145 253 109.5 287 Q74 321 74 380 Q74 418 89 446 Q104 474 129.5 493.5 Q155 513 188 522.5 Q221 532 256 532 Q294 532 327 523.5 Q360 515 384.5 496.5 Q409 478 424 449.5 Q439 421 441 381 L363 381 Q361 419 332 441 Q303 463 254 463 Q205 463 178.5 442.5 Q152 422 152 385 Q152 355 174.5 337.5 Q197 320 258 305 Q297 295 327 283 Q357 271 378 253.5 Q399 236 409.5 211 Q420 186 420 150 Q420 78 368.5 34.5 Q317 -9 229 -9 Z " />
<glyph glyph-name="Scircumflex" unicode="&#x15c;" horiz-adv-x="627" d="M427 898 L518 771 L460 771 L383 829 L290 771 L228 771 L352 898 L427 898 Z M300 -9 Q233 -9 183 10 Q133 29 100 60.5 Q67 92 50.5 133 Q34 174 34 218 L120 218 Q122 188 132.5 159.5 Q143 131 165 109.5 Q187 88 221.5 74.5 Q256 61 305 61 Q386 60 429.5 98.5 Q473 137 473 202 Q473 226 466 245 Q459 264 441 279 Q423 294 393.5 307 Q364 320 319 333 Q268 348 229.5 364.5 Q191 381 164.5 403 Q138 425 124.5 455 Q111 485 111 526 Q111 567 128 603 Q145 639 176 666 Q207 693 251.5 708.5 Q296 724 351 724 Q455 724 517.5 673.5 Q580 623 582 527 L502 527 Q495 598 452.5 626 Q410 654 343 654 Q266 654 230 618 Q194 582 194 529 Q194 508 201 491.5 Q208 475 225 461 Q242 447 272.5 434 Q303 421 349 407 Q402 391 441.5 373.5 Q481 356 507 333 Q533 310 545.5 280.5 Q558 251 558 211 Q558 164 540 123.5 Q522 83 488.5 53.5 Q455 24 407.5 7.5 Q360 -9 300 -9 Z " />
<glyph glyph-name="scircumflex" unicode="&#x15d;" horiz-adv-x="480" d="M331 757 L417 613 L359 613 L285 688 L189 613 L127 613 L256 757 L331 757 Z M229 -9 Q177 -9 139 5 Q101 19 76 42.5 Q51 66 38.5 96.5 Q26 127 25 161 L106 161 Q108 140 114.5 121.5 Q121 103 135.5 89.5 Q150 76 173.5 68 Q197 60 232 60 Q287 60 313 82.5 Q339 105 339 146 Q339 180 316 198 Q293 216 233 231 Q145 253 109.5 287 Q74 321 74 380 Q74 418 89 446 Q104 474 129.5 493.5 Q155 513 188 522.5 Q221 532 256 532 Q294 532 327 523.5 Q360 515 384.5 496.5 Q409 478 424 449.5 Q439 421 441 381 L363 381 Q361 419 332 441 Q303 463 254 463 Q205 463 178.5 442.5 Q152 422 152 385 Q152 355 174.5 337.5 Q197 320 258 305 Q297 295 327 283 Q357 271 378 253.5 Q399 236 409.5 211 Q420 186 420 150 Q420 78 368.5 34.5 Q317 -9 229 -9 Z " />
<glyph glyph-name="Scedilla" unicode="&#x15e;" horiz-adv-x="627" d="M232 -214 Q193 -214 165 -193.5 Q137 -173 133 -130 L189 -130 Q191 -145 201.5 -155.5 Q212 -166 231 -166 Q247 -166 259 -157.5 Q271 -149 271 -128 Q271 -113 261 -104.5 Q251 -96 236 -96 Q227 -96 221 -98.5 Q215 -101 210 -104 L183 -74 L237 -4 Q186 4 148 25 Q110 46 84.5 76 Q59 106 46.5 142.5 Q34 179 34 218 L120 218 Q122 188 132.5 159.5 Q143 131 165 109.5 Q187 88 221.5 74.5 Q256 61 305 61 Q386 60 429.5 98.5 Q473 137 473 202 Q473 226 466 245 Q459 264 441 279 Q423 294 393.5 307 Q364 320 319 333 Q268 348 229.5 364.5 Q191 381 164.5 403 Q138 425 124.5 455 Q111 485 111 526 Q111 567 128 603 Q145 639 176 666 Q207 693 251.5 708.5 Q296 724 351 724 Q455 724 517.5 673.5 Q580 623 582 527 L502 527 Q495 598 452.5 626 Q410 654 343 654 Q266 654 230 618 Q194 582 194 529 Q194 508 201 491.5 Q208 475 225 461 Q242 447 272.5 434 Q303 421 349 407 Q402 391 441.5 373.5 Q481 356 507 333 Q533 310 545.5 280.5 Q558 251 558 211 Q558 164 540 123.5 Q522 83 488.5 53.5 Q455 24 407.5 7.5 Q360 -9 300 -9 L286 -9 L253 -53 Q283 -50 308.5 -68.5 Q334 -87 334 -125 Q334 -169 306 -191.5 Q278 -214 232 -214 Z " />
<glyph glyph-name="scedilla" unicode="&#x15f;" horiz-adv-x="480" d="M169 -214 Q130 -214 102 -193.5 Q74 -173 70 -130 L126 -130 Q128 -145 138.5 -155.5 Q149 -166 168 -166 Q184 -166 196 -157.5 Q208 -149 208 -128 Q208 -113 198 -104.5 Q188 -96 173 -96 Q164 -96 158 -98.5 Q152 -101 147 -104 L120 -74 L173 -4 Q136 3 108 18.5 Q80 34 62 56 Q44 78 34.5 105 Q25 132 25 161 L106 161 Q108 140 114.5 121.5 Q121 103 135.5 89.5 Q150 76 173.5 68 Q197 60 232 60 Q287 60 313 82.5 Q339 105 339 146 Q339 180 316 198 Q293 216 233 231 Q145 253 109.5 287 Q74 321 74 380 Q74 418 89 446 Q104 474 129.5 493.5 Q155 513 188 522.5 Q221 532 256 532 Q294 532 327 523.5 Q360 515 384.5 496.5 Q409 478 424 449.5 Q439 421 441 381 L363 381 Q361 419 332 441 Q303 463 254 463 Q205 463 178.5 442.5 Q152 422 152 385 Q152 355 174.5 337.5 Q197 320 258 305 Q297 295 327 283 Q357 271 378 253.5 Q399 236 409.5 211 Q420 186 420 150 Q420 78 368.5 34.5 Q317 -9 229 -9 L223 -9 L190 -53 Q220 -50 245.5 -68.5 Q271 -87 271 -125 Q271 -169 243 -191.5 Q215 -214 169 -214 Z " />
<glyph glyph-name="Scaron" unicode="&#x160;" horiz-adv-x="627" d="M321 771 L230 898 L288 898 L365 840 L458 898 L520 898 L396 771 L321 771 Z M300 -9 Q233 -9 183 10 Q133 29 100 60.5 Q67 92 50.5 133 Q34 174 34 218 L120 218 Q122 188 132.5 159.5 Q143 131 165 109.5 Q187 88 221.5 74.5 Q256 61 305 61 Q386 60 429.5 98.5 Q473 137 473 202 Q473 226 466 245 Q459 264 441 279 Q423 294 393.5 307 Q364 320 319 333 Q268 348 229.5 364.5 Q191 381 164.5 403 Q138 425 124.5 455 Q111 485 111 526 Q111 567 128 603 Q145 639 176 666 Q207 693 251.5 708.5 Q296 724 351 724 Q455 724 517.5 673.5 Q580 623 582 527 L502 527 Q495 598 452.5 626 Q410 654 343 654 Q266 654 230 618 Q194 582 194 529 Q194 508 201 491.5 Q208 475 225 461 Q242 447 272.5 434 Q303 421 349 407 Q402 391 441.5 373.5 Q481 356 507 333 Q533 310 545.5 280.5 Q558 251 558 211 Q558 164 540 123.5 Q522 83 488.5 53.5 Q455 24 407.5 7.5 Q360 -9 300 -9 Z " />
<glyph glyph-name="scaron" unicode="&#x161;" horiz-adv-x="480" d="M238 613 L152 757 L210 757 L284 682 L380 757 L442 757 L313 613 L238 613 Z M229 -9 Q177 -9 139 5 Q101 19 76 42.5 Q51 66 38.5 96.5 Q26 127 25 161 L106 161 Q108 140 114.5 121.5 Q121 103 135.5 89.5 Q150 76 173.5 68 Q197 60 232 60 Q287 60 313 82.5 Q339 105 339 146 Q339 180 316 198 Q293 216 233 231 Q145 253 109.5 287 Q74 321 74 380 Q74 418 89 446 Q104 474 129.5 493.5 Q155 513 188 522.5 Q221 532 256 532 Q294 532 327 523.5 Q360 515 384.5 496.5 Q409 478 424 449.5 Q439 421 441 381 L363 381 Q361 419 332 441 Q303 463 254 463 Q205 463 178.5 442.5 Q152 422 152 385 Q152 355 174.5 337.5 Q197 320 258 305 Q297 295 327 283 Q357 271 378 253.5 Q399 236 409.5 211 Q420 186 420 150 Q420 78 368.5 34.5 Q317 -9 229 -9 Z " />
<glyph glyph-name="uni0162" unicode="&#x162;" horiz-adv-x="561" d="M87 644 L99 715 L602 715 L590 644 L382 644 L281 0 L194 0 L295 644 L87 644 Z M197 -37 L275 -61 L174 -220 L125 -194 L197 -37 Z " />
<glyph glyph-name="uni0163" unicode="&#x163;" horiz-adv-x="343" d="M204 -7 Q165 -7 138.5 4.5 Q112 16 97 36 Q82 56 77 83.5 Q72 111 77 143 L126 453 L51 453 L62 523 L137 523 L156 642 L239 642 L220 523 L339 523 L328 453 L209 453 L159 140 Q152 97 167 80 Q182 63 217 63 Q249 63 279 74 L268 5 Q241 -7 204 -7 Z M113 -37 L191 -61 L90 -220 L41 -194 L113 -37 Z " />
<glyph glyph-name="Tcaron" unicode="&#x164;" horiz-adv-x="561" d="M312 771 L221 898 L279 898 L356 840 L449 898 L511 898 L387 771 L312 771 Z M87 644 L99 715 L602 715 L590 644 L382 644 L281 0 L194 0 L295 644 L87 644 Z " />
<glyph glyph-name="tcaron" unicode="&#x165;" horiz-adv-x="343" d="M440 773 L370 598 L311 598 L349 773 L440 773 Z M204 -7 Q165 -7 138.5 4.5 Q112 16 97 36 Q82 56 77 83.5 Q72 111 77 143 L126 453 L51 453 L62 523 L137 523 L156 642 L239 642 L220 523 L339 523 L328 453 L209 453 L159 140 Q152 97 167 80 Q182 63 217 63 Q249 63 279 74 L268 5 Q241 -7 204 -7 Z " />
<glyph glyph-name="Tbar" unicode="&#x166;" horiz-adv-x="561" d="M257 404 L295 644 L87 644 L99 715 L602 715 L590 644 L382 644 L344 404 L489 404 L479 338 L334 338 L281 0 L194 0 L247 338 L104 338 L114 404 L257 404 Z " />
<glyph glyph-name="tbar" unicode="&#x167;" horiz-adv-x="343" d="M108 339 L126 453 L51 453 L62 523 L137 523 L156 642 L239 642 L220 523 L339 523 L328 453 L209 453 L191 339 L310 339 L301 280 L181 280 L159 140 Q152 97 167 80 Q182 63 217 63 Q249 63 279 74 L268 5 Q241 -7 204 -7 Q165 -7 138.5 4.5 Q112 16 97 36 Q82 56 77 83.5 Q72 111 77 143 L98 280 L24 280 L33 339 L108 339 Z " />
<glyph glyph-name="Utilde" unicode="&#x168;" horiz-adv-x="696" d="M490 774 Q472 774 456.5 780.5 Q441 787 427.5 795.5 Q414 804 402 810.5 Q390 817 379 817 Q365 817 351.5 805 Q338 793 333 772 L273 772 Q284 827 312.5 857.5 Q341 888 380 888 Q397 888 412.5 881.5 Q428 875 441.5 866.5 Q455 858 467 851.5 Q479 845 490 845 Q504 845 517 857 Q530 869 535 890 L595 890 Q584 835 556 804.5 Q528 774 490 774 Z M325 -9 Q189 -9 126 64 Q63 137 86 283 L155 715 L242 715 L173 282 Q154 163 194.5 113 Q235 63 329 63 Q409 63 458 108 Q507 153 524 261 L596 715 L683 715 L609 249 Q600 191 578.5 143 Q557 95 522 61.5 Q487 28 438.5 9.5 Q390 -9 325 -9 Z " />
<glyph glyph-name="utilde" unicode="&#x169;" horiz-adv-x="588" d="M402 619 Q384 619 368.5 625.5 Q353 632 339.5 640.5 Q326 649 314 655.5 Q302 662 291 662 Q277 662 263.5 650 Q250 638 245 617 L185 617 Q196 672 224.5 702.5 Q253 733 292 733 Q309 733 324.5 726.5 Q340 720 353.5 711.5 Q367 703 379 696.5 Q391 690 402 690 Q416 690 429 702 Q442 714 447 735 L507 735 Q496 680 468 649.5 Q440 619 402 619 Z M487 156 Q479 102 476.5 67 Q474 32 476 0 L397 0 Q395 23 396.5 50.5 Q398 78 402 104 Q374 56 329 23.5 Q284 -9 220 -9 Q179 -9 147 4 Q115 17 95 43.5 Q75 70 68 111.5 Q61 153 70 210 L120 523 L203 523 L150 191 Q140 129 162 95.5 Q184 62 238 62 Q304 62 353 103 Q402 144 414 219 L462 523 L545 523 L487 156 Z " />
<glyph glyph-name="Umacron" unicode="&#x16a;" horiz-adv-x="696" d="M569 850 L559 786 L293 786 L303 850 L569 850 Z M325 -9 Q189 -9 126 64 Q63 137 86 283 L155 715 L242 715 L173 282 Q154 163 194.5 113 Q235 63 329 63 Q409 63 458 108 Q507 153 524 261 L596 715 L683 715 L609 249 Q600 191 578.5 143 Q557 95 522 61.5 Q487 28 438.5 9.5 Q390 -9 325 -9 Z " />
<glyph glyph-name="umacron" unicode="&#x16b;" horiz-adv-x="588" d="M485 712 L475 648 L213 648 L223 712 L485 712 Z M487 156 Q479 102 476.5 67 Q474 32 476 0 L397 0 Q395 23 396.5 50.5 Q398 78 402 104 Q374 56 329 23.5 Q284 -9 220 -9 Q179 -9 147 4 Q115 17 95 43.5 Q75 70 68 111.5 Q61 153 70 210 L120 523 L203 523 L150 191 Q140 129 162 95.5 Q184 62 238 62 Q304 62 353 103 Q402 144 414 219 L462 523 L545 523 L487 156 Z " />
<glyph glyph-name="Ubreve" unicode="&#x16c;" horiz-adv-x="696" d="M426 767 Q370 767 333 803 Q296 839 296 899 L362 899 Q370 835 427 835 Q488 835 500 899 L564 899 Q562 870 550 845.5 Q538 821 519 803.5 Q500 786 476 776.5 Q452 767 426 767 Z M325 -9 Q189 -9 126 64 Q63 137 86 283 L155 715 L242 715 L173 282 Q154 163 194.5 113 Q235 63 329 63 Q409 63 458 108 Q507 153 524 261 L596 715 L683 715 L609 249 Q600 191 578.5 143 Q557 95 522 61.5 Q487 28 438.5 9.5 Q390 -9 325 -9 Z " />
<glyph glyph-name="ubreve" unicode="&#x16d;" horiz-adv-x="588" d="M347 619 Q291 619 254 655 Q217 691 217 751 L283 751 Q291 687 348 687 Q409 687 421 751 L485 751 Q483 722 471 697.5 Q459 673 440 655.5 Q421 638 397 628.5 Q373 619 347 619 Z M487 156 Q479 102 476.5 67 Q474 32 476 0 L397 0 Q395 23 396.5 50.5 Q398 78 402 104 Q374 56 329 23.5 Q284 -9 220 -9 Q179 -9 147 4 Q115 17 95 43.5 Q75 70 68 111.5 Q61 153 70 210 L120 523 L203 523 L150 191 Q140 129 162 95.5 Q184 62 238 62 Q304 62 353 103 Q402 144 414 219 L462 523 L545 523 L487 156 Z " />
<glyph glyph-name="Uring" unicode="&#x16e;" horiz-adv-x="696" d="M433 739 Q388 739 358 768.5 Q328 798 328 841 Q328 863 336.5 882.5 Q345 902 360 916 Q375 930 395 938.5 Q415 947 437 947 Q482 947 512 917.5 Q542 888 542 845 Q542 823 533.5 803.5 Q525 784 510 770 Q495 756 475 747.5 Q455 739 433 739 Z M433 785 Q456 785 472 802 Q488 819 488 845 Q488 870 474 885.5 Q460 901 437 901 Q414 901 398 884 Q382 867 382 841 Q382 816 396 800.5 Q410 785 433 785 Z M325 -9 Q189 -9 126 64 Q63 137 86 283 L155 715 L242 715 L173 282 Q154 163 194.5 113 Q235 63 329 63 Q409 63 458 108 Q507 153 524 261 L596 715 L683 715 L609 249 Q600 191 578.5 143 Q557 95 522 61.5 Q487 28 438.5 9.5 Q390 -9 325 -9 Z " />
<glyph glyph-name="uring" unicode="&#x16f;" horiz-adv-x="588" d="M347 598 Q302 598 272 627.5 Q242 657 242 700 Q242 722 250.5 741.5 Q259 761 274 775 Q289 789 309 797.5 Q329 806 351 806 Q396 806 426 776.5 Q456 747 456 704 Q456 682 447.5 662.5 Q439 643 424 629 Q409 615 389 606.5 Q369 598 347 598 Z M347 644 Q370 644 386 661 Q402 678 402 704 Q402 729 388 744.5 Q374 760 351 760 Q328 760 312 743 Q296 726 296 700 Q296 675 310 659.5 Q324 644 347 644 Z M487 156 Q479 102 476.5 67 Q474 32 476 0 L397 0 Q395 23 396.5 50.5 Q398 78 402 104 Q374 56 329 23.5 Q284 -9 220 -9 Q179 -9 147 4 Q115 17 95 43.5 Q75 70 68 111.5 Q61 153 70 210 L120 523 L203 523 L150 191 Q140 129 162 95.5 Q184 62 238 62 Q304 62 353 103 Q402 144 414 219 L462 523 L545 523 L487 156 Z " />
<glyph glyph-name="Uhungarumlaut" unicode="&#x170;" horiz-adv-x="696" d="M455 898 L374 771 L313 771 L359 898 L455 898 Z M609 898 L528 771 L467 771 L513 898 L609 898 Z M325 -9 Q189 -9 126 64 Q63 137 86 283 L155 715 L242 715 L173 282 Q154 163 194.5 113 Q235 63 329 63 Q409 63 458 108 Q507 153 524 261 L596 715 L683 715 L609 249 Q600 191 578.5 143 Q557 95 522 61.5 Q487 28 438.5 9.5 Q390 -9 325 -9 Z " />
<glyph glyph-name="uhungarumlaut" unicode="&#x171;" horiz-adv-x="588" d="M388 760 L300 613 L239 613 L292 760 L388 760 Z M542 760 L454 613 L393 613 L446 760 L542 760 Z M487 156 Q479 102 476.5 67 Q474 32 476 0 L397 0 Q395 23 396.5 50.5 Q398 78 402 104 Q374 56 329 23.5 Q284 -9 220 -9 Q179 -9 147 4 Q115 17 95 43.5 Q75 70 68 111.5 Q61 153 70 210 L120 523 L203 523 L150 191 Q140 129 162 95.5 Q184 62 238 62 Q304 62 353 103 Q402 144 414 219 L462 523 L545 523 L487 156 Z " />
<glyph glyph-name="Uogonek" unicode="&#x172;" horiz-adv-x="696" d="M344 -182 Q304 -182 274 -163.5 Q244 -145 245 -101 Q245 -69 266.5 -46.5 Q288 -24 315 -9 Q184 -7 123.5 66.5 Q63 140 86 283 L155 715 L242 715 L173 282 Q154 163 194 113 Q234 63 328 63 Q408 63 457.5 108 Q507 153 524 261 L596 715 L683 715 L609 249 Q598 175 566 117 Q534 59 469 23 Q453 14 428.5 4.5 Q404 -5 381.5 -18 Q359 -31 342.5 -48.5 Q326 -66 326 -91 Q326 -122 363 -122 Q388 -122 411 -112 L402 -171 Q392 -175 378 -178.5 Q364 -182 344 -182 Z " />
<glyph glyph-name="uogonek" unicode="&#x173;" horiz-adv-x="588" d="M487 156 Q479 102 476.5 67 Q474 32 476 0 Q464 -7 450 -16 Q436 -25 423 -36 Q410 -47 401.5 -61 Q393 -75 393 -91 Q393 -122 430 -122 Q455 -122 478 -112 L469 -171 Q459 -175 445 -178.5 Q431 -182 411 -182 Q371 -182 341 -163.5 Q311 -145 312 -101 Q312 -83 319.5 -68 Q327 -53 339.5 -40 Q352 -27 367 -17.5 Q382 -8 397 0 Q395 23 396.5 50.5 Q398 78 402 104 Q374 56 329 23.5 Q284 -9 220 -9 Q179 -9 147 4 Q115 17 95 43.5 Q75 70 68 111.5 Q61 153 70 210 L120 523 L203 523 L150 191 Q140 129 162 95.5 Q184 62 238 62 Q304 62 353 103 Q402 144 414 219 L462 523 L545 523 L487 156 Z " />
<glyph glyph-name="Wcircumflex" unicode="&#x174;" horiz-adv-x="890" d="M570 898 L661 771 L603 771 L526 829 L433 771 L371 771 L495 898 L570 898 Z M180 715 L234 132 L487 715 L543 715 L621 130 L856 715 L939 715 L644 0 L563 0 L491 561 L244 0 L166 0 L93 715 L180 715 Z " />
<glyph glyph-name="wcircumflex" unicode="&#x175;" horiz-adv-x="767" d="M493 757 L579 613 L521 613 L447 688 L351 613 L289 613 L418 757 L493 757 Z M152 523 L200 97 L392 523 L464 523 L514 97 L698 523 L785 523 L545 0 L453 0 L408 397 L226 0 L135 0 L64 523 L152 523 Z " />
<glyph glyph-name="Ycircumflex" unicode="&#x176;" horiz-adv-x="592" d="M421 898 L512 771 L454 771 L377 829 L284 771 L222 771 L346 898 L421 898 Z M91 715 L184 715 L322 383 L554 715 L643 715 L352 305 L304 0 L217 0 L266 312 L91 715 Z " />
<glyph glyph-name="ycircumflex" unicode="&#x177;" horiz-adv-x="505" d="M355 757 L441 613 L383 613 L309 688 L213 613 L151 613 L280 757 L355 757 Z M60 523 L145 523 L239 148 L438 523 L527 523 L132 -182 L44 -182 L184 59 L60 523 Z " />
<glyph glyph-name="Ydieresis" unicode="&#x178;" horiz-adv-x="592" d="M281 789 Q259 789 243.5 804 Q228 819 228 841 Q228 863 244 879 Q260 895 282 895 Q304 895 319 880 Q334 865 334 843 Q334 821 318.5 805 Q303 789 281 789 Z M484 789 Q462 789 446.5 804 Q431 819 431 841 Q431 863 447 879 Q463 895 485 895 Q507 895 522 880 Q537 865 537 843 Q537 821 521.5 805 Q506 789 484 789 Z M91 715 L184 715 L322 383 L554 715 L643 715 L352 305 L304 0 L217 0 L266 312 L91 715 Z " />
<glyph glyph-name="Zacute" unicode="&#x179;" horiz-adv-x="595" d="M511 898 L403 771 L337 771 L405 898 L511 898 Z M489 647 L124 647 L135 715 L624 715 L622 702 L130 71 L516 71 L505 0 L-14 0 L-12 14 L489 647 Z " />
<glyph glyph-name="zacute" unicode="&#x17a;" horiz-adv-x="475" d="M439 760 L318 613 L252 613 L331 760 L439 760 Z M347 453 L78 453 L89 523 L488 523 L485 508 L128 73 L416 73 L404 0 L-21 0 L-19 12 L347 453 Z " />
<glyph glyph-name="Zdotaccent" unicode="&#x17b;" horiz-adv-x="595" d="M383 787 Q360 787 344 802.5 Q328 818 328 841 Q328 864 344.5 880.5 Q361 897 384 897 Q407 897 422.5 881.5 Q438 866 438 843 Q438 820 422 803.5 Q406 787 383 787 Z M489 647 L124 647 L135 715 L624 715 L622 702 L130 71 L516 71 L505 0 L-14 0 L-12 14 L489 647 Z " />
<glyph glyph-name="zdotaccent" unicode="&#x17c;" horiz-adv-x="475" d="M304 632 Q281 632 265 647.5 Q249 663 249 686 Q249 709 265.5 725.5 Q282 742 305 742 Q328 742 343.5 726.5 Q359 711 359 688 Q359 665 343 648.5 Q327 632 304 632 Z M347 453 L78 453 L89 523 L488 523 L485 508 L128 73 L416 73 L404 0 L-21 0 L-19 12 L347 453 Z " />
<glyph glyph-name="Zcaron" unicode="&#x17d;" horiz-adv-x="595" d="M334 771 L243 898 L301 898 L378 840 L471 898 L533 898 L409 771 L334 771 Z M489 647 L124 647 L135 715 L624 715 L622 702 L130 71 L516 71 L505 0 L-14 0 L-12 14 L489 647 Z " />
<glyph glyph-name="zcaron" unicode="&#x17e;" horiz-adv-x="475" d="M247 613 L161 757 L219 757 L293 682 L389 757 L451 757 L322 613 L247 613 Z M347 453 L78 453 L89 523 L488 523 L485 508 L128 73 L416 73 L404 0 L-21 0 L-19 12 L347 453 Z " />
<glyph glyph-name="florin" unicode="&#x192;" horiz-adv-x="397" d="M145 413 L174 565 Q188 643 231.5 683.5 Q275 724 344 724 Q372 724 389 719.5 Q406 715 418 708 L408 643 Q395 648 381 651.5 Q367 655 345 655 Q307 655 285.5 630.5 Q264 606 256 561 L228 413 L360 413 L349 345 L216 345 L117 -182 L34 -182 L133 345 L38 345 L49 413 L145 413 Z " />
<glyph glyph-name="Ohorn" unicode="&#x1a0;" horiz-adv-x="811" d="M644 669 Q707 624 740 554.5 Q773 485 773 402 Q773 313 743.5 237.5 Q714 162 663 107.5 Q612 53 543 22 Q474 -9 395 -9 Q321 -9 260.5 15.5 Q200 40 157.5 82.5 Q115 125 91.5 184 Q68 243 68 312 Q68 398 97.5 473 Q127 548 178.5 603.5 Q230 659 300.5 691.5 Q371 724 452 724 Q497 724 536 715 Q561 715 581 716.5 Q601 718 616.5 726 Q632 734 643.5 750.5 Q655 767 663 796 L735 796 Q711 701 644 669 Z M396 62 Q460 62 512.5 87.5 Q565 113 603 158.5 Q641 204 662 266.5 Q683 329 683 402 Q683 454 668 500 Q653 546 623.5 580 Q594 614 550.5 634 Q507 654 451 654 Q384 654 329.5 626.5 Q275 599 237 552.5 Q199 506 178.5 443.5 Q158 381 158 312 Q158 254 175.5 207.5 Q193 161 224.5 128.5 Q256 96 300 79 Q344 62 396 62 Z " />
<glyph glyph-name="ohorn" unicode="&#x1a1;" horiz-adv-x="589" d="M482 472 Q550 409 550 301 Q550 234 529.5 177.5 Q509 121 472 80 Q435 39 384 15.5 Q333 -8 271 -8 Q217 -8 173.5 9.5 Q130 27 100 58 Q70 89 54 131.5 Q38 174 38 224 Q38 290 59.5 346 Q81 402 118.5 443 Q156 484 206.5 507.5 Q257 531 316 531 Q351 531 385 523 Q410 523 429.5 524.5 Q449 526 464.5 534 Q480 542 491.5 558.5 Q503 575 511 604 L583 604 Q570 553 545 521 Q520 489 482 472 Z M275 60 Q319 60 354 78 Q389 96 413 128.5 Q437 161 450 204.5 Q463 248 463 299 Q463 374 424.5 418.5 Q386 463 311 463 Q269 463 234.5 445 Q200 427 175.5 394.5 Q151 362 137.5 318.5 Q124 275 124 224 Q124 149 161 104.5 Q198 60 275 60 Z " />
<glyph glyph-name="Uhorn" unicode="&#x1af;" horiz-adv-x="696" d="M804 796 Q789 736 757.5 701.5 Q726 667 673 655 L609 249 Q600 191 578.5 143 Q557 95 522 61.5 Q487 28 438.5 9.5 Q390 -9 325 -9 Q189 -9 126 64 Q63 137 86 283 L155 715 L242 715 L173 282 Q154 163 194.5 113 Q235 63 329 63 Q409 63 458 108 Q507 153 524 261 L596 715 L629 715 Q649 715 665 718.5 Q681 722 693.5 730.5 Q706 739 715.5 755 Q725 771 732 796 L804 796 Z " />
<glyph glyph-name="uhorn" unicode="&#x1b0;" horiz-adv-x="588" d="M674 604 Q658 541 624.5 506.5 Q591 472 535 461 L487 156 Q479 102 476.5 67 Q474 32 476 0 L397 0 Q395 23 396.5 50.5 Q398 78 402 104 Q374 56 329 23.5 Q284 -9 220 -9 Q179 -9 147 4 Q115 17 95 43.5 Q75 70 68 111.5 Q61 153 70 210 L120 523 L203 523 L150 191 Q140 129 162 95.5 Q184 62 238 62 Q304 62 353 103 Q402 144 414 219 L462 523 L499 523 Q519 523 535 526.5 Q551 530 563.5 538.5 Q576 547 585.5 563 Q595 579 602 604 L674 604 Z " />
<glyph glyph-name="Aringacute" unicode="&#x1fa;" horiz-adv-x="650" d="M565 1113 L457 986 L391 986 L459 1113 L565 1113 Z M410 749 Q365 749 335 778.5 Q305 808 305 851 Q305 873 313.5 892.5 Q322 912 337 926 Q352 940 372 948.5 Q392 957 414 957 Q459 957 489 927.5 Q519 898 519 855 Q519 833 510.5 813.5 Q502 794 487 780 Q472 766 452 757.5 Q432 749 410 749 Z M410 795 Q433 795 449 812 Q465 829 465 855 Q465 880 451 895.5 Q437 911 414 911 Q391 911 375 894 Q359 877 359 851 Q359 826 373 810.5 Q387 795 410 795 Z M168 206 L66 0 L-18 0 L341 715 L455 715 L584 0 L500 0 L463 206 L168 206 Z M450 275 L384 643 L202 275 L450 275 Z " />
<glyph glyph-name="aringacute" unicode="&#x1fb;" horiz-adv-x="538" d="M486 956 L378 829 L312 829 L380 956 L486 956 Z M326 578 Q281 578 251 607.5 Q221 637 221 680 Q221 702 229.5 721.5 Q238 741 253 755 Q268 769 288 777.5 Q308 786 330 786 Q375 786 405 756.5 Q435 727 435 684 Q435 662 426.5 642.5 Q418 623 403 609 Q388 595 368 586.5 Q348 578 326 578 Z M326 624 Q349 624 365 641 Q381 658 381 684 Q381 709 367 724.5 Q353 740 330 740 Q307 740 291 723 Q275 706 275 680 Q275 655 289 639.5 Q303 624 326 624 Z M197 -8 Q116 -8 72 32.5 Q28 73 28 140 Q28 188 48.5 220.5 Q69 253 103.5 272 Q138 291 184.5 299 Q231 307 282 307 L383 307 L389 345 Q399 405 376.5 434 Q354 463 291 463 Q240 463 208.5 440.5 Q177 418 166 369 L83 369 Q92 416 114.5 447.5 Q137 479 166 497.5 Q195 516 229 524 Q263 532 294 532 Q338 532 374 521.5 Q410 511 434.5 488 Q459 465 469 428 Q479 391 471 338 L442 156 Q434 105 431.5 69 Q429 33 433 0 L355 0 Q353 21 352.5 43.5 Q352 66 354 83 Q326 38 285.5 15 Q245 -8 197 -8 Z M208 57 Q267 57 310 89.5 Q353 122 364 191 L373 248 L284 248 Q196 248 153 224 Q110 200 110 140 Q110 105 133.5 81 Q157 57 208 57 Z " />
<glyph glyph-name="AEacute" unicode="&#x1fc;" horiz-adv-x="950" d="M836 898 L728 771 L662 771 L730 898 L836 898 Z M958 715 L946 644 L620 644 L582 401 L848 401 L837 330 L571 330 L530 71 L878 71 L867 0 L432 0 L464 207 L211 207 L78 0 L-13 0 L453 715 L958 715 Z M475 275 L533 644 L493 644 L255 275 L475 275 Z " />
<glyph glyph-name="aeacute" unicode="&#x1fd;" horiz-adv-x="875" d="M633 760 L512 613 L446 613 L525 760 L633 760 Z M458 211 Q458 139 489.5 99.5 Q521 60 596 60 Q705 60 735 151 L816 151 Q792 70 732.5 30.5 Q673 -9 593 -9 Q518 -9 469 23 Q420 55 397 109 Q367 52 316 22 Q265 -8 199 -8 Q116 -8 72 29.5 Q28 67 28 134 Q28 182 49 215.5 Q70 249 105.5 270 Q141 291 188 300.5 Q235 310 287 310 L384 310 L390 345 Q400 405 377 434 Q354 463 291 463 Q240 463 208.5 440.5 Q177 418 166 369 L83 369 Q92 416 114.5 447.5 Q137 479 166 497.5 Q195 516 229 524 Q263 532 294 532 Q354 532 397 512 Q440 492 457 446 Q492 486 538.5 508.5 Q585 531 640 531 Q693 531 734.5 514.5 Q776 498 802 464.5 Q828 431 837.5 381 Q847 331 836 264 L833 247 L459 247 Q458 238 458 229 Q458 220 458 211 Z M635 463 Q579 463 533 427.5 Q487 392 468 310 L759 310 Q765 389 736 426 Q707 463 635 463 Z M206 57 Q267 57 310.5 89.5 Q354 122 365 191 L374 247 L284 247 Q196 247 153 222 Q110 197 110 137 Q110 102 133.5 79.5 Q157 57 206 57 Z " />
<glyph glyph-name="Oslashacute" unicode="&#x1fe;" horiz-adv-x="811" d="M615 898 L507 771 L441 771 L509 898 L615 898 Z M130 114 Q100 155 84 205 Q68 255 68 312 Q68 398 97.5 473 Q127 548 178.5 603.5 Q230 659 300.5 691.5 Q371 724 452 724 Q516 724 568 706 Q620 688 659 656 L743 742 L786 697 L703 613 Q738 570 755.5 516 Q773 462 773 402 Q773 313 743.5 237.5 Q714 162 663 107.5 Q612 53 543 22 Q474 -9 395 -9 Q326 -9 270 11 Q214 31 172 68 L73 -33 L30 12 L130 114 Z M158 312 Q158 231 189 174 L606 601 Q577 627 538 640.5 Q499 654 451 654 Q384 654 329.5 626.5 Q275 599 237 552.5 Q199 506 178.5 443.5 Q158 381 158 312 Z M683 402 Q683 491 645 553 L226 124 Q258 93 301 77.5 Q344 62 396 62 Q460 62 512.5 87.5 Q565 113 603 158.5 Q641 204 662 266.5 Q683 329 683 402 Z " />
<glyph glyph-name="oslashacute" unicode="&#x1ff;" horiz-adv-x="589" d="M481 760 L360 613 L294 613 L373 760 L481 760 Z M83 78 Q38 139 38 224 Q38 290 59.5 346 Q81 402 118.5 443 Q156 484 206.5 507.5 Q257 531 316 531 Q361 531 398.5 519 Q436 507 465 484 L532 556 L573 518 L504 445 Q550 387 550 301 Q550 234 529.5 177.5 Q509 121 472 80 Q435 39 384 15.5 Q333 -8 271 -8 Q226 -8 188.5 4 Q151 16 122 39 L51 -37 L11 1 L83 78 Z M124 224 Q124 199 127.5 177.5 Q131 156 139 137 L414 430 Q376 463 311 463 Q269 463 234.5 445 Q200 427 175.5 394.5 Q151 362 137.5 318.5 Q124 275 124 224 Z M275 60 Q319 60 354 78 Q389 96 413 128.5 Q437 161 450 204.5 Q463 248 463 299 Q463 349 447 384 L172 91 Q209 60 275 60 Z " />
<glyph glyph-name="Scommaaccent" unicode="&#x218;" horiz-adv-x="627" d="M300 -9 Q233 -9 183 10 Q133 29 100 60.5 Q67 92 50.5 133 Q34 174 34 218 L120 218 Q122 188 132.5 159.5 Q143 131 165 109.5 Q187 88 221.5 74.5 Q256 61 305 61 Q386 60 429.5 98.5 Q473 137 473 202 Q473 226 466 245 Q459 264 441 279 Q423 294 393.5 307 Q364 320 319 333 Q268 348 229.5 364.5 Q191 381 164.5 403 Q138 425 124.5 455 Q111 485 111 526 Q111 567 128 603 Q145 639 176 666 Q207 693 251.5 708.5 Q296 724 351 724 Q455 724 517.5 673.5 Q580 623 582 527 L502 527 Q495 598 452.5 626 Q410 654 343 654 Q266 654 230 618 Q194 582 194 529 Q194 508 201 491.5 Q208 475 225 461 Q242 447 272.5 434 Q303 421 349 407 Q402 391 441.5 373.5 Q481 356 507 333 Q533 310 545.5 280.5 Q558 251 558 211 Q558 164 540 123.5 Q522 83 488.5 53.5 Q455 24 407.5 7.5 Q360 -9 300 -9 Z M217 -37 L295 -61 L194 -220 L145 -194 L217 -37 Z " />
<glyph glyph-name="scommaaccent" unicode="&#x219;" horiz-adv-x="480" d="M229 -9 Q177 -9 139 5 Q101 19 76 42.5 Q51 66 38.5 96.5 Q26 127 25 161 L106 161 Q108 140 114.5 121.5 Q121 103 135.5 89.5 Q150 76 173.5 68 Q197 60 232 60 Q287 60 313 82.5 Q339 105 339 146 Q339 180 316 198 Q293 216 233 231 Q145 253 109.5 287 Q74 321 74 380 Q74 418 89 446 Q104 474 129.5 493.5 Q155 513 188 522.5 Q221 532 256 532 Q294 532 327 523.5 Q360 515 384.5 496.5 Q409 478 424 449.5 Q439 421 441 381 L363 381 Q361 419 332 441 Q303 463 254 463 Q205 463 178.5 442.5 Q152 422 152 385 Q152 355 174.5 337.5 Q197 320 258 305 Q297 295 327 283 Q357 271 378 253.5 Q399 236 409.5 211 Q420 186 420 150 Q420 78 368.5 34.5 Q317 -9 229 -9 Z M153 -37 L231 -61 L130 -220 L81 -194 L153 -37 Z " />
<glyph glyph-name="uni0237" unicode="&#x237;" horiz-adv-x="255" d="M-52 -121 Q-7 -119 12.5 -98.5 Q32 -78 38 -41 L127 523 L210 523 L120 -46 Q109 -115 67 -152.5 Q25 -190 -63 -190 L-52 -121 Z " />
<glyph glyph-name="circumflex" unicode="&#x2c6;" horiz-adv-x="600" d="M314 757 L400 613 L342 613 L268 688 L172 613 L110 613 L239 757 L314 757 Z " />
<glyph glyph-name="caron" unicode="&#x2c7;" horiz-adv-x="400" d="M218 613 L132 757 L190 757 L264 682 L360 757 L422 757 L293 613 L218 613 Z " />
<glyph glyph-name="breve" unicode="&#x2d8;" horiz-adv-x="600" d="M268 619 Q212 619 175 655 Q138 691 138 751 L204 751 Q212 687 269 687 Q330 687 342 751 L406 751 Q404 722 392 697.5 Q380 673 361 655.5 Q342 638 318 628.5 Q294 619 268 619 Z " />
<glyph glyph-name="dotaccent" unicode="&#x2d9;" horiz-adv-x="400" d="M266 632 Q243 632 227 647.5 Q211 663 211 686 Q211 709 227.5 725.5 Q244 742 267 742 Q290 742 305.5 726.5 Q321 711 321 688 Q321 665 305 648.5 Q289 632 266 632 Z " />
<glyph glyph-name="ring" unicode="&#x2da;" horiz-adv-x="400" d="M267 598 Q222 598 192 627.5 Q162 657 162 700 Q162 722 170.5 741.5 Q179 761 194 775 Q209 789 229 797.5 Q249 806 271 806 Q316 806 346 776.5 Q376 747 376 704 Q376 682 367.5 662.5 Q359 643 344 629 Q329 615 309 606.5 Q289 598 267 598 Z M267 644 Q290 644 306 661 Q322 678 322 704 Q322 729 308 744.5 Q294 760 271 760 Q248 760 232 743 Q216 726 216 700 Q216 675 230 659.5 Q244 644 267 644 Z " />
<glyph glyph-name="ogonek" unicode="&#x2db;" horiz-adv-x="400" d="M161 -182 Q121 -182 91 -163.5 Q61 -145 62 -101 Q62 -83 70 -68 Q78 -53 90.5 -40 Q103 -27 118.5 -17.5 Q134 -8 149 0 L227 0 Q215 -7 200.5 -15.5 Q186 -24 173.5 -35 Q161 -46 152 -60 Q143 -74 143 -91 Q143 -122 180 -122 Q205 -122 228 -112 L219 -171 Q209 -175 195 -178.5 Q181 -182 161 -182 Z " />
<glyph glyph-name="tilde" unicode="&#x2dc;" horiz-adv-x="600" d="M319 619 Q301 619 285.5 625.5 Q270 632 256.5 640.5 Q243 649 231 655.5 Q219 662 208 662 Q194 662 180.5 650 Q167 638 162 617 L102 617 Q113 672 141.5 702.5 Q170 733 209 733 Q226 733 241.5 726.5 Q257 720 270.5 711.5 Q284 703 296 696.5 Q308 690 319 690 Q333 690 346 702 Q359 714 364 735 L424 735 Q413 680 385 649.5 Q357 619 319 619 Z " />
<glyph glyph-name="hungarumlaut" unicode="&#x2dd;" horiz-adv-x="400" d="M295 760 L207 613 L146 613 L199 760 L295 760 Z M449 760 L361 613 L300 613 L353 760 L449 760 Z " />
<glyph glyph-name="gravecomb" unicode="&#x300;" d="M-153 760 L-106 613 L-167 613 L-255 760 L-153 760 Z " />
<glyph glyph-name="acutecomb" unicode="&#x301;" d="M1 760 L-120 613 L-186 613 L-107 760 L1 760 Z " />
<glyph glyph-name="uni0302" unicode="&#x302;" d="M-86 757 L0 613 L-58 613 L-132 688 L-228 613 L-290 613 L-161 757 L-86 757 Z " />
<glyph glyph-name="tildecomb" unicode="&#x303;" d="M-81 619 Q-99 619 -114.5 625.5 Q-130 632 -143.5 640.5 Q-157 649 -169 655.5 Q-181 662 -192 662 Q-206 662 -219.5 650 Q-233 638 -238 617 L-298 617 Q-287 672 -258.5 702.5 Q-230 733 -191 733 Q-174 733 -158.5 726.5 Q-143 720 -129.5 711.5 Q-116 703 -104 696.5 Q-92 690 -81 690 Q-67 690 -54 702 Q-41 714 -36 735 L24 735 Q13 680 -15 649.5 Q-43 619 -81 619 Z " />
<glyph glyph-name="uni0306" unicode="&#x306;" d="M-132 619 Q-188 619 -225 655 Q-262 691 -262 751 L-196 751 Q-188 687 -131 687 Q-70 687 -58 751 L6 751 Q4 722 -8 697.5 Q-20 673 -39 655.5 Q-58 638 -82 628.5 Q-106 619 -132 619 Z " />
<glyph glyph-name="hookabovecomb" unicode="&#x309;" d="M-332 602 Q-317 628 -303 643 Q-289 658 -278 668.5 Q-267 679 -259.5 687.5 Q-252 696 -250 709 Q-248 719 -255.5 726 Q-263 733 -277 733 Q-286 733 -292.5 731.5 Q-299 730 -306 725.5 Q-313 721 -321 712.5 Q-329 704 -342 689 L-390 715 Q-374 738 -360 753 Q-346 768 -332.5 777 Q-319 786 -303.5 790 Q-288 794 -269 794 Q-230 794 -206.5 769.5 Q-183 745 -188 709 Q-191 684 -200.5 671 Q-210 658 -222 648.5 Q-234 639 -248 627 Q-262 615 -275 592 L-332 602 Z " />
<glyph glyph-name="uni031B" unicode="&#x31b;" d="M-215 523 Q-190 523 -170 524.5 Q-150 526 -134.5 534 Q-119 542 -107.5 558.5 Q-96 575 -88 604 L-16 604 Q-36 524 -86 489 Q-136 454 -225 456 L-215 523 Z " />
<glyph glyph-name="dotbelowcomb" unicode="&#x323;" d="M-253 -170 Q-276 -170 -292 -154.5 Q-308 -139 -308 -116 Q-308 -93 -291.5 -76.5 Q-275 -60 -252 -60 Q-229 -60 -213.5 -75.5 Q-198 -91 -198 -114 Q-198 -137 -214 -153.5 Q-230 -170 -253 -170 Z " />
<glyph glyph-name="Wgrave" unicode="&#x1e80;" horiz-adv-x="890" d="M512 898 L551 771 L491 771 L411 898 L512 898 Z M180 715 L234 132 L487 715 L543 715 L621 130 L856 715 L939 715 L644 0 L563 0 L491 561 L244 0 L166 0 L93 715 L180 715 Z " />
<glyph glyph-name="wgrave" unicode="&#x1e81;" horiz-adv-x="767" d="M419 760 L466 613 L405 613 L317 760 L419 760 Z M152 523 L200 97 L392 523 L464 523 L514 97 L698 523 L785 523 L545 0 L453 0 L408 397 L226 0 L135 0 L64 523 L152 523 Z " />
<glyph glyph-name="Wacute" unicode="&#x1e82;" horiz-adv-x="890" d="M660 898 L552 771 L486 771 L554 898 L660 898 Z M180 715 L234 132 L487 715 L543 715 L621 130 L856 715 L939 715 L644 0 L563 0 L491 561 L244 0 L166 0 L93 715 L180 715 Z " />
<glyph glyph-name="wacute" unicode="&#x1e83;" horiz-adv-x="767" d="M598 760 L477 613 L411 613 L490 760 L598 760 Z M152 523 L200 97 L392 523 L464 523 L514 97 L698 523 L785 523 L545 0 L453 0 L408 397 L226 0 L135 0 L64 523 L152 523 Z " />
<glyph glyph-name="Wdieresis" unicode="&#x1e84;" horiz-adv-x="890" d="M427 789 Q405 789 389.5 804 Q374 819 374 841 Q374 863 390 879 Q406 895 428 895 Q450 895 465 880 Q480 865 480 843 Q480 821 464.5 805 Q449 789 427 789 Z M630 789 Q608 789 592.5 804 Q577 819 577 841 Q577 863 593 879 Q609 895 631 895 Q653 895 668 880 Q683 865 683 843 Q683 821 667.5 805 Q652 789 630 789 Z M180 715 L234 132 L487 715 L543 715 L621 130 L856 715 L939 715 L644 0 L563 0 L491 561 L244 0 L166 0 L93 715 L180 715 Z " />
<glyph glyph-name="wdieresis" unicode="&#x1e85;" horiz-adv-x="767" d="M355 634 Q333 634 317.5 649 Q302 664 302 686 Q302 708 318 724 Q334 740 356 740 Q378 740 393 725 Q408 710 408 688 Q408 666 392.5 650 Q377 634 355 634 Z M543 634 Q521 634 505.5 649 Q490 664 490 686 Q490 708 506 724 Q522 740 544 740 Q566 740 581 725 Q596 710 596 688 Q596 666 580.5 650 Q565 634 543 634 Z M152 523 L200 97 L392 523 L464 523 L514 97 L698 523 L785 523 L545 0 L453 0 L408 397 L226 0 L135 0 L64 523 L152 523 Z " />
<glyph glyph-name="uni1EA0" unicode="&#x1ea0;" horiz-adv-x="650" d="M168 206 L66 0 L-18 0 L341 715 L455 715 L584 0 L500 0 L463 206 L168 206 Z M450 275 L384 643 L202 275 L450 275 Z M272 -170 Q249 -170 233 -154.5 Q217 -139 217 -116 Q217 -93 233.5 -76.5 Q250 -60 273 -60 Q296 -60 311.5 -75.5 Q327 -91 327 -114 Q327 -137 311 -153.5 Q295 -170 272 -170 Z " />
<glyph glyph-name="uni1EA1" unicode="&#x1ea1;" horiz-adv-x="538" d="M197 -8 Q116 -8 72 32.5 Q28 73 28 140 Q28 188 48.5 220.5 Q69 253 103.5 272 Q138 291 184.5 299 Q231 307 282 307 L383 307 L389 345 Q399 405 376.5 434 Q354 463 291 463 Q240 463 208.5 440.5 Q177 418 166 369 L83 369 Q92 416 114.5 447.5 Q137 479 166 497.5 Q195 516 229 524 Q263 532 294 532 Q338 532 374 521.5 Q410 511 434.5 488 Q459 465 469 428 Q479 391 471 338 L442 156 Q434 105 431.5 69 Q429 33 433 0 L355 0 Q353 21 352.5 43.5 Q352 66 354 83 Q326 38 285.5 15 Q245 -8 197 -8 Z M208 57 Q267 57 310 89.5 Q353 122 364 191 L373 248 L284 248 Q196 248 153 224 Q110 200 110 140 Q110 105 133.5 81 Q157 57 208 57 Z M216 -170 Q193 -170 177 -154.5 Q161 -139 161 -116 Q161 -93 177.5 -76.5 Q194 -60 217 -60 Q240 -60 255.5 -75.5 Q271 -91 271 -114 Q271 -137 255 -153.5 Q239 -170 216 -170 Z " />
<glyph glyph-name="uni1EA2" unicode="&#x1ea2;" horiz-adv-x="650" d="M380 794 Q395 820 409 835 Q423 850 434 860.5 Q445 871 452.5 879.5 Q460 888 462 901 Q464 911 456.5 918 Q449 925 435 925 Q426 925 419.5 923.5 Q413 922 406 917.5 Q399 913 391 904.5 Q383 896 370 881 L322 907 Q338 930 352 945 Q366 960 379.5 969 Q393 978 408.5 982 Q424 986 443 986 Q482 986 505.5 961.5 Q529 937 524 901 Q521 876 511.5 863 Q502 850 490 840.5 Q478 831 464 819 Q450 807 437 784 L380 794 Z M168 206 L66 0 L-18 0 L341 715 L455 715 L584 0 L500 0 L463 206 L168 206 Z M450 275 L384 643 L202 275 L450 275 Z " />
<glyph glyph-name="uni1EA3" unicode="&#x1ea3;" horiz-adv-x="538" d="M297 602 Q312 628 326 643 Q340 658 351 668.5 Q362 679 369.5 687.5 Q377 696 379 709 Q381 719 373.5 726 Q366 733 352 733 Q343 733 336.5 731.5 Q330 730 323 725.5 Q316 721 308 712.5 Q300 704 287 689 L239 715 Q255 738 269 753 Q283 768 296.5 777 Q310 786 325.5 790 Q341 794 360 794 Q399 794 422.5 769.5 Q446 745 441 709 Q438 684 428.5 671 Q419 658 407 648.5 Q395 639 381 627 Q367 615 354 592 L297 602 Z M197 -8 Q116 -8 72 32.5 Q28 73 28 140 Q28 188 48.5 220.5 Q69 253 103.5 272 Q138 291 184.5 299 Q231 307 282 307 L383 307 L389 345 Q399 405 376.5 434 Q354 463 291 463 Q240 463 208.5 440.5 Q177 418 166 369 L83 369 Q92 416 114.5 447.5 Q137 479 166 497.5 Q195 516 229 524 Q263 532 294 532 Q338 532 374 521.5 Q410 511 434.5 488 Q459 465 469 428 Q479 391 471 338 L442 156 Q434 105 431.5 69 Q429 33 433 0 L355 0 Q353 21 352.5 43.5 Q352 66 354 83 Q326 38 285.5 15 Q245 -8 197 -8 Z M208 57 Q267 57 310 89.5 Q353 122 364 191 L373 248 L284 248 Q196 248 153 224 Q110 200 110 140 Q110 105 133.5 81 Q157 57 208 57 Z " />
<glyph glyph-name="uni1EA4" unicode="&#x1ea4;" horiz-adv-x="650" d="M720 1003 L599 856 L533 856 L612 1003 L720 1003 Z M452 914 L538 770 L480 770 L406 845 L310 770 L248 770 L377 914 L452 914 Z M168 206 L66 0 L-18 0 L341 715 L455 715 L584 0 L500 0 L463 206 L168 206 Z M450 275 L384 643 L202 275 L450 275 Z " />
<glyph glyph-name="uni1EA5" unicode="&#x1ea5;" horiz-adv-x="538" d="M637 811 L516 664 L450 664 L529 811 L637 811 Z M369 722 L455 578 L397 578 L323 653 L227 578 L165 578 L294 722 L369 722 Z M197 -8 Q116 -8 72 32.5 Q28 73 28 140 Q28 188 48.5 220.5 Q69 253 103.5 272 Q138 291 184.5 299 Q231 307 282 307 L383 307 L389 345 Q399 405 376.5 434 Q354 463 291 463 Q240 463 208.5 440.5 Q177 418 166 369 L83 369 Q92 416 114.5 447.5 Q137 479 166 497.5 Q195 516 229 524 Q263 532 294 532 Q338 532 374 521.5 Q410 511 434.5 488 Q459 465 469 428 Q479 391 471 338 L442 156 Q434 105 431.5 69 Q429 33 433 0 L355 0 Q353 21 352.5 43.5 Q352 66 354 83 Q326 38 285.5 15 Q245 -8 197 -8 Z M208 57 Q267 57 310 89.5 Q353 122 364 191 L373 248 L284 248 Q196 248 153 224 Q110 200 110 140 Q110 105 133.5 81 Q157 57 208 57 Z " />
<glyph glyph-name="uni1EA6" unicode="&#x1ea6;" horiz-adv-x="650" d="M560 1012 L607 865 L546 865 L458 1012 L560 1012 Z M452 914 L538 770 L480 770 L406 845 L310 770 L248 770 L377 914 L452 914 Z M168 206 L66 0 L-18 0 L341 715 L455 715 L584 0 L500 0 L463 206 L168 206 Z M450 275 L384 643 L202 275 L450 275 Z " />
<glyph glyph-name="uni1EA7" unicode="&#x1ea7;" horiz-adv-x="538" d="M477 820 L524 673 L463 673 L375 820 L477 820 Z M369 722 L455 578 L397 578 L323 653 L227 578 L165 578 L294 722 L369 722 Z M197 -8 Q116 -8 72 32.5 Q28 73 28 140 Q28 188 48.5 220.5 Q69 253 103.5 272 Q138 291 184.5 299 Q231 307 282 307 L383 307 L389 345 Q399 405 376.5 434 Q354 463 291 463 Q240 463 208.5 440.5 Q177 418 166 369 L83 369 Q92 416 114.5 447.5 Q137 479 166 497.5 Q195 516 229 524 Q263 532 294 532 Q338 532 374 521.5 Q410 511 434.5 488 Q459 465 469 428 Q479 391 471 338 L442 156 Q434 105 431.5 69 Q429 33 433 0 L355 0 Q353 21 352.5 43.5 Q352 66 354 83 Q326 38 285.5 15 Q245 -8 197 -8 Z M208 57 Q267 57 310 89.5 Q353 122 364 191 L373 248 L284 248 Q196 248 153 224 Q110 200 110 140 Q110 105 133.5 81 Q157 57 208 57 Z " />
<glyph glyph-name="uni1EA8" unicode="&#x1ea8;" horiz-adv-x="650" d="M527 863 Q542 889 556 904 Q570 919 581 929.5 Q592 940 599.5 948.5 Q607 957 609 970 Q611 980 603.5 987 Q596 994 582 994 Q573 994 566.5 992.5 Q560 991 553 986.5 Q546 982 538 973.5 Q530 965 517 950 L469 976 Q485 999 499 1014 Q513 1029 526.5 1038 Q540 1047 555.5 1051 Q571 1055 590 1055 Q629 1055 652.5 1030.5 Q676 1006 671 970 Q668 945 658.5 932 Q649 919 637 909.5 Q625 900 611 888 Q597 876 584 853 L527 863 Z M452 914 L538 770 L480 770 L406 845 L310 770 L248 770 L377 914 L452 914 Z M168 206 L66 0 L-18 0 L341 715 L455 715 L584 0 L500 0 L463 206 L168 206 Z M450 275 L384 643 L202 275 L450 275 Z " />
<glyph glyph-name="uni1EA9" unicode="&#x1ea9;" horiz-adv-x="538" d="M444 671 Q459 697 473 712 Q487 727 498 737.5 Q509 748 516.5 756.5 Q524 765 526 778 Q528 788 520.5 795 Q513 802 499 802 Q490 802 483.5 800.5 Q477 799 470 794.5 Q463 790 455 781.5 Q447 773 434 758 L386 784 Q402 807 416 822 Q430 837 443.5 846 Q457 855 472.5 859 Q488 863 507 863 Q546 863 569.5 838.5 Q593 814 588 778 Q585 753 575.5 740 Q566 727 554 717.5 Q542 708 528 696 Q514 684 501 661 L444 671 Z M369 722 L455 578 L397 578 L323 653 L227 578 L165 578 L294 722 L369 722 Z M197 -8 Q116 -8 72 32.5 Q28 73 28 140 Q28 188 48.5 220.5 Q69 253 103.5 272 Q138 291 184.5 299 Q231 307 282 307 L383 307 L389 345 Q399 405 376.5 434 Q354 463 291 463 Q240 463 208.5 440.5 Q177 418 166 369 L83 369 Q92 416 114.5 447.5 Q137 479 166 497.5 Q195 516 229 524 Q263 532 294 532 Q338 532 374 521.5 Q410 511 434.5 488 Q459 465 469 428 Q479 391 471 338 L442 156 Q434 105 431.5 69 Q429 33 433 0 L355 0 Q353 21 352.5 43.5 Q352 66 354 83 Q326 38 285.5 15 Q245 -8 197 -8 Z M208 57 Q267 57 310 89.5 Q353 122 364 191 L373 248 L284 248 Q196 248 153 224 Q110 200 110 140 Q110 105 133.5 81 Q157 57 208 57 Z " />
<glyph glyph-name="uni1EAA" unicode="&#x1eaa;" horiz-adv-x="650" d="M481 938 Q463 938 447.5 944.5 Q432 951 418.5 959.5 Q405 968 393 974.5 Q381 981 370 981 Q356 981 342.5 969 Q329 957 324 936 L264 936 Q275 991 303.5 1021.5 Q332 1052 371 1052 Q388 1052 403.5 1045.5 Q419 1039 432.5 1030.5 Q446 1022 458 1015.5 Q470 1009 481 1009 Q495 1009 508 1021 Q521 1033 526 1054 L586 1054 Q575 999 547 968.5 Q519 938 481 938 Z M452 914 L538 770 L480 770 L406 845 L310 770 L248 770 L377 914 L452 914 Z M168 206 L66 0 L-18 0 L341 715 L455 715 L584 0 L500 0 L463 206 L168 206 Z M450 275 L384 643 L202 275 L450 275 Z " />
<glyph glyph-name="uni1EAB" unicode="&#x1eab;" horiz-adv-x="538" d="M398 746 Q380 746 364.5 752.5 Q349 759 335.5 767.5 Q322 776 310 782.5 Q298 789 287 789 Q273 789 259.5 777 Q246 765 241 744 L181 744 Q192 799 220.5 829.5 Q249 860 288 860 Q305 860 320.5 853.5 Q336 847 349.5 838.5 Q363 830 375 823.5 Q387 817 398 817 Q412 817 425 829 Q438 841 443 862 L503 862 Q492 807 464 776.5 Q436 746 398 746 Z M369 722 L455 578 L397 578 L323 653 L227 578 L165 578 L294 722 L369 722 Z M197 -8 Q116 -8 72 32.5 Q28 73 28 140 Q28 188 48.5 220.5 Q69 253 103.5 272 Q138 291 184.5 299 Q231 307 282 307 L383 307 L389 345 Q399 405 376.5 434 Q354 463 291 463 Q240 463 208.5 440.5 Q177 418 166 369 L83 369 Q92 416 114.5 447.5 Q137 479 166 497.5 Q195 516 229 524 Q263 532 294 532 Q338 532 374 521.5 Q410 511 434.5 488 Q459 465 469 428 Q479 391 471 338 L442 156 Q434 105 431.5 69 Q429 33 433 0 L355 0 Q353 21 352.5 43.5 Q352 66 354 83 Q326 38 285.5 15 Q245 -8 197 -8 Z M208 57 Q267 57 310 89.5 Q353 122 364 191 L373 248 L284 248 Q196 248 153 224 Q110 200 110 140 Q110 105 133.5 81 Q157 57 208 57 Z " />
<glyph glyph-name="uni1EAC" unicode="&#x1eac;" horiz-adv-x="650" d="M452 914 L538 770 L480 770 L406 845 L310 770 L248 770 L377 914 L452 914 Z M168 206 L66 0 L-18 0 L341 715 L455 715 L584 0 L500 0 L463 206 L168 206 Z M450 275 L384 643 L202 275 L450 275 Z M272 -170 Q249 -170 233 -154.5 Q217 -139 217 -116 Q217 -93 233.5 -76.5 Q250 -60 273 -60 Q296 -60 311.5 -75.5 Q327 -91 327 -114 Q327 -137 311 -153.5 Q295 -170 272 -170 Z " />
<glyph glyph-name="uni1EAD" unicode="&#x1ead;" horiz-adv-x="538" d="M369 722 L455 578 L397 578 L323 653 L227 578 L165 578 L294 722 L369 722 Z M197 -8 Q116 -8 72 32.5 Q28 73 28 140 Q28 188 48.5 220.5 Q69 253 103.5 272 Q138 291 184.5 299 Q231 307 282 307 L383 307 L389 345 Q399 405 376.5 434 Q354 463 291 463 Q240 463 208.5 440.5 Q177 418 166 369 L83 369 Q92 416 114.5 447.5 Q137 479 166 497.5 Q195 516 229 524 Q263 532 294 532 Q338 532 374 521.5 Q410 511 434.5 488 Q459 465 469 428 Q479 391 471 338 L442 156 Q434 105 431.5 69 Q429 33 433 0 L355 0 Q353 21 352.5 43.5 Q352 66 354 83 Q326 38 285.5 15 Q245 -8 197 -8 Z M208 57 Q267 57 310 89.5 Q353 122 364 191 L373 248 L284 248 Q196 248 153 224 Q110 200 110 140 Q110 105 133.5 81 Q157 57 208 57 Z M216 -170 Q193 -170 177 -154.5 Q161 -139 161 -116 Q161 -93 177.5 -76.5 Q194 -60 217 -60 Q240 -60 255.5 -75.5 Q271 -91 271 -114 Q271 -137 255 -153.5 Q239 -170 216 -170 Z " />
<glyph glyph-name="uni1EAE" unicode="&#x1eae;" horiz-adv-x="650" d="M552 1092 L431 945 L365 945 L444 1092 L552 1092 Z M396 784 Q340 784 303 820 Q266 856 266 916 L332 916 Q340 852 397 852 Q458 852 470 916 L534 916 Q532 887 520 862.5 Q508 838 489 820.5 Q470 803 446 793.5 Q422 784 396 784 Z M168 206 L66 0 L-18 0 L341 715 L455 715 L584 0 L500 0 L463 206 L168 206 Z M450 275 L384 643 L202 275 L450 275 Z " />
<glyph glyph-name="uni1EAF" unicode="&#x1eaf;" horiz-adv-x="538" d="M469 900 L348 753 L282 753 L361 900 L469 900 Z M313 592 Q257 592 220 628 Q183 664 183 724 L249 724 Q257 660 314 660 Q375 660 387 724 L451 724 Q449 695 437 670.5 Q425 646 406 628.5 Q387 611 363 601.5 Q339 592 313 592 Z M197 -8 Q116 -8 72 32.5 Q28 73 28 140 Q28 188 48.5 220.5 Q69 253 103.5 272 Q138 291 184.5 299 Q231 307 282 307 L383 307 L389 345 Q399 405 376.5 434 Q354 463 291 463 Q240 463 208.5 440.5 Q177 418 166 369 L83 369 Q92 416 114.5 447.5 Q137 479 166 497.5 Q195 516 229 524 Q263 532 294 532 Q338 532 374 521.5 Q410 511 434.5 488 Q459 465 469 428 Q479 391 471 338 L442 156 Q434 105 431.5 69 Q429 33 433 0 L355 0 Q353 21 352.5 43.5 Q352 66 354 83 Q326 38 285.5 15 Q245 -8 197 -8 Z M208 57 Q267 57 310 89.5 Q353 122 364 191 L373 248 L284 248 Q196 248 153 224 Q110 200 110 140 Q110 105 133.5 81 Q157 57 208 57 Z " />
<glyph glyph-name="uni1EB0" unicode="&#x1eb0;" horiz-adv-x="650" d="M384 1082 L431 935 L370 935 L282 1082 L384 1082 Z M396 784 Q340 784 303 820 Q266 856 266 916 L332 916 Q340 852 397 852 Q458 852 470 916 L534 916 Q532 887 520 862.5 Q508 838 489 820.5 Q470 803 446 793.5 Q422 784 396 784 Z M168 206 L66 0 L-18 0 L341 715 L455 715 L584 0 L500 0 L463 206 L168 206 Z M450 275 L384 643 L202 275 L450 275 Z " />
<glyph glyph-name="uni1EB1" unicode="&#x1eb1;" horiz-adv-x="538" d="M301 890 L348 743 L287 743 L199 890 L301 890 Z M313 592 Q257 592 220 628 Q183 664 183 724 L249 724 Q257 660 314 660 Q375 660 387 724 L451 724 Q449 695 437 670.5 Q425 646 406 628.5 Q387 611 363 601.5 Q339 592 313 592 Z M197 -8 Q116 -8 72 32.5 Q28 73 28 140 Q28 188 48.5 220.5 Q69 253 103.5 272 Q138 291 184.5 299 Q231 307 282 307 L383 307 L389 345 Q399 405 376.5 434 Q354 463 291 463 Q240 463 208.5 440.5 Q177 418 166 369 L83 369 Q92 416 114.5 447.5 Q137 479 166 497.5 Q195 516 229 524 Q263 532 294 532 Q338 532 374 521.5 Q410 511 434.5 488 Q459 465 469 428 Q479 391 471 338 L442 156 Q434 105 431.5 69 Q429 33 433 0 L355 0 Q353 21 352.5 43.5 Q352 66 354 83 Q326 38 285.5 15 Q245 -8 197 -8 Z M208 57 Q267 57 310 89.5 Q353 122 364 191 L373 248 L284 248 Q196 248 153 224 Q110 200 110 140 Q110 105 133.5 81 Q157 57 208 57 Z " />
<glyph glyph-name="uni1EB2" unicode="&#x1eb2;" horiz-adv-x="650" d="M365 943 Q380 969 394 984 Q408 999 419 1009.5 Q430 1020 437.5 1028.5 Q445 1037 447 1050 Q449 1060 441.5 1067 Q434 1074 420 1074 Q411 1074 404.5 1072.5 Q398 1071 391 1066.5 Q384 1062 376 1053.5 Q368 1045 355 1030 L307 1056 Q323 1079 337 1094 Q351 1109 364.5 1118 Q378 1127 393.5 1131 Q409 1135 428 1135 Q467 1135 490.5 1110.5 Q514 1086 509 1050 Q506 1025 496.5 1012 Q487 999 475 989.5 Q463 980 449 968 Q435 956 422 933 L365 943 Z M396 784 Q340 784 303 820 Q266 856 266 916 L332 916 Q340 852 397 852 Q458 852 470 916 L534 916 Q532 887 520 862.5 Q508 838 489 820.5 Q470 803 446 793.5 Q422 784 396 784 Z M168 206 L66 0 L-18 0 L341 715 L455 715 L584 0 L500 0 L463 206 L168 206 Z M450 275 L384 643 L202 275 L450 275 Z " />
<glyph glyph-name="uni1EB3" unicode="&#x1eb3;" horiz-adv-x="538" d="M282 751 Q297 777 311 792 Q325 807 336 817.5 Q347 828 354.5 836.5 Q362 845 364 858 Q366 868 358.5 875 Q351 882 337 882 Q328 882 321.5 880.5 Q315 879 308 874.5 Q301 870 293 861.5 Q285 853 272 838 L224 864 Q240 887 254 902 Q268 917 281.5 926 Q295 935 310.5 939 Q326 943 345 943 Q384 943 407.5 918.5 Q431 894 426 858 Q423 833 413.5 820 Q404 807 392 797.5 Q380 788 366 776 Q352 764 339 741 L282 751 Z M313 592 Q257 592 220 628 Q183 664 183 724 L249 724 Q257 660 314 660 Q375 660 387 724 L451 724 Q449 695 437 670.5 Q425 646 406 628.5 Q387 611 363 601.5 Q339 592 313 592 Z M197 -8 Q116 -8 72 32.5 Q28 73 28 140 Q28 188 48.5 220.5 Q69 253 103.5 272 Q138 291 184.5 299 Q231 307 282 307 L383 307 L389 345 Q399 405 376.5 434 Q354 463 291 463 Q240 463 208.5 440.5 Q177 418 166 369 L83 369 Q92 416 114.5 447.5 Q137 479 166 497.5 Q195 516 229 524 Q263 532 294 532 Q338 532 374 521.5 Q410 511 434.5 488 Q459 465 469 428 Q479 391 471 338 L442 156 Q434 105 431.5 69 Q429 33 433 0 L355 0 Q353 21 352.5 43.5 Q352 66 354 83 Q326 38 285.5 15 Q245 -8 197 -8 Z M208 57 Q267 57 310 89.5 Q353 122 364 191 L373 248 L284 248 Q196 248 153 224 Q110 200 110 140 Q110 105 133.5 81 Q157 57 208 57 Z " />
<glyph glyph-name="uni1EB4" unicode="&#x1eb4;" horiz-adv-x="650" d="M471 957 Q453 957 437.5 963.5 Q422 970 408.5 978.5 Q395 987 383 993.5 Q371 1000 360 1000 Q346 1000 332.5 988 Q319 976 314 955 L254 955 Q265 1010 293.5 1040.5 Q322 1071 361 1071 Q378 1071 393.5 1064.5 Q409 1058 422.5 1049.5 Q436 1041 448 1034.5 Q460 1028 471 1028 Q485 1028 498 1040 Q511 1052 516 1073 L576 1073 Q565 1018 537 987.5 Q509 957 471 957 Z M396 784 Q340 784 303 820 Q266 856 266 916 L332 916 Q340 852 397 852 Q458 852 470 916 L534 916 Q532 887 520 862.5 Q508 838 489 820.5 Q470 803 446 793.5 Q422 784 396 784 Z M168 206 L66 0 L-18 0 L341 715 L455 715 L584 0 L500 0 L463 206 L168 206 Z M450 275 L384 643 L202 275 L450 275 Z " />
<glyph glyph-name="uni1EB5" unicode="&#x1eb5;" horiz-adv-x="538" d="M388 765 Q370 765 354.5 771.5 Q339 778 325.5 786.5 Q312 795 300 801.5 Q288 808 277 808 Q263 808 249.5 796 Q236 784 231 763 L171 763 Q182 818 210.5 848.5 Q239 879 278 879 Q295 879 310.5 872.5 Q326 866 339.5 857.5 Q353 849 365 842.5 Q377 836 388 836 Q402 836 415 848 Q428 860 433 881 L493 881 Q482 826 454 795.5 Q426 765 388 765 Z M313 592 Q257 592 220 628 Q183 664 183 724 L249 724 Q257 660 314 660 Q375 660 387 724 L451 724 Q449 695 437 670.5 Q425 646 406 628.5 Q387 611 363 601.5 Q339 592 313 592 Z M197 -8 Q116 -8 72 32.5 Q28 73 28 140 Q28 188 48.5 220.5 Q69 253 103.5 272 Q138 291 184.5 299 Q231 307 282 307 L383 307 L389 345 Q399 405 376.5 434 Q354 463 291 463 Q240 463 208.5 440.5 Q177 418 166 369 L83 369 Q92 416 114.5 447.5 Q137 479 166 497.5 Q195 516 229 524 Q263 532 294 532 Q338 532 374 521.5 Q410 511 434.5 488 Q459 465 469 428 Q479 391 471 338 L442 156 Q434 105 431.5 69 Q429 33 433 0 L355 0 Q353 21 352.5 43.5 Q352 66 354 83 Q326 38 285.5 15 Q245 -8 197 -8 Z M208 57 Q267 57 310 89.5 Q353 122 364 191 L373 248 L284 248 Q196 248 153 224 Q110 200 110 140 Q110 105 133.5 81 Q157 57 208 57 Z " />
<glyph glyph-name="uni1EB6" unicode="&#x1eb6;" horiz-adv-x="650" d="M396 784 Q340 784 303 820 Q266 856 266 916 L332 916 Q340 852 397 852 Q458 852 470 916 L534 916 Q532 887 520 862.5 Q508 838 489 820.5 Q470 803 446 793.5 Q422 784 396 784 Z M168 206 L66 0 L-18 0 L341 715 L455 715 L584 0 L500 0 L463 206 L168 206 Z M450 275 L384 643 L202 275 L450 275 Z M272 -170 Q249 -170 233 -154.5 Q217 -139 217 -116 Q217 -93 233.5 -76.5 Q250 -60 273 -60 Q296 -60 311.5 -75.5 Q327 -91 327 -114 Q327 -137 311 -153.5 Q295 -170 272 -170 Z " />
<glyph glyph-name="uni1EB7" unicode="&#x1eb7;" horiz-adv-x="538" d="M313 592 Q257 592 220 628 Q183 664 183 724 L249 724 Q257 660 314 660 Q375 660 387 724 L451 724 Q449 695 437 670.5 Q425 646 406 628.5 Q387 611 363 601.5 Q339 592 313 592 Z M197 -8 Q116 -8 72 32.5 Q28 73 28 140 Q28 188 48.5 220.5 Q69 253 103.5 272 Q138 291 184.5 299 Q231 307 282 307 L383 307 L389 345 Q399 405 376.5 434 Q354 463 291 463 Q240 463 208.5 440.5 Q177 418 166 369 L83 369 Q92 416 114.5 447.5 Q137 479 166 497.5 Q195 516 229 524 Q263 532 294 532 Q338 532 374 521.5 Q410 511 434.5 488 Q459 465 469 428 Q479 391 471 338 L442 156 Q434 105 431.5 69 Q429 33 433 0 L355 0 Q353 21 352.5 43.5 Q352 66 354 83 Q326 38 285.5 15 Q245 -8 197 -8 Z M208 57 Q267 57 310 89.5 Q353 122 364 191 L373 248 L284 248 Q196 248 153 224 Q110 200 110 140 Q110 105 133.5 81 Q157 57 208 57 Z M216 -170 Q193 -170 177 -154.5 Q161 -139 161 -116 Q161 -93 177.5 -76.5 Q194 -60 217 -60 Q240 -60 255.5 -75.5 Q271 -91 271 -114 Q271 -137 255 -153.5 Q239 -170 216 -170 Z " />
<glyph glyph-name="uni1EB8" unicode="&#x1eb8;" horiz-adv-x="572" d="M574 715 L562 644 L236 644 L198 401 L464 401 L453 330 L187 330 L146 71 L494 71 L483 0 L48 0 L161 715 L574 715 Z M233 -170 Q210 -170 194 -154.5 Q178 -139 178 -116 Q178 -93 194.5 -76.5 Q211 -60 234 -60 Q257 -60 272.5 -75.5 Q288 -91 288 -114 Q288 -137 272 -153.5 Q256 -170 233 -170 Z " />
<glyph glyph-name="uni1EB9" unicode="&#x1eb9;" horiz-adv-x="553" d="M123 211 Q123 139 157.5 99.5 Q192 60 267 60 Q322 60 359 83 Q396 106 411 151 L494 151 Q482 111 459.5 80.5 Q437 50 407 30.5 Q377 11 340.5 1 Q304 -9 264 -9 Q211 -9 169 7.5 Q127 24 98 54 Q69 84 53.5 125 Q38 166 38 215 Q38 284 59 342 Q80 400 117 442 Q154 484 203.5 507.5 Q253 531 311 531 Q364 531 406.5 514.5 Q449 498 476.5 464.5 Q504 431 514.5 381 Q525 331 514 264 L511 245 L124 245 Q123 237 123 228.5 Q123 220 123 211 Z M306 463 Q278 463 251.5 454.5 Q225 446 202 427.5 Q179 409 161.5 380.5 Q144 352 134 312 L437 312 Q443 391 410.5 427 Q378 463 306 463 Z M224 -170 Q201 -170 185 -154.5 Q169 -139 169 -116 Q169 -93 185.5 -76.5 Q202 -60 225 -60 Q248 -60 263.5 -75.5 Q279 -91 279 -114 Q279 -137 263 -153.5 Q247 -170 224 -170 Z " />
<glyph glyph-name="uni1EBA" unicode="&#x1eba;" horiz-adv-x="572" d="M341 794 Q356 820 370 835 Q384 850 395 860.5 Q406 871 413.5 879.5 Q421 888 423 901 Q425 911 417.5 918 Q410 925 396 925 Q387 925 380.5 923.5 Q374 922 367 917.5 Q360 913 352 904.5 Q344 896 331 881 L283 907 Q299 930 313 945 Q327 960 340.5 969 Q354 978 369.5 982 Q385 986 404 986 Q443 986 466.5 961.5 Q490 937 485 901 Q482 876 472.5 863 Q463 850 451 840.5 Q439 831 425 819 Q411 807 398 784 L341 794 Z M574 715 L562 644 L236 644 L198 401 L464 401 L453 330 L187 330 L146 71 L494 71 L483 0 L48 0 L161 715 L574 715 Z " />
<glyph glyph-name="uni1EBB" unicode="&#x1ebb;" horiz-adv-x="553" d="M305 602 Q320 628 334 643 Q348 658 359 668.5 Q370 679 377.5 687.5 Q385 696 387 709 Q389 719 381.5 726 Q374 733 360 733 Q351 733 344.5 731.5 Q338 730 331 725.5 Q324 721 316 712.5 Q308 704 295 689 L247 715 Q263 738 277 753 Q291 768 304.5 777 Q318 786 333.5 790 Q349 794 368 794 Q407 794 430.5 769.5 Q454 745 449 709 Q446 684 436.5 671 Q427 658 415 648.5 Q403 639 389 627 Q375 615 362 592 L305 602 Z M123 211 Q123 139 157.5 99.5 Q192 60 267 60 Q322 60 359 83 Q396 106 411 151 L494 151 Q482 111 459.5 80.5 Q437 50 407 30.5 Q377 11 340.5 1 Q304 -9 264 -9 Q211 -9 169 7.5 Q127 24 98 54 Q69 84 53.5 125 Q38 166 38 215 Q38 284 59 342 Q80 400 117 442 Q154 484 203.5 507.5 Q253 531 311 531 Q364 531 406.5 514.5 Q449 498 476.5 464.5 Q504 431 514.5 381 Q525 331 514 264 L511 245 L124 245 Q123 237 123 228.5 Q123 220 123 211 Z M306 463 Q278 463 251.5 454.5 Q225 446 202 427.5 Q179 409 161.5 380.5 Q144 352 134 312 L437 312 Q443 391 410.5 427 Q378 463 306 463 Z " />
<glyph glyph-name="uni1EBC" unicode="&#x1ebc;" horiz-adv-x="572" d="M428 811 Q410 811 394.5 817.5 Q379 824 365.5 832.5 Q352 841 340 847.5 Q328 854 317 854 Q303 854 289.5 842 Q276 830 271 809 L211 809 Q222 864 250.5 894.5 Q279 925 318 925 Q335 925 350.5 918.5 Q366 912 379.5 903.5 Q393 895 405 888.5 Q417 882 428 882 Q442 882 455 894 Q468 906 473 927 L533 927 Q522 872 494 841.5 Q466 811 428 811 Z M574 715 L562 644 L236 644 L198 401 L464 401 L453 330 L187 330 L146 71 L494 71 L483 0 L48 0 L161 715 L574 715 Z " />
<glyph glyph-name="uni1EBD" unicode="&#x1ebd;" horiz-adv-x="553" d="M392 619 Q374 619 358.5 625.5 Q343 632 329.5 640.5 Q316 649 304 655.5 Q292 662 281 662 Q267 662 253.5 650 Q240 638 235 617 L175 617 Q186 672 214.5 702.5 Q243 733 282 733 Q299 733 314.5 726.5 Q330 720 343.5 711.5 Q357 703 369 696.5 Q381 690 392 690 Q406 690 419 702 Q432 714 437 735 L497 735 Q486 680 458 649.5 Q430 619 392 619 Z M123 211 Q123 139 157.5 99.5 Q192 60 267 60 Q322 60 359 83 Q396 106 411 151 L494 151 Q482 111 459.5 80.5 Q437 50 407 30.5 Q377 11 340.5 1 Q304 -9 264 -9 Q211 -9 169 7.5 Q127 24 98 54 Q69 84 53.5 125 Q38 166 38 215 Q38 284 59 342 Q80 400 117 442 Q154 484 203.5 507.5 Q253 531 311 531 Q364 531 406.5 514.5 Q449 498 476.5 464.5 Q504 431 514.5 381 Q525 331 514 264 L511 245 L124 245 Q123 237 123 228.5 Q123 220 123 211 Z M306 463 Q278 463 251.5 454.5 Q225 446 202 427.5 Q179 409 161.5 380.5 Q144 352 134 312 L437 312 Q443 391 410.5 427 Q378 463 306 463 Z " />
<glyph glyph-name="uni1EBE" unicode="&#x1ebe;" horiz-adv-x="572" d="M681 1003 L560 856 L494 856 L573 1003 L681 1003 Z M413 914 L499 770 L441 770 L367 845 L271 770 L209 770 L338 914 L413 914 Z M574 715 L562 644 L236 644 L198 401 L464 401 L453 330 L187 330 L146 71 L494 71 L483 0 L48 0 L161 715 L574 715 Z " />
<glyph glyph-name="uni1EBF" unicode="&#x1ebf;" horiz-adv-x="553" d="M645 811 L524 664 L458 664 L537 811 L645 811 Z M377 722 L463 578 L405 578 L331 653 L235 578 L173 578 L302 722 L377 722 Z M123 211 Q123 139 157.5 99.5 Q192 60 267 60 Q322 60 359 83 Q396 106 411 151 L494 151 Q482 111 459.5 80.5 Q437 50 407 30.5 Q377 11 340.5 1 Q304 -9 264 -9 Q211 -9 169 7.5 Q127 24 98 54 Q69 84 53.5 125 Q38 166 38 215 Q38 284 59 342 Q80 400 117 442 Q154 484 203.5 507.5 Q253 531 311 531 Q364 531 406.5 514.5 Q449 498 476.5 464.5 Q504 431 514.5 381 Q525 331 514 264 L511 245 L124 245 Q123 237 123 228.5 Q123 220 123 211 Z M306 463 Q278 463 251.5 454.5 Q225 446 202 427.5 Q179 409 161.5 380.5 Q144 352 134 312 L437 312 Q443 391 410.5 427 Q378 463 306 463 Z " />
<glyph glyph-name="uni1EC0" unicode="&#x1ec0;" horiz-adv-x="572" d="M521 1012 L568 865 L507 865 L419 1012 L521 1012 Z M413 914 L499 770 L441 770 L367 845 L271 770 L209 770 L338 914 L413 914 Z M574 715 L562 644 L236 644 L198 401 L464 401 L453 330 L187 330 L146 71 L494 71 L483 0 L48 0 L161 715 L574 715 Z " />
<glyph glyph-name="uni1EC1" unicode="&#x1ec1;" horiz-adv-x="553" d="M485 820 L532 673 L471 673 L383 820 L485 820 Z M377 722 L463 578 L405 578 L331 653 L235 578 L173 578 L302 722 L377 722 Z M123 211 Q123 139 157.5 99.5 Q192 60 267 60 Q322 60 359 83 Q396 106 411 151 L494 151 Q482 111 459.5 80.5 Q437 50 407 30.5 Q377 11 340.5 1 Q304 -9 264 -9 Q211 -9 169 7.5 Q127 24 98 54 Q69 84 53.5 125 Q38 166 38 215 Q38 284 59 342 Q80 400 117 442 Q154 484 203.5 507.5 Q253 531 311 531 Q364 531 406.5 514.5 Q449 498 476.5 464.5 Q504 431 514.5 381 Q525 331 514 264 L511 245 L124 245 Q123 237 123 228.5 Q123 220 123 211 Z M306 463 Q278 463 251.5 454.5 Q225 446 202 427.5 Q179 409 161.5 380.5 Q144 352 134 312 L437 312 Q443 391 410.5 427 Q378 463 306 463 Z " />
<glyph glyph-name="uni1EC2" unicode="&#x1ec2;" horiz-adv-x="572" d="M488 863 Q503 889 517 904 Q531 919 542 929.5 Q553 940 560.5 948.5 Q568 957 570 970 Q572 980 564.5 987 Q557 994 543 994 Q534 994 527.5 992.5 Q521 991 514 986.5 Q507 982 499 973.5 Q491 965 478 950 L430 976 Q446 999 460 1014 Q474 1029 487.5 1038 Q501 1047 516.5 1051 Q532 1055 551 1055 Q590 1055 613.5 1030.5 Q637 1006 632 970 Q629 945 619.5 932 Q610 919 598 909.5 Q586 900 572 888 Q558 876 545 853 L488 863 Z M413 914 L499 770 L441 770 L367 845 L271 770 L209 770 L338 914 L413 914 Z M574 715 L562 644 L236 644 L198 401 L464 401 L453 330 L187 330 L146 71 L494 71 L483 0 L48 0 L161 715 L574 715 Z " />
<glyph glyph-name="uni1EC3" unicode="&#x1ec3;" horiz-adv-x="553" d="M452 671 Q467 697 481 712 Q495 727 506 737.5 Q517 748 524.5 756.5 Q532 765 534 778 Q536 788 528.5 795 Q521 802 507 802 Q498 802 491.5 800.5 Q485 799 478 794.5 Q471 790 463 781.5 Q455 773 442 758 L394 784 Q410 807 424 822 Q438 837 451.5 846 Q465 855 480.5 859 Q496 863 515 863 Q554 863 577.5 838.5 Q601 814 596 778 Q593 753 583.5 740 Q574 727 562 717.5 Q550 708 536 696 Q522 684 509 661 L452 671 Z M377 722 L463 578 L405 578 L331 653 L235 578 L173 578 L302 722 L377 722 Z M123 211 Q123 139 157.5 99.5 Q192 60 267 60 Q322 60 359 83 Q396 106 411 151 L494 151 Q482 111 459.5 80.5 Q437 50 407 30.5 Q377 11 340.5 1 Q304 -9 264 -9 Q211 -9 169 7.5 Q127 24 98 54 Q69 84 53.5 125 Q38 166 38 215 Q38 284 59 342 Q80 400 117 442 Q154 484 203.5 507.5 Q253 531 311 531 Q364 531 406.5 514.5 Q449 498 476.5 464.5 Q504 431 514.5 381 Q525 331 514 264 L511 245 L124 245 Q123 237 123 228.5 Q123 220 123 211 Z M306 463 Q278 463 251.5 454.5 Q225 446 202 427.5 Q179 409 161.5 380.5 Q144 352 134 312 L437 312 Q443 391 410.5 427 Q378 463 306 463 Z " />
<glyph glyph-name="uni1EC4" unicode="&#x1ec4;" horiz-adv-x="572" d="M442 938 Q424 938 408.5 944.5 Q393 951 379.5 959.5 Q366 968 354 974.5 Q342 981 331 981 Q317 981 303.5 969 Q290 957 285 936 L225 936 Q236 991 264.5 1021.5 Q293 1052 332 1052 Q349 1052 364.5 1045.5 Q380 1039 393.5 1030.5 Q407 1022 419 1015.5 Q431 1009 442 1009 Q456 1009 469 1021 Q482 1033 487 1054 L547 1054 Q536 999 508 968.5 Q480 938 442 938 Z M413 914 L499 770 L441 770 L367 845 L271 770 L209 770 L338 914 L413 914 Z M574 715 L562 644 L236 644 L198 401 L464 401 L453 330 L187 330 L146 71 L494 71 L483 0 L48 0 L161 715 L574 715 Z " />
<glyph glyph-name="uni1EC5" unicode="&#x1ec5;" horiz-adv-x="553" d="M406 746 Q388 746 372.5 752.5 Q357 759 343.5 767.5 Q330 776 318 782.5 Q306 789 295 789 Q281 789 267.5 777 Q254 765 249 744 L189 744 Q200 799 228.5 829.5 Q257 860 296 860 Q313 860 328.5 853.5 Q344 847 357.5 838.5 Q371 830 383 823.5 Q395 817 406 817 Q420 817 433 829 Q446 841 451 862 L511 862 Q500 807 472 776.5 Q444 746 406 746 Z M377 722 L463 578 L405 578 L331 653 L235 578 L173 578 L302 722 L377 722 Z M123 211 Q123 139 157.5 99.5 Q192 60 267 60 Q322 60 359 83 Q396 106 411 151 L494 151 Q482 111 459.5 80.5 Q437 50 407 30.5 Q377 11 340.5 1 Q304 -9 264 -9 Q211 -9 169 7.5 Q127 24 98 54 Q69 84 53.5 125 Q38 166 38 215 Q38 284 59 342 Q80 400 117 442 Q154 484 203.5 507.5 Q253 531 311 531 Q364 531 406.5 514.5 Q449 498 476.5 464.5 Q504 431 514.5 381 Q525 331 514 264 L511 245 L124 245 Q123 237 123 228.5 Q123 220 123 211 Z M306 463 Q278 463 251.5 454.5 Q225 446 202 427.5 Q179 409 161.5 380.5 Q144 352 134 312 L437 312 Q443 391 410.5 427 Q378 463 306 463 Z " />
<glyph glyph-name="uni1EC6" unicode="&#x1ec6;" horiz-adv-x="572" d="M413 914 L499 770 L441 770 L367 845 L271 770 L209 770 L338 914 L413 914 Z M574 715 L562 644 L236 644 L198 401 L464 401 L453 330 L187 330 L146 71 L494 71 L483 0 L48 0 L161 715 L574 715 Z M233 -170 Q210 -170 194 -154.5 Q178 -139 178 -116 Q178 -93 194.5 -76.5 Q211 -60 234 -60 Q257 -60 272.5 -75.5 Q288 -91 288 -114 Q288 -137 272 -153.5 Q256 -170 233 -170 Z " />
<glyph glyph-name="uni1EC7" unicode="&#x1ec7;" horiz-adv-x="553" d="M377 722 L463 578 L405 578 L331 653 L235 578 L173 578 L302 722 L377 722 Z M123 211 Q123 139 157.5 99.5 Q192 60 267 60 Q322 60 359 83 Q396 106 411 151 L494 151 Q482 111 459.5 80.5 Q437 50 407 30.5 Q377 11 340.5 1 Q304 -9 264 -9 Q211 -9 169 7.5 Q127 24 98 54 Q69 84 53.5 125 Q38 166 38 215 Q38 284 59 342 Q80 400 117 442 Q154 484 203.5 507.5 Q253 531 311 531 Q364 531 406.5 514.5 Q449 498 476.5 464.5 Q504 431 514.5 381 Q525 331 514 264 L511 245 L124 245 Q123 237 123 228.5 Q123 220 123 211 Z M306 463 Q278 463 251.5 454.5 Q225 446 202 427.5 Q179 409 161.5 380.5 Q144 352 134 312 L437 312 Q443 391 410.5 427 Q378 463 306 463 Z M224 -170 Q201 -170 185 -154.5 Q169 -139 169 -116 Q169 -93 185.5 -76.5 Q202 -60 225 -60 Q248 -60 263.5 -75.5 Q279 -91 279 -114 Q279 -137 263 -153.5 Q247 -170 224 -170 Z " />
<glyph glyph-name="uni1EC8" unicode="&#x1ec8;" horiz-adv-x="279" d="M195 794 Q210 820 224 835 Q238 850 249 860.5 Q260 871 267.5 879.5 Q275 888 277 901 Q279 911 271.5 918 Q264 925 250 925 Q241 925 234.5 923.5 Q228 922 221 917.5 Q214 913 206 904.5 Q198 896 185 881 L137 907 Q153 930 167 945 Q181 960 194.5 969 Q208 978 223.5 982 Q239 986 258 986 Q297 986 320.5 961.5 Q344 937 339 901 Q336 876 326.5 863 Q317 850 305 840.5 Q293 831 279 819 Q265 807 252 784 L195 794 Z M253 715 L140 0 L53 0 L166 715 L253 715 Z " />
<glyph glyph-name="uni1EC9" unicode="&#x1ec9;" horiz-adv-x="255" d="M156 602 Q171 628 185 643 Q199 658 210 668.5 Q221 679 228.5 687.5 Q236 696 238 709 Q240 719 232.5 726 Q225 733 211 733 Q202 733 195.5 731.5 Q189 730 182 725.5 Q175 721 167 712.5 Q159 704 146 689 L98 715 Q114 738 128 753 Q142 768 155.5 777 Q169 786 184.5 790 Q200 794 219 794 Q258 794 281.5 769.5 Q305 745 300 709 Q297 684 287.5 671 Q278 658 266 648.5 Q254 639 240 627 Q226 615 213 592 L156 602 Z M210 523 L127 0 L44 0 L127 523 L210 523 Z " />
<glyph glyph-name="uni1ECA" unicode="&#x1eca;" horiz-adv-x="279" d="M253 715 L140 0 L53 0 L166 715 L253 715 Z M87 -170 Q64 -170 48 -154.5 Q32 -139 32 -116 Q32 -93 48.5 -76.5 Q65 -60 88 -60 Q111 -60 126.5 -75.5 Q142 -91 142 -114 Q142 -137 126 -153.5 Q110 -170 87 -170 Z " />
<glyph glyph-name="uni1ECB" unicode="&#x1ecb;" horiz-adv-x="255" d="M192 632 Q169 632 153 647.5 Q137 663 137 686 Q137 709 153.5 725.5 Q170 742 193 742 Q216 742 231.5 726.5 Q247 711 247 688 Q247 665 231 648.5 Q215 632 192 632 Z M210 523 L127 0 L44 0 L127 523 L210 523 Z M75 -170 Q52 -170 36 -154.5 Q20 -139 20 -116 Q20 -93 36.5 -76.5 Q53 -60 76 -60 Q99 -60 114.5 -75.5 Q130 -91 130 -114 Q130 -137 114 -153.5 Q98 -170 75 -170 Z " />
<glyph glyph-name="uni1ECC" unicode="&#x1ecc;" horiz-adv-x="811" d="M773 402 Q773 313 743.5 237.5 Q714 162 663 107.5 Q612 53 543 22 Q474 -9 395 -9 Q321 -9 260.5 15.5 Q200 40 157.5 82.5 Q115 125 91.5 184 Q68 243 68 312 Q68 398 97.5 473 Q127 548 178.5 603.5 Q230 659 300.5 691.5 Q371 724 452 724 Q529 724 589 698.5 Q649 673 690 629 Q731 585 752 526.5 Q773 468 773 402 Z M683 402 Q683 454 668 500 Q653 546 623.5 580 Q594 614 550.5 634 Q507 654 451 654 Q384 654 329.5 626.5 Q275 599 237 552.5 Q199 506 178.5 443.5 Q158 381 158 312 Q158 254 175.5 207.5 Q193 161 224.5 128.5 Q256 96 300 79 Q344 62 396 62 Q460 62 512.5 87.5 Q565 113 603 158.5 Q641 204 662 266.5 Q683 329 683 402 Z M353 -170 Q330 -170 314 -154.5 Q298 -139 298 -116 Q298 -93 314.5 -76.5 Q331 -60 354 -60 Q377 -60 392.5 -75.5 Q408 -91 408 -114 Q408 -137 392 -153.5 Q376 -170 353 -170 Z " />
<glyph glyph-name="uni1ECD" unicode="&#x1ecd;" horiz-adv-x="589" d="M271 -8 Q217 -8 173.5 9.5 Q130 27 100 58 Q70 89 54 131.5 Q38 174 38 224 Q38 290 59.5 346 Q81 402 118.5 443 Q156 484 206.5 507.5 Q257 531 316 531 Q370 531 413.5 514 Q457 497 487.5 466.5 Q518 436 534 394 Q550 352 550 301 Q550 234 529.5 177.5 Q509 121 472 80 Q435 39 384 15.5 Q333 -8 271 -8 Z M275 60 Q319 60 354 78 Q389 96 413 128.5 Q437 161 450 204.5 Q463 248 463 299 Q463 374 424.5 418.5 Q386 463 311 463 Q269 463 234.5 445 Q200 427 175.5 394.5 Q151 362 137.5 318.5 Q124 275 124 224 Q124 149 161 104.5 Q198 60 275 60 Z M242 -170 Q219 -170 203 -154.5 Q187 -139 187 -116 Q187 -93 203.5 -76.5 Q220 -60 243 -60 Q266 -60 281.5 -75.5 Q297 -91 297 -114 Q297 -137 281 -153.5 Q265 -170 242 -170 Z " />
<glyph glyph-name="uni1ECE" unicode="&#x1ece;" horiz-adv-x="811" d="M461 794 Q476 820 490 835 Q504 850 515 860.5 Q526 871 533.5 879.5 Q541 888 543 901 Q545 911 537.5 918 Q530 925 516 925 Q507 925 500.5 923.5 Q494 922 487 917.5 Q480 913 472 904.5 Q464 896 451 881 L403 907 Q419 930 433 945 Q447 960 460.5 969 Q474 978 489.5 982 Q505 986 524 986 Q563 986 586.5 961.5 Q610 937 605 901 Q602 876 592.5 863 Q583 850 571 840.5 Q559 831 545 819 Q531 807 518 784 L461 794 Z M773 402 Q773 313 743.5 237.5 Q714 162 663 107.5 Q612 53 543 22 Q474 -9 395 -9 Q321 -9 260.5 15.5 Q200 40 157.5 82.5 Q115 125 91.5 184 Q68 243 68 312 Q68 398 97.5 473 Q127 548 178.5 603.5 Q230 659 300.5 691.5 Q371 724 452 724 Q529 724 589 698.5 Q649 673 690 629 Q731 585 752 526.5 Q773 468 773 402 Z M683 402 Q683 454 668 500 Q653 546 623.5 580 Q594 614 550.5 634 Q507 654 451 654 Q384 654 329.5 626.5 Q275 599 237 552.5 Q199 506 178.5 443.5 Q158 381 158 312 Q158 254 175.5 207.5 Q193 161 224.5 128.5 Q256 96 300 79 Q344 62 396 62 Q460 62 512.5 87.5 Q565 113 603 158.5 Q641 204 662 266.5 Q683 329 683 402 Z " />
<glyph glyph-name="uni1ECF" unicode="&#x1ecf;" horiz-adv-x="589" d="M323 602 Q338 628 352 643 Q366 658 377 668.5 Q388 679 395.5 687.5 Q403 696 405 709 Q407 719 399.5 726 Q392 733 378 733 Q369 733 362.5 731.5 Q356 730 349 725.5 Q342 721 334 712.5 Q326 704 313 689 L265 715 Q281 738 295 753 Q309 768 322.5 777 Q336 786 351.5 790 Q367 794 386 794 Q425 794 448.5 769.5 Q472 745 467 709 Q464 684 454.5 671 Q445 658 433 648.5 Q421 639 407 627 Q393 615 380 592 L323 602 Z M271 -8 Q217 -8 173.5 9.5 Q130 27 100 58 Q70 89 54 131.5 Q38 174 38 224 Q38 290 59.5 346 Q81 402 118.5 443 Q156 484 206.5 507.5 Q257 531 316 531 Q370 531 413.5 514 Q457 497 487.5 466.5 Q518 436 534 394 Q550 352 550 301 Q550 234 529.5 177.5 Q509 121 472 80 Q435 39 384 15.5 Q333 -8 271 -8 Z M275 60 Q319 60 354 78 Q389 96 413 128.5 Q437 161 450 204.5 Q463 248 463 299 Q463 374 424.5 418.5 Q386 463 311 463 Q269 463 234.5 445 Q200 427 175.5 394.5 Q151 362 137.5 318.5 Q124 275 124 224 Q124 149 161 104.5 Q198 60 275 60 Z " />
<glyph glyph-name="uni1ED0" unicode="&#x1ed0;" horiz-adv-x="811" d="M801 1003 L680 856 L614 856 L693 1003 L801 1003 Z M533 914 L619 770 L561 770 L487 845 L391 770 L329 770 L458 914 L533 914 Z M773 402 Q773 313 743.5 237.5 Q714 162 663 107.5 Q612 53 543 22 Q474 -9 395 -9 Q321 -9 260.5 15.5 Q200 40 157.5 82.5 Q115 125 91.5 184 Q68 243 68 312 Q68 398 97.5 473 Q127 548 178.5 603.5 Q230 659 300.5 691.5 Q371 724 452 724 Q529 724 589 698.5 Q649 673 690 629 Q731 585 752 526.5 Q773 468 773 402 Z M683 402 Q683 454 668 500 Q653 546 623.5 580 Q594 614 550.5 634 Q507 654 451 654 Q384 654 329.5 626.5 Q275 599 237 552.5 Q199 506 178.5 443.5 Q158 381 158 312 Q158 254 175.5 207.5 Q193 161 224.5 128.5 Q256 96 300 79 Q344 62 396 62 Q460 62 512.5 87.5 Q565 113 603 158.5 Q641 204 662 266.5 Q683 329 683 402 Z " />
<glyph glyph-name="uni1ED1" unicode="&#x1ed1;" horiz-adv-x="589" d="M663 811 L542 664 L476 664 L555 811 L663 811 Z M395 722 L481 578 L423 578 L349 653 L253 578 L191 578 L320 722 L395 722 Z M271 -8 Q217 -8 173.5 9.5 Q130 27 100 58 Q70 89 54 131.5 Q38 174 38 224 Q38 290 59.5 346 Q81 402 118.5 443 Q156 484 206.5 507.5 Q257 531 316 531 Q370 531 413.5 514 Q457 497 487.5 466.5 Q518 436 534 394 Q550 352 550 301 Q550 234 529.5 177.5 Q509 121 472 80 Q435 39 384 15.5 Q333 -8 271 -8 Z M275 60 Q319 60 354 78 Q389 96 413 128.5 Q437 161 450 204.5 Q463 248 463 299 Q463 374 424.5 418.5 Q386 463 311 463 Q269 463 234.5 445 Q200 427 175.5 394.5 Q151 362 137.5 318.5 Q124 275 124 224 Q124 149 161 104.5 Q198 60 275 60 Z " />
<glyph glyph-name="uni1ED2" unicode="&#x1ed2;" horiz-adv-x="811" d="M641 1012 L688 865 L627 865 L539 1012 L641 1012 Z M533 914 L619 770 L561 770 L487 845 L391 770 L329 770 L458 914 L533 914 Z M773 402 Q773 313 743.5 237.5 Q714 162 663 107.5 Q612 53 543 22 Q474 -9 395 -9 Q321 -9 260.5 15.5 Q200 40 157.5 82.5 Q115 125 91.5 184 Q68 243 68 312 Q68 398 97.5 473 Q127 548 178.5 603.5 Q230 659 300.5 691.5 Q371 724 452 724 Q529 724 589 698.5 Q649 673 690 629 Q731 585 752 526.5 Q773 468 773 402 Z M683 402 Q683 454 668 500 Q653 546 623.5 580 Q594 614 550.5 634 Q507 654 451 654 Q384 654 329.5 626.5 Q275 599 237 552.5 Q199 506 178.5 443.5 Q158 381 158 312 Q158 254 175.5 207.5 Q193 161 224.5 128.5 Q256 96 300 79 Q344 62 396 62 Q460 62 512.5 87.5 Q565 113 603 158.5 Q641 204 662 266.5 Q683 329 683 402 Z " />
<glyph glyph-name="uni1ED3" unicode="&#x1ed3;" horiz-adv-x="589" d="M503 820 L550 673 L489 673 L401 820 L503 820 Z M395 722 L481 578 L423 578 L349 653 L253 578 L191 578 L320 722 L395 722 Z M271 -8 Q217 -8 173.5 9.5 Q130 27 100 58 Q70 89 54 131.5 Q38 174 38 224 Q38 290 59.5 346 Q81 402 118.5 443 Q156 484 206.5 507.5 Q257 531 316 531 Q370 531 413.5 514 Q457 497 487.5 466.5 Q518 436 534 394 Q550 352 550 301 Q550 234 529.5 177.5 Q509 121 472 80 Q435 39 384 15.5 Q333 -8 271 -8 Z M275 60 Q319 60 354 78 Q389 96 413 128.5 Q437 161 450 204.5 Q463 248 463 299 Q463 374 424.5 418.5 Q386 463 311 463 Q269 463 234.5 445 Q200 427 175.5 394.5 Q151 362 137.5 318.5 Q124 275 124 224 Q124 149 161 104.5 Q198 60 275 60 Z " />
<glyph glyph-name="uni1ED4" unicode="&#x1ed4;" horiz-adv-x="811" d="M608 863 Q623 889 637 904 Q651 919 662 929.5 Q673 940 680.5 948.5 Q688 957 690 970 Q692 980 684.5 987 Q677 994 663 994 Q654 994 647.5 992.5 Q641 991 634 986.5 Q627 982 619 973.5 Q611 965 598 950 L550 976 Q566 999 580 1014 Q594 1029 607.5 1038 Q621 1047 636.5 1051 Q652 1055 671 1055 Q710 1055 733.5 1030.5 Q757 1006 752 970 Q749 945 739.5 932 Q730 919 718 909.5 Q706 900 692 888 Q678 876 665 853 L608 863 Z M533 914 L619 770 L561 770 L487 845 L391 770 L329 770 L458 914 L533 914 Z M773 402 Q773 313 743.5 237.5 Q714 162 663 107.5 Q612 53 543 22 Q474 -9 395 -9 Q321 -9 260.5 15.5 Q200 40 157.5 82.5 Q115 125 91.5 184 Q68 243 68 312 Q68 398 97.5 473 Q127 548 178.5 603.5 Q230 659 300.5 691.5 Q371 724 452 724 Q529 724 589 698.5 Q649 673 690 629 Q731 585 752 526.5 Q773 468 773 402 Z M683 402 Q683 454 668 500 Q653 546 623.5 580 Q594 614 550.5 634 Q507 654 451 654 Q384 654 329.5 626.5 Q275 599 237 552.5 Q199 506 178.5 443.5 Q158 381 158 312 Q158 254 175.5 207.5 Q193 161 224.5 128.5 Q256 96 300 79 Q344 62 396 62 Q460 62 512.5 87.5 Q565 113 603 158.5 Q641 204 662 266.5 Q683 329 683 402 Z " />
</font>
</svg>
